<svg id="Layer_1" data-name="Layer 1" xmlns="http://www.w3.org/2000/svg" viewBox="0 0 181.81 236.04"><defs><style>.cls-1{fill:#fff}</style></defs><title>hand</title><path d="M47.58 126.66c.13-3 .25-4.52.26-6v-81c0-19.18 12.32-28.28 31.07-22.26C81.39 6.97 87.76.53 98.8-.01c9.3-.45 15.71 4.3 20 12.49 8.25-2.54 16.6-4.07 24.14 1.73 7.39 5.68 7.54 14.3 8.23 22.8a83.75 83.75 0 0 1 8.53-1c13.26-.26 21.36 7.25 21.55 20.62q.57 40.46.49 80.92c0 13.62.21 27.39-1.66 40.81-3.24 23.18-14.49 41.62-36.82 51.44-17 7.49-34.9 7.13-52.91 4.68-14.19-1.94-27.45-6.65-37.37-17a162 162 0 0 1-21.36-28c-10.47-17.31-20.12-35.15-29.37-53.15-6.45-12.55 1.36-27.79 14.44-29.6 9.06-1.26 16.71 1.51 22.37 9 2.53 3.22 5.06 6.44 8.52 10.93zm123.25-13c0-17.66.06-35.32-.06-53a36.08 36.08 0 0 0-1.36-8.31c-1.12-4.51-4.67-5.79-8.78-5.77s-7.25 1.56-8.26 5.77a42.31 42.31 0 0 0-1.41 9.29c-.15 13-.06 26-.06 39 0 2.17 0 4.34-.11 6.5-.19 3.42-1.72 5.77-5.46 5.75-3.91 0-5-2.52-5-6 0-22.33.08-44.66 0-67a68.92 68.92 0 0 0-1.06-11.4c-.9-5.23-4.23-7.7-9.46-7.57-6 .16-9.41 3.85-9.43 10.41-.06 22.49 0 45 0 67.48 0 1.66.39 3.7-.41 4.88-1.17 1.72-3.37 4-4.92 3.88-1.92-.18-4-2.34-5.31-4.15-.81-1.14-.32-3.23-.32-4.89v-77c0-6.34-3.77-10.41-9.44-10.63-5.89-.23-9.85 3.28-10.46 9.68-.32 3.3-.1 6.66-.1 10v71c0 3.73-1.79 6.27-5.6 6.19s-4.86-2.94-4.86-6.29V56.99c0-7.48.07-15-.53-22.43a9.56 9.56 0 0 0-9.9-8.61 10 10 0 0 0-9.57 9.69c-.13 2 0 4 0 6v99c0 3.18.14 7.27-3.72 7.66-2.43.24-5.88-1.73-7.61-3.78-6.32-7.48-11.88-15.6-18.16-23.11-4.2-5-9.91-5.73-14.25-2.72s-5.71 8.71-2.59 14.3c11.16 20 22.17 40.11 34 59.7 9.22 15.22 21.8 27.12 40.24 30.06a204.06 204.06 0 0 0 29.75 2.08 51.62 51.62 0 0 0 26.18-6.88c20.11-11.42 27.06-30.26 27.9-51.86.71-17.45.13-34.97.13-52.46z"/><path class="cls-1" d="M170.83 113.63c0 17.49.54 35-.14 52.48-.84 21.6-7.79 40.44-27.9 51.86a51.62 51.62 0 0 1-26.24 6.85 204.06 204.06 0 0 1-29.75-2.08c-18.44-2.94-31-14.84-40.24-30.06-11.87-19.59-22.88-39.7-34-59.7-3.12-5.59-1.76-11.28 2.59-14.3s10.05-2.3 14.25 2.72c6.28 7.51 11.85 15.63 18.16 23.11 1.73 2 5.18 4 7.61 3.78 3.86-.39 3.71-4.48 3.72-7.66v-99c0-2-.12-4 0-6a10 10 0 0 1 9.57-9.69 9.56 9.56 0 0 1 9.9 8.61c.59 7.45.49 15 .53 22.43.07 14.83 0 29.66 0 44.49 0 3.35 1.11 6.22 4.86 6.29s5.57-2.46 5.6-6.19v-2-69c0-3.33-.21-6.69.1-10 .61-6.4 4.57-9.91 10.46-9.68 5.68.22 9.43 4.29 9.44 10.63.05 25.66 0 51.32 0 77 0 1.66-.49 3.75.32 4.89 1.29 1.82 3.38 4 5.31 4.15 1.56.14 3.75-2.16 4.92-3.88.8-1.18.41-3.22.41-4.88V31.32c0-6.57 3.47-10.26 9.43-10.41 5.23-.14 8.56 2.34 9.46 7.57a68.92 68.92 0 0 1 1.06 11.4c.09 22.33.05 44.66 0 67 0 3.48 1.07 6 5 6 3.75 0 5.27-2.32 5.46-5.75.12-2.16.11-4.33.11-6.5 0-13-.09-26 .06-39a42.31 42.31 0 0 1 1.41-9.29c1-4.21 4.3-5.74 8.26-5.77s7.66 1.25 8.78 5.77a36.08 36.08 0 0 1 1.32 8.29c.23 17.68.17 35.32.17 53z"/></svg>