<svg version="1.1" id="Layer_1" xmlns="http://www.w3.org/2000/svg" x="0" y="0" viewBox="0 0 1366 768" xml:space="preserve"><style type="text/css">.st0{fill:none;stroke:#000;stroke-width:3;stroke-linecap:round;stroke-linejoin:round}</style><path class="st0" d="M-4.3 451.2s1.6-1 1.6-.9c.6 1 47.8-23.5 48.6-22.3 0 .1 1.7-1 1.7-1 .1.1-1.1 5.8-1 5.9L80 413.6c.9 1.5-51 33.8-50.2 35.2 0 0 24.1-14 24.2-13.9.2.4-15.8 14.3-15.5 14.8l73.6-42.5c.4.8-26.7 20-26.2 20.7l1.7-1c.5.8-31.6 23.1-31.1 24 0 0 78.5-45.4 78.5-45.3.4.6-27.6 21.4-27.2 22l7.2-4.2c.1.1 2.8 4.4 2.9 4.5l1.7-1c.1.2 9.1.7 9.3 1l1.7-1c.2.3 13.3-1.8 13.4-1.6l18.7-10.8c.1.2-9 10.6-8.8 10.9l2.7-1.6c.1.1 2.5 3.9 2.6 4l1.7-1c.3.5-16.4 15-16.2 15.5 0 0 32.4-18.8 32.4-18.7.1.1 3 4.1 3.1 4.2l1.7-1c.1.2 7.7.8 7.7 1l1.7-1c.5.9 34.6-15.4 35.2-14.5 0 0 14.1-8.2 14.2-8.2 1 1.7-56 35.5-55.1 37.1l8.3-4.8c.4.6 25.4-9.3 25.8-8.7l1.7-1c.1.2 7.5.8 7.6 1l1.7-1c.4.6 22.4-7.6 22.8-7l24-13.9c1 1.7-57.8 36.4-56.8 38.2l47.2-27.3c.1.2-9.1 10.7-8.9 11l1.7-1c.3.6-26.4 19.8-26 20.6 0 0 39.7-23 39.7-22.9.1.3 10.6-.6 10.7-.4l5-2.9c.3.5-15.9 14.6-15.7 15.1l51-29.5c.4.8-27.1 20.3-26.7 21l1.7-1c.1.2-4.7 7.8-4.6 8l1-.6c.2.3 11.4-1.1 11.5-.8l49-28.3c.6 1-47.5 31.2-46.8 32.5l49.9-28.8c.6 1-46 31.2-45.3 32.4l22-12.7c.1.2-6.2 8.7-6.1 8.9l5-2.9c.8 1.3 48-24 48.7-22.7 0 0 5.4-3.2 5.4-3.1.9 1.6-59 37.7-58.2 39.1 0 0 26.3-15.3 26.4-15.2.2.4 17.1-5.1 17.3-4.7l1.7-1c.1.2 8.4.8 8.5 1l1.7-1c.1.2 7.6.8 7.7 1l1.7-1c.2.3-7.4 9.9-7.3 10.2 0 0 12.7-7.4 12.7-7.3.2.3 13.7-2.2 13.9-1.9l1.7-1c.1.1 7.3.8 7.4 1l1.7-1c.3.6-23.9 19-23.5 19.7 0 0 10.7-6.3 10.8-6.2.1.2-4.7 7.9-4.5 8.1 0 0 38.8-22.5 38.9-22.4.1.2 7.7 1.6 7.8 1.8l1.7-1c.1.2 7.9.8 8 1l1.7-1c.1.2-5 8.9-4.9 9.1l15.7-9.1c.1.2 8.3.7 8.4.9l1.7-1c.4.6-25.6 19.2-25.2 19.9 0 0 58.2-33.7 58.3-33.6.4.8-30.5 22.7-30.1 23.5 0 0 29.7-17.2 29.8-17.2.1.2-5.3 8.2-5.2 8.4l1.7-1c.3.5-16.1 14.4-15.8 14.9 0 .1 63.2-36.6 63.3-36.5.3.6-24.9 19.4-24.4 20.2l23.3-13.5c.8 1.4-53.2 34.8-52.4 36.2l49.2-28.4c.1.2-2.9 7.8-2.8 7.9l1.7-1c.1.2 7.3.9 7.4 1 0 0 17.9-10.4 17.9-10.3.2.3-7.4 10-7.2 10.3l1.7-1c.1.2-4.8 8.5-4.7 8.7l15.2-8.8c.1.2 7.8.9 7.9 1.1l1.7-1c.1.2 8.8.8 8.9 1l1.7-1c.1.1 4.9 2.5 5 2.6l19.2-11.1c.2.3-6.8 9.2-6.7 9.5l1.7-1c.1.2 7.7.8 7.7 1l1.7-1c.1.2 8.8.7 9 1l1.7-1c.1.1 2.7 3.8 2.8 3.9l45-26c.5.8-31.2 22.4-30.8 23.1l1.7-1c.1.1 2.2 4.3 2.3 4.4 0 0 36.3-21 36.4-21 .3.5-21.2 16.9-20.8 17.6l1.7-1c.1.1 7.9.8 8 1l1.7-1c.1.2 10.2-.6 10.4-.4 0 0 7.9-4.6 8-4.6.4.7-21 16.8-20.7 17.3l14.5-8.4c.2.3 15.5-3.3 15.7-3l1.7-1c.1.2 7.8.8 7.9 1l1.7-1c.1.1 5.9 2 6 2.2l36-20.8c.8 1.4-56.2 36.3-55.5 37.5 0 0 3.9-2.3 3.9-2.2.4.7 36.5-16.6 37-15.7l1.7-1c.1.2 8.2.8 8.3 1l1.7-1c.1.2 8 .8 8.1 1 0 .1 1.7-1 1.7-1 .3.6-22.4 18-22.1 18.6l47.3-27.3c.2.4-14.5 13.9-14.3 14.3 0 0 6.6-3.9 6.6-3.8.3.5-16.4 14.1-16.1 14.5 0 0 53.1-30.7 53.1-30.6.1.2-4.8 7.9-4.7 8.1l20.6-11.9c.2.3-10.6 11.3-10.4 11.6 0 0 8.9-5.2 8.9-5.1.2.3-11.1 12.2-10.9 12.6 0 .1 1.7-1 1.7-1 .1.2 7.8.8 7.9 1l1.7-1c.4.6 25-9.6 25.4-9 0 0 7.7-4.5 7.7-4.4.2.4-15.2 13.9-15 14.4l1.7-1c.1.2 7.9.8 8 1 0 .1 1.7-1 1.7-1 .1.2 7.5 1.8 7.6 1.9 0 0 39.2-22.7 39.2-22.6.4.8-27 20.8-26.5 21.7l1.7-1c.1.2 8.9.8 9 1l1.7-1c.1.2 8 .8 8.1 1l1.7-1c.1.2 8.7.8 8.8 1 0 .1 1.7-1 1.7-1 .1.2 9.1.8 9.2 1l1.7-1c.1.2 7.7.8 7.8 1l1.7-1c.1.2 7.7.8 7.8 1l1.7-1c.4.6-29 21.4-28.6 22.2 0 0 58.7-34 58.8-33.9.1.1 3.1 3.7 3.2 3.9l6.2-3.6c.1.1-.3 5.5-.2 5.6 0 0 29.7-17.2 29.7-17.1.6 1-45.5 29.8-44.8 31.1l11.4-6.6c.2.3-9 11-8.8 11.2l37.9-21.9c.2.3-7.9 9.8-7.7 10.1l1.7-1c.2.4 14-2.1 14.1-1.8 0 0 16.3-9.5 16.3-9.4.2.4-8.9 11-8.6 11.3 0 0 34.3-19.9 34.3-19.8.9 1.6-52.9 34.5-52.1 35.8 0 0 29.9-17.3 30-17.3.5.8 29.9-12.5 30.3-11.9 0 0 6.5-3.8 6.6-3.8.4.6-21.1 17.2-20.7 17.9l1.7-1c.2.3-10.8 11-10.6 11.4 0 0 20.1-11.7 20.1-11.6.1.2 8.1 1 8.2 1.2l1.7-1c.1.2 9.8.3 9.9.6l26.1-15.1c.6 1.1-34.3 23.7-33.8 24.7 0 0 13.7-8 13.8-7.9.3.5 26-10 26.3-9.4 0 0 25.4-14.7 25.5-14.7.5.8-29.6 22.1-29.2 22.8l1.7-1c.1.2 8.9.8 9 1l1.7-1c.1.2 8.4.8 8.5 1l1.7-1"/></svg>