<svg version="1.1" id="Layer_1" xmlns="http://www.w3.org/2000/svg" x="0" y="0" viewBox="0 0 1366 768" xml:space="preserve"><style type="text/css">.st0{fill:none;stroke:#000;stroke-width:5;stroke-miterlimit:10}</style><path class="st0" d="M0 342.5c40.2 0 40.2 84 80.4 84s40.2-84 80.4-84 40.2 84 80.4 84 40.2-84 80.4-84 40.2 84 80.4 84 40.2-84 80.3-84c40.2 0 40.2 84 80.3 84 40.2 0 40.2-84 80.4-84s40.2 84 80.4 84 40.2-84 80.4-84 40.2 84 80.4 84 40.2-84 80.4-84 40.2 84 80.4 84 40.2-84 80.4-84 40.2 84 80.4 84 40.2-84 80.4-84 40.2 84 80.4 84"/></svg>