<svg xmlns="http://www.w3.org/2000/svg" width="1920" height="1080"><path d="M257 1277l-270-6 607 36z" fill="#ac6c9c" stroke="#ac6c9c" stroke-width="1.51"/><path d="M615-258l163 16 64 3z" fill="#ffc2cf" stroke="#ffc2cf" stroke-width="1.51"/><path d="M615-258l227 19 453-16z" fill="#ffb5c9" stroke="#ffb5c9" stroke-width="1.51"/><path d="M1087 1316l-493-9 721 35z" fill="#a43287" stroke="#a43287" stroke-width="1.51"/><path d="M615-258l680 3 210-4z" fill="#f9a5c5" stroke="#f9a5c5" stroke-width="1.51"/><path d="M1757 1274l-163 69 362-65z" fill="#720074" stroke="#720074" stroke-width="1.51"/><path d="M1939 229l-6 151 164 48z" fill="#af5493" stroke="#af5493" stroke-width="1.51"/><path d="M1956 1278l-362 65 507-26z" fill="#660071" stroke="#660071" stroke-width="1.51"/><path d="M1956 1278l145 39 22-139z" fill="#5f006f" stroke="#5f006f" stroke-width="1.51"/><path d="M2089 68l-103-6 153 134z" fill="#aa6899" stroke="#aa6899" stroke-width="1.51"/><path d="M1986 62l-47 167 200-33z" fill="#ae6697" stroke="#ae6697" stroke-width="1.51"/><path d="M1939 229l158 199 42-232z" fill="#aa5993" stroke="#aa5993" stroke-width="1.51"/><path d="M2097-69l-8 137 50 128z" fill="#a86a9b" stroke="#a86a9b" stroke-width="1.51"/><path d="M2097 428l-1 113 43-345z" fill="#a54b8e" stroke="#a54b8e" stroke-width="1.51"/><path d="M2050 832l-153 140 243-11z" fill="#8a0379" stroke="#8a0379" stroke-width="1.51"/><path d="M1897 972l86 168 157-179z" fill="#7f0077" stroke="#7f0077" stroke-width="1.51"/><path d="M2090 720l-40 112 90 129z" fill="#8e0e7d" stroke="#8e0e7d" stroke-width="1.51"/><path d="M1983 1140l140 38 17-217z" fill="#710073" stroke="#710073" stroke-width="1.51"/><path d="M2139 196l-43 345 44 420z" fill="#a13286" stroke="#a13286" stroke-width="1.51"/><path d="M2096 541l-6 179 50 241z" fill="#981982" stroke="#981982" stroke-width="1.51"/><path d="M2057-233l-90 119 130 45z" fill="#ae79a8" stroke="#ae79a8" stroke-width="1.51"/><path d="M1837-254l54 38 166-17z" fill="#b981b0" stroke="#b981b0" stroke-width="1.51"/><path d="M1936 689l154 31 6-179z" fill="#a22886" stroke="#a22886" stroke-width="1.51"/><path d="M1986 62l103 6 8-137z" fill="#ac6f9f" stroke="#ac6f9f" stroke-width="1.51"/><path d="M1983 1140l-27 138 167-100z" fill="#690072" stroke="#690072" stroke-width="1.51"/><path d="M1903 890l-6 82 153-140z" fill="#93077c" stroke="#93077c" stroke-width="1.51"/><path d="M1945 496l-9 193 160-148z" fill="#ab3388" stroke="#ab3388" stroke-width="1.51"/><path d="M1967-114l19 176 111-131z" fill="#b074a4" stroke="#b074a4" stroke-width="1.51"/><path d="M1945 496l151 45 1-113z" fill="#a93f8b" stroke="#a93f8b" stroke-width="1.51"/><path d="M1933 380l12 116 152-68z" fill="#ae488e" stroke="#ae488e" stroke-width="1.51"/><path d="M1936 689l114 143 40-112z" fill="#9e1984" stroke="#9e1984" stroke-width="1.51"/><path d="M1891-216l76 102 90-119z" fill="#b47dad" stroke="#b47dad" stroke-width="1.51"/><path d="M1936 689l-33 201 147-58z" fill="#9d1482" stroke="#9d1482" stroke-width="1.51"/><path d="M1505-259l140 49 192-44z" fill="#d18ab4" stroke="#d18ab4" stroke-width="1.51"/><path d="M1829 1095l127 183 27-138z" fill="#740075" stroke="#740075" stroke-width="1.51"/><path d="M1897 972l-68 123 154 45z" fill="#820178" stroke="#820178" stroke-width="1.51"/><path d="M1838 120l101 109 47-167z" fill="#b76a9a" stroke="#b76a9a" stroke-width="1.51"/><path d="M1967-114l-133 7 152 169z" fill="#b777a6" stroke="#b777a6" stroke-width="1.51"/><path d="M1834-107l4 227 148-58z" fill="#bb73a2" stroke="#bb73a2" stroke-width="1.51"/><path d="M1742 652l194 37 9-193z" fill="#b2318a" stroke="#b2318a" stroke-width="1.51"/><path d="M1815 892l88-2 33-201z" fill="#a01382" stroke="#a01382" stroke-width="1.51"/><path d="M1783 339l150 41 6-151z" fill="#b85a96" stroke="#b85a96" stroke-width="1.51"/><path d="M1732 521l10 131 203-156z" fill="#bb398c" stroke="#bb398c" stroke-width="1.51"/><path d="M1829 1095l-72 179 199 4z" fill="#750075" stroke="#750075" stroke-width="1.51"/><path d="M1891-216l-57 109 133-7z" fill="#bb7dac" stroke="#bb7dac" stroke-width="1.51"/><path d="M1742 652l73 240 121-203z" fill="#ae1d87" stroke="#ae1d87" stroke-width="1.51"/><path d="M1838 120l-52 81 153 28z" fill="#bc689a" stroke="#bc689a" stroke-width="1.51"/><path d="M1786 201l-3 138 156-110z" fill="#bd6199" stroke="#bd6199" stroke-width="1.51"/><path d="M1933 380l-150-41 162 157z" fill="#b74f92" stroke="#b74f92" stroke-width="1.51"/><path d="M1783 339l-51 182 213-25z" fill="#bd4991" stroke="#bd4991" stroke-width="1.51"/><path d="M1834-107l-157 97 161 130z" fill="#c478a5" stroke="#c478a5" stroke-width="1.51"/><path d="M1786 1007l43 88 68-123z" fill="#8d017a" stroke="#8d017a" stroke-width="1.51"/><path d="M1815 892l82 80 6-82z" fill="#97067c" stroke="#97067c" stroke-width="1.51"/><path d="M1742 652l-72 49 145 191z" fill="#b61e88" stroke="#b61e88" stroke-width="1.51"/><path d="M1837-254l-3 147 57-109z" fill="#bf81af" stroke="#bf81af" stroke-width="1.51"/><path d="M1815 892l-29 115 111-35z" fill="#96017b" stroke="#96017b" stroke-width="1.51"/><path d="M842-239l188 25 265-41z" fill="#fcaac5" stroke="#fcaac5" stroke-width="1.51"/><path d="M1670 701l-39 130 184 61z" fill="#b21785" stroke="#b21785" stroke-width="1.51"/><path d="M1612 1167l145 107 72-179z" fill="#830178" stroke="#830178" stroke-width="1.51"/><path d="M1645-210l189 103 3-147z" fill="#c683b0" stroke="#c683b0" stroke-width="1.51"/><path d="M1631 129l155 72 52-81z" fill="#c66e9d" stroke="#c66e9d" stroke-width="1.51"/><path d="M1677-10l-46 139 207-9z" fill="#c974a1" stroke="#c974a1" stroke-width="1.51"/><path d="M1645-210l32 200 157-97z" fill="#cb80ac" stroke="#cb80ac" stroke-width="1.51"/><path d="M1786 1007l-174 160 217-72z" fill="#8d0179" stroke="#8d0179" stroke-width="1.51"/><path d="M1655 486l77 35 51-182z" fill="#c54c92" stroke="#c54c92" stroke-width="1.51"/><path d="M1644 368l11 118 128-147z" fill="#c85495" stroke="#c85495" stroke-width="1.51"/><path d="M1647 228l136 111 3-138z" fill="#c6649a" stroke="#c6649a" stroke-width="1.51"/><path d="M1594 963l192 44 29-115z" fill="#9f017c" stroke="#9f017c" stroke-width="1.51"/><path d="M1631 831l-37 132 221-71z" fill="#aa0b80" stroke="#aa0b80" stroke-width="1.51"/><path d="M1647 228l-3 140 139-29z" fill="#c95f99" stroke="#c95f99" stroke-width="1.51"/><path d="M1594 963l18 204 174-160z" fill="#9a007c" stroke="#9a007c" stroke-width="1.51"/><path d="M1631 129l16 99 139-27z" fill="#cb6c9c" stroke="#cb6c9c" stroke-width="1.51"/><path d="M750 1282l-156 25 493 9z" fill="#a8468d" stroke="#a8468d" stroke-width="1.51"/><path d="M1732 521l-77-35 87 166z" fill="#c43b8e" stroke="#c43b8e" stroke-width="1.51"/><path d="M1655 486l15 215 72-49z" fill="#c3348d" stroke="#c3348d" stroke-width="1.51"/><path d="M1612 1167l-18 176 163-69z" fill="#800077" stroke="#800077" stroke-width="1.51"/><path d="M1507 1261l87 82 18-176z" fill="#880078" stroke="#880078" stroke-width="1.51"/><path d="M1487 732l144 99 39-130z" fill="#c11e89" stroke="#c11e89" stroke-width="1.51"/><path d="M1655 486l-213 93 228 122z" fill="#cd398e" stroke="#cd398e" stroke-width="1.51"/><path d="M1442 579l45 153 183-31z" fill="#cc2f8d" stroke="#cc2f8d" stroke-width="1.51"/><path d="M1645-210L1466-59l211 49z" fill="#d684ad" stroke="#d684ad" stroke-width="1.51"/><path d="M1466-59l165 188 46-139z" fill="#d67ca6" stroke="#d67ca6" stroke-width="1.51"/><path d="M1466-59l-1 189 166-1z" fill="#db7ca4" stroke="#db7ca4" stroke-width="1.51"/><path d="M1455 252l189 116 3-140z" fill="#d4659a" stroke="#d4659a" stroke-width="1.51"/><path d="M1594 963l-135 175 153 29z" fill="#9e017c" stroke="#9e017c" stroke-width="1.51"/><path d="M1538 946l56 17 37-132z" fill="#b00980" stroke="#b00980" stroke-width="1.51"/><path d="M1505-259l-39 200 179-151z" fill="#dc8ab3" stroke="#dc8ab3" stroke-width="1.51"/><path d="M1644 368l-212-32 223 150z" fill="#d35796" stroke="#d35796" stroke-width="1.51"/><path d="M1432 336l10 243 213-93z" fill="#d84f95" stroke="#d84f95" stroke-width="1.51"/><path d="M1487 732l-7 62 151 37z" fill="#c31e89" stroke="#c31e89" stroke-width="1.51"/><path d="M1455 252l-23 84 212 32z" fill="#d9659c" stroke="#d9659c" stroke-width="1.51"/><path d="M1631 129l-166 1 182 98z" fill="#d5729e" stroke="#d5729e" stroke-width="1.51"/><path d="M1465 130l-10 122 192-24z" fill="#da709e" stroke="#da709e" stroke-width="1.51"/><path d="M1538 946l-79 192 135-175z" fill="#a8057e" stroke="#a8057e" stroke-width="1.51"/><path d="M1480 794l58 152 93-115z" fill="#ba1384" stroke="#ba1384" stroke-width="1.51"/><path d="M1459 1138l48 123 105-94z" fill="#93047b" stroke="#93047b" stroke-width="1.51"/><path d="M1507 1261l-192 81 279 1z" fill="#890779" stroke="#890779" stroke-width="1.51"/><path d="M1030-214l136-1 129-40z" fill="#f7a2c3" stroke="#f7a2c3" stroke-width="1.51"/><path d="M1432 336l-118 64 128 179z" fill="#e0599c" stroke="#e0599c" stroke-width="1.51"/><path d="M1346-83l120 24 39-200z" fill="#e48db5" stroke="#e48db5" stroke-width="1.51"/><path d="M1303 1022l156 116 79-192z" fill="#ad1082" stroke="#ad1082" stroke-width="1.51"/><path d="M1480 794l-130-6 188 158z" fill="#c21d89" stroke="#c21d89" stroke-width="1.51"/><path d="M1350 788l-47 234 235-76z" fill="#be1987" stroke="#be1987" stroke-width="1.51"/><path d="M1314 400l47 178 81 1z" fill="#e14e99" stroke="#e14e99" stroke-width="1.51"/><path d="M1304 90l161 40 1-189z" fill="#e482aa" stroke="#e482aa" stroke-width="1.51"/><path d="M1442 579l-68 133 113 20z" fill="#d33491" stroke="#d33491" stroke-width="1.51"/><path d="M1295-255l51 172 159-176z" fill="#e993bb" stroke="#e993bb" stroke-width="1.51"/><path d="M1459 1138l-151 56 199 67z" fill="#9a0e7f" stroke="#9a0e7f" stroke-width="1.51"/><path d="M1308 1194l7 148 192-81z" fill="#96117f" stroke="#96117f" stroke-width="1.51"/><path d="M1378 256l77-4 10-122z" fill="#e074a2" stroke="#e074a2" stroke-width="1.51"/><path d="M1346-83l-42 173 162-149z" fill="#e889b1" stroke="#e889b1" stroke-width="1.51"/><path d="M1374 712l106 82 7-62z" fill="#ce288f" stroke="#ce288f" stroke-width="1.51"/><path d="M1374 712l-24 76 130 6z" fill="#d02990" stroke="#d02990" stroke-width="1.51"/><path d="M1361 578l13 134 68-133z" fill="#da3e95" stroke="#da3e95" stroke-width="1.51"/><path d="M1378 256l54 80 23-84z" fill="#e06da1" stroke="#e06da1" stroke-width="1.51"/><path d="M1304 90l74 166 87-126z" fill="#e57ba6" stroke="#e57ba6" stroke-width="1.51"/><path d="M1303 1022l5 172 151-56z" fill="#a91684" stroke="#a91684" stroke-width="1.51"/><path d="M1378 256l-64 144 118-64z" fill="#e46aa1" stroke="#e46aa1" stroke-width="1.51"/><path d="M1176 1299l-89 17 228 26z" fill="#9b2183" stroke="#9b2183" stroke-width="1.51"/><path d="M1187-52l117 142 42-173z" fill="#ef8eb4" stroke="#ef8eb4" stroke-width="1.51"/><path d="M1169 827l134 195 47-234z" fill="#cd268e" stroke="#cd268e" stroke-width="1.51"/><path d="M1314 400l-91 175 138 3z" fill="#e8529c" stroke="#e8529c" stroke-width="1.51"/><path d="M1361 578l-138-3 151 137z" fill="#e14298" stroke="#e14298" stroke-width="1.51"/><path d="M1304 90l-171 179 245-13z" fill="#ed7da9" stroke="#ed7da9" stroke-width="1.51"/><path d="M1133 269l107 106 138-119z" fill="#ed74a7" stroke="#ed74a7" stroke-width="1.51"/><path d="M1240 375l74 25 64-144z" fill="#e86ca4" stroke="#e86ca4" stroke-width="1.51"/><path d="M1161 108l-28 161 171-179z" fill="#f186ac" stroke="#f186ac" stroke-width="1.51"/><path d="M1303 1022l-82 143 87 29z" fill="#ae1c87" stroke="#ae1c87" stroke-width="1.51"/><path d="M1139 722l211 66 24-76z" fill="#db3496" stroke="#db3496" stroke-width="1.51"/><path d="M1223 575l-84 147 235-10z" fill="#e3419a" stroke="#e3419a" stroke-width="1.51"/><path d="M1295-255l-129 40 180 132z" fill="#f299be" stroke="#f299be" stroke-width="1.51"/><path d="M1166-215l21 163 159-31z" fill="#f297bc" stroke="#f297bc" stroke-width="1.51"/><path d="M1308 1194l-132 105 139 43z" fill="#9d1983" stroke="#9d1983" stroke-width="1.51"/><path d="M1139 722l30 105 181-39z" fill="#db3596" stroke="#db3596" stroke-width="1.51"/><path d="M1240 375l-17 200 91-175z" fill="#eb5fa1" stroke="#eb5fa1" stroke-width="1.51"/><path d="M1134 1023l87 142 82-143z" fill="#b92389" stroke="#b92389" stroke-width="1.51"/><path d="M1169 827l-35 196 169-1z" fill="#c7288b" stroke="#c7288b" stroke-width="1.51"/><path d="M1187-52l-26 160 143-18z" fill="#f28db1" stroke="#f28db1" stroke-width="1.51"/><path d="M1221 1165l-45 134 132-105z" fill="#a51e86" stroke="#a51e86" stroke-width="1.51"/><path d="M1075 445l148 130 17-200z" fill="#ef62a1" stroke="#ef62a1" stroke-width="1.51"/><path d="M1133 269l-58 176 165-70z" fill="#f174a7" stroke="#f174a7" stroke-width="1.51"/><path d="M1087 87l74 21 26-160z" fill="#f592b3" stroke="#f592b3" stroke-width="1.51"/><path d="M1072 1185l104 114 45-134z" fill="#a92787" stroke="#a92787" stroke-width="1.51"/><path d="M1134 1023l-62 162 149-20z" fill="#b42b8a" stroke="#b42b8a" stroke-width="1.51"/><path d="M1014 594l125 128 84-147z" fill="#eb519d" stroke="#eb519d" stroke-width="1.51"/><path d="M1075 445l-61 149 209-19z" fill="#f15d9f" stroke="#f15d9f" stroke-width="1.51"/><path d="M873 1249l-123 33 337 34z" fill="#aa3d8a" stroke="#aa3d8a" stroke-width="1.51"/><path d="M1050 286l25 159 58-176z" fill="#f47ca9" stroke="#f47ca9" stroke-width="1.51"/><path d="M1087 87l46 182 28-161z" fill="#f48bae" stroke="#f48bae" stroke-width="1.51"/><path d="M1030-214l-14 122 150-123z" fill="#faa6c1" stroke="#faa6c1" stroke-width="1.51"/><path d="M1040 1033l94-10 35-196z" fill="#cb318d" stroke="#cb318d" stroke-width="1.51"/><path d="M1002 788l38 245 129-206z" fill="#d63c92" stroke="#d63c92" stroke-width="1.51"/><path d="M1072 1185l15 131 89-17z" fill="#a52a86" stroke="#a52a86" stroke-width="1.51"/><path d="M1016-92l71 179 100-139z" fill="#f79ab9" stroke="#f79ab9" stroke-width="1.51"/><path d="M1166-215L1016-92l171 40z" fill="#f79fbe" stroke="#f79fbe" stroke-width="1.51"/><path d="M1040 1033l32 152 62-162z" fill="#bd328c" stroke="#bd328c" stroke-width="1.51"/><path d="M1087 87l-37 199 83-17z" fill="#f588ac" stroke="#f588ac" stroke-width="1.51"/><path d="M1014 594l-19 57 144 71z" fill="#ec549d" stroke="#ec549d" stroke-width="1.51"/><path d="M1139 722l-137 66 167 39z" fill="#e04198" stroke="#e04198" stroke-width="1.51"/><path d="M1002 788l-62 200 100 45z" fill="#d33e90" stroke="#d33e90" stroke-width="1.51"/><path d="M995 651l7 137 137-66z" fill="#e84c9b" stroke="#e84c9b" stroke-width="1.51"/><path d="M877 122l-6 103 179 61z" fill="#fa94af" stroke="#fa94af" stroke-width="1.51"/><path d="M1040 1033l-166 119 198 33z" fill="#bb398c" stroke="#bb398c" stroke-width="1.51"/><path d="M928 520l86 74 61-149z" fill="#f568a2" stroke="#f568a2" stroke-width="1.51"/><path d="M1050 286L932 390l143 55z" fill="#f67ba8" stroke="#f67ba8" stroke-width="1.51"/><path d="M1072 1185l-199 64 214 67z" fill="#ab3388" stroke="#ab3388" stroke-width="1.51"/><path d="M877 122l173 164 37-199z" fill="#f992af" stroke="#f992af" stroke-width="1.51"/><path d="M1016-92L877 122l210-35z" fill="#fb9db6" stroke="#fb9db6" stroke-width="1.51"/><path d="M932 390l-4 130 147-75z" fill="#f773a5" stroke="#f773a5" stroke-width="1.51"/><path d="M908 803l32 185 62-200z" fill="#dd4996" stroke="#dd4996" stroke-width="1.51"/><path d="M874 1152l-1 97 199-64z" fill="#b43c8c" stroke="#b43c8c" stroke-width="1.51"/><path d="M855-86l22 208 139-214z" fill="#fda7bc" stroke="#fda7bc" stroke-width="1.51"/><path d="M940 988l-66 164 166-119z" fill="#c53e8e" stroke="#c53e8e" stroke-width="1.51"/><path d="M871 225l61 165 118-104z" fill="#f989ac" stroke="#f989ac" stroke-width="1.51"/><path d="M995 651l-57-3 64 140z" fill="#ec559d" stroke="#ec559d" stroke-width="1.51"/><path d="M855-86l161-6 14-122z" fill="#feaac1" stroke="#feaac1" stroke-width="1.51"/><path d="M842-239l13 153 175-128z" fill="#feb1c5" stroke="#feb1c5" stroke-width="1.51"/><path d="M938 648l-30 155 94-15z" fill="#ea519d" stroke="#ea519d" stroke-width="1.51"/><path d="M938 648l57 3 19-57z" fill="#f15c9f" stroke="#f15c9f" stroke-width="1.51"/><path d="M928 520l10 128 76-54z" fill="#f463a0" stroke="#f463a0" stroke-width="1.51"/><path d="M712 383l3 145 213-8z" fill="#f982aa" stroke="#f982aa" stroke-width="1.51"/><path d="M871 225l-114 61 175 104z" fill="#fa92af" stroke="#fa92af" stroke-width="1.51"/><path d="M712 383l216 137 4-130z" fill="#f981aa" stroke="#f981aa" stroke-width="1.51"/><path d="M721 681l187 122 30-155z" fill="#ee60a1" stroke="#ee60a1" stroke-width="1.51"/><path d="M928 520l-213 8 223 120z" fill="#f66fa4" stroke="#f66fa4" stroke-width="1.51"/><path d="M715 528l6 153 217-33z" fill="#f370a5" stroke="#f370a5" stroke-width="1.51"/><path d="M749 1041l125 111 66-164z" fill="#c64991" stroke="#c64991" stroke-width="1.51"/><path d="M908 803l-165 27 197 158z" fill="#dc5197" stroke="#dc5197" stroke-width="1.51"/><path d="M743 830l6 211 191-53z" fill="#d45194" stroke="#d45194" stroke-width="1.51"/><path d="M90-249l321 53 204-62z" fill="#fedad7" stroke="#fedad7" stroke-width="1.51"/><path d="M757 286l-45 97 220 7z" fill="#fa91af" stroke="#fa91af" stroke-width="1.51"/><path d="M855-86L723 96l154 26z" fill="#fcabbb" stroke="#fcabbb" stroke-width="1.51"/><path d="M692-24l31 120L855-86z" fill="#fdb3c0" stroke="#fdb3c0" stroke-width="1.51"/><path d="M721 681l22 149 165-27z" fill="#e861a0" stroke="#e861a0" stroke-width="1.51"/><path d="M842-239l-64-3 77 156z" fill="#feb8c9" stroke="#feb8c9" stroke-width="1.51"/><path d="M723 96l34 190 114-61z" fill="#fba1b4" stroke="#fba1b4" stroke-width="1.51"/><path d="M789 1188l84 61 1-97z" fill="#b4468f" stroke="#b4468f" stroke-width="1.51"/><path d="M749 1041l40 147 85-36z" fill="#bd4c92" stroke="#bd4c92" stroke-width="1.51"/><path d="M723 96l148 129 6-103z" fill="#fba2b4" stroke="#fba2b4" stroke-width="1.51"/><path d="M789 1188l-39 94 123-33z" fill="#af498f" stroke="#af498f" stroke-width="1.51"/><path d="M778-242L692-24l163-62z" fill="#fdb8c7" stroke="#fdb8c7" stroke-width="1.51"/><path d="M743 830L601 979l148 62z" fill="#d55d98" stroke="#d55d98" stroke-width="1.51"/><path d="M615-258l77 234 86-218z" fill="#fec3cd" stroke="#fec3cd" stroke-width="1.51"/><path d="M568 1108l182 174 39-94z" fill="#b65494" stroke="#b65494" stroke-width="1.51"/><path d="M749 1041l-181 67 221 80z" fill="#c05796" stroke="#c05796" stroke-width="1.51"/><path d="M568 1108l26 199 156-25z" fill="#b15894" stroke="#b15894" stroke-width="1.51"/><path d="M723 96L537 283l220 3z" fill="#fba9b8" stroke="#fba9b8" stroke-width="1.51"/><path d="M615-258l-80 146 157 88z" fill="#fdc6cd" stroke="#fdc6cd" stroke-width="1.51"/><path d="M715 528l-118 45 124 108z" fill="#f67ea9" stroke="#f67ea9" stroke-width="1.51"/><path d="M597 573l10 85 114 23z" fill="#f37ca9" stroke="#f37ca9" stroke-width="1.51"/><path d="M540 85l-3 198L723 96z" fill="#fcb4bb" stroke="#fcb4bb" stroke-width="1.51"/><path d="M721 681L542 796l201 34z" fill="#ea6da4" stroke="#ea6da4" stroke-width="1.51"/><path d="M537 283l175 100 45-97z" fill="#faa0b5" stroke="#faa0b5" stroke-width="1.51"/><path d="M607 658l-65 138 179-115z" fill="#ef76a8" stroke="#ef76a8" stroke-width="1.51"/><path d="M601 979l-33 129 181-67z" fill="#c95f99" stroke="#c95f99" stroke-width="1.51"/><path d="M542 796l59 183 142-149z" fill="#df699f" stroke="#df699f" stroke-width="1.51"/><path d="M712 383l-145 49 148 96z" fill="#fa90af" stroke="#fa90af" stroke-width="1.51"/><path d="M692-24L540 85l183 11z" fill="#fcb8bf" stroke="#fcb8bf" stroke-width="1.51"/><path d="M567 432l30 141 118-45z" fill="#f98bad" stroke="#f98bad" stroke-width="1.51"/><path d="M537 283l30 149 145-49z" fill="#fb9fb4" stroke="#fb9fb4" stroke-width="1.51"/><path d="M420 1238l-163 39 337 30z" fill="#ae6497" stroke="#ae6497" stroke-width="1.51"/><path d="M535-112l5 197L692-24z" fill="#fdc0c6" stroke="#fdc0c6" stroke-width="1.51"/><path d="M90-249l160 67 161-14z" fill="#fedfdb" stroke="#fedfdb" stroke-width="1.51"/><path d="M438 202l99 81 3-198z" fill="#fcb7bc" stroke="#fcb7bc" stroke-width="1.51"/><path d="M537 283l-52 64 82 85z" fill="#fba5b7" stroke="#fba5b7" stroke-width="1.51"/><path d="M568 1108l-148 130 174 69z" fill="#b36097" stroke="#b36097" stroke-width="1.51"/><path d="M542 796l-73 83 132 100z" fill="#dd6ea0" stroke="#dd6ea0" stroke-width="1.51"/><path d="M411-196l124 84 80-146z" fill="#fecfd1" stroke="#fecfd1" stroke-width="1.51"/><path d="M535-112L409-57 540 85z" fill="#fcc7c8" stroke="#fcc7c8" stroke-width="1.51"/><path d="M414 986l14 105 140 17z" fill="#c86a9b" stroke="#c86a9b" stroke-width="1.51"/><path d="M567 432L419 540l178 33z" fill="#fa91ae" stroke="#fa91ae" stroke-width="1.51"/><path d="M414 986l154 122 33-129z" fill="#cc679b" stroke="#cc679b" stroke-width="1.51"/><path d="M388 740l154 56 65-138z" fill="#ef7ca9" stroke="#ef7ca9" stroke-width="1.51"/><path d="M597 573l-178-33 188 118z" fill="#f788ac" stroke="#f788ac" stroke-width="1.51"/><path d="M419 540l-31 200 219-82z" fill="#f587ac" stroke="#f587ac" stroke-width="1.51"/><path d="M469 879l-55 107 187-7z" fill="#d76c9d" stroke="#d76c9d" stroke-width="1.51"/><path d="M470 93l-32 109L540 85z" fill="#fcbebe" stroke="#fcbebe" stroke-width="1.51"/><path d="M409-57l61 150 70-8z" fill="#fdc4c4" stroke="#fdc4c4" stroke-width="1.51"/><path d="M102 1254l-115 17 270 6z" fill="#b074a4" stroke="#b074a4" stroke-width="1.51"/><path d="M485 347l-66 193 148-108z" fill="#fa9db3" stroke="#fa9db3" stroke-width="1.51"/><path d="M428 1091l-8 147 148-130z" fill="#bd669a" stroke="#bd669a" stroke-width="1.51"/><path d="M388 740l81 139 73-83z" fill="#e779a6" stroke="#e779a6" stroke-width="1.51"/><path d="M438 202l47 145 52-64z" fill="#fbb0ba" stroke="#fbb0ba" stroke-width="1.51"/><path d="M411-196l-2 139 126-55z" fill="#fed0cf" stroke="#fed0cf" stroke-width="1.51"/><path d="M307 681l81 59 31-200z" fill="#f58eae" stroke="#f58eae" stroke-width="1.51"/><path d="M261 441l158 99 66-193z" fill="#fba3b4" stroke="#fba3b4" stroke-width="1.51"/><path d="M438 202l-108-3 155 148z" fill="#fcb7bc" stroke="#fcb7bc" stroke-width="1.51"/><path d="M330 199l-69 242 224-94z" fill="#fbb3bb" stroke="#fbb3bb" stroke-width="1.51"/><path d="M297 872l117 114 55-107z" fill="#dc76a1" stroke="#dc76a1" stroke-width="1.51"/><path d="M388 740l-91 132 172 7z" fill="#e57da6" stroke="#e57da6" stroke-width="1.51"/><path d="M409-57L260 124l210-31z" fill="#fdc9c4" stroke="#fdc9c4" stroke-width="1.51"/><path d="M260 124l70 75L470 93z" fill="#fcc5c0" stroke="#fcc5c0" stroke-width="1.51"/><path d="M330 199l108 3 32-109z" fill="#fcbebe" stroke="#fcbebe" stroke-width="1.51"/><path d="M234-45l26 169L409-57z" fill="#fdd0cb" stroke="#fdd0cb" stroke-width="1.51"/><path d="M297 872l4 105 113 9z" fill="#d877a0" stroke="#d877a0" stroke-width="1.51"/><path d="M291 561l16 120 112-141z" fill="#f895b0" stroke="#f895b0" stroke-width="1.51"/><path d="M414 986l-113-9 127 114z" fill="#cf719e" stroke="#cf719e" stroke-width="1.51"/><path d="M293 1126l127 112 8-147z" fill="#bd6c9b" stroke="#bd6c9b" stroke-width="1.51"/><path d="M250-182L409-57l2-139z" fill="#fdd6d2" stroke="#fdd6d2" stroke-width="1.51"/><path d="M261 441l30 120 128-21z" fill="#fc9eb3" stroke="#fc9eb3" stroke-width="1.51"/><path d="M301 977l-8 149 135-35z" fill="#c9729e" stroke="#c9729e" stroke-width="1.51"/><path d="M250-182L234-45l175-12z" fill="#fdd6d2" stroke="#fdd6d2" stroke-width="1.51"/><path d="M293 1126l-36 151 163-39z" fill="#b56c9c" stroke="#b56c9c" stroke-width="1.51"/><path d="M160 342l101 99 69-242z" fill="#fcb8c0" stroke="#fcb8c0" stroke-width="1.51"/><path d="M-113-217l67-1 136-31z" fill="#ffebe8" stroke="#ffebe8" stroke-width="1.51"/><path d="M307 681l-10 191 91-132z" fill="#ed85ac" stroke="#ed85ac" stroke-width="1.51"/><path d="M234-45L179 94l81 30z" fill="#fdd0cb" stroke="#fdd0cb" stroke-width="1.51"/><path d="M125 889l172-17 10-191z" fill="#e885ad" stroke="#e885ad" stroke-width="1.51"/><path d="M98 667l27 222 182-208z" fill="#f08eb4" stroke="#f08eb4" stroke-width="1.51"/><path d="M260 124L142 229l188-30z" fill="#fdc5c4" stroke="#fdc5c4" stroke-width="1.51"/><path d="M142 229l18 113 170-143z" fill="#fcc0c3" stroke="#fcc0c3" stroke-width="1.51"/><path d="M98 1142l159 135 36-151z" fill="#ba73a2" stroke="#ba73a2" stroke-width="1.51"/><path d="M166 936l-68 206 195-16z" fill="#c979a5" stroke="#c979a5" stroke-width="1.51"/><path d="M297 872l-131 64 135 41z" fill="#db7ca5" stroke="#db7ca5" stroke-width="1.51"/><path d="M166 936l127 190 8-149z" fill="#d078a3" stroke="#d078a3" stroke-width="1.51"/><path d="M291 561l-130 9 146 111z" fill="#f898b4" stroke="#f898b4" stroke-width="1.51"/><path d="M161 570l-63 97 209 14z" fill="#f797b6" stroke="#f797b6" stroke-width="1.51"/><path d="M261 441L161 570l130-9z" fill="#fca1b7" stroke="#fca1b7" stroke-width="1.51"/><path d="M125 889l41 47 131-64z" fill="#df81aa" stroke="#df81aa" stroke-width="1.51"/><path d="M98 1142l4 112 155 23z" fill="#b574a3" stroke="#b574a3" stroke-width="1.51"/><path d="M121-45h113l16-137z" fill="#fddad6" stroke="#fddad6" stroke-width="1.51"/><path d="M179 94l-37 135 118-105z" fill="#fdcbc7" stroke="#fdcbc7" stroke-width="1.51"/><path d="M160 342l1 228 100-129z" fill="#fdacbd" stroke="#fdacbd" stroke-width="1.51"/><path d="M121-45l58 139 55-139z" fill="#fdd6d2" stroke="#fdd6d2" stroke-width="1.51"/><path d="M90-249l31 204 129-137z" fill="#fee0dc" stroke="#fee0dc" stroke-width="1.51"/><path d="M160 342L33 371l128 199z" fill="#fdb2c1" stroke="#fdb2c1" stroke-width="1.51"/><path d="M98 667L27 876l98 13z" fill="#e98db5" stroke="#e98db5" stroke-width="1.51"/><path d="M33 371l-66 153 194 46z" fill="#fdadc1" stroke="#fdadc1" stroke-width="1.51"/><path d="M10 972l88 170 68-206z" fill="#d07faa" stroke="#d07faa" stroke-width="1.51"/><path d="M121-45L-7 37l186 57z" fill="#fdd8d3" stroke="#fdd8d3" stroke-width="1.51"/><path d="M13 191l129 38 37-135z" fill="#fdcccb" stroke="#fdcccb" stroke-width="1.51"/><path d="M-7 37l20 154 166-97z" fill="#fdd4d0" stroke="#fdd4d0" stroke-width="1.51"/><path d="M90-249L-3-48l124 3z" fill="#fde2de" stroke="#fde2de" stroke-width="1.51"/><path d="M142 229L33 371l127-29z" fill="#fcbfc7" stroke="#fcbfc7" stroke-width="1.51"/><path d="M125 889L10 972l156-36z" fill="#dc83ac" stroke="#dc83ac" stroke-width="1.51"/><path d="M-13 644l111 23 63-97z" fill="#f89ebc" stroke="#f89ebc" stroke-width="1.51"/><path d="M-33 524l20 120 174-74z" fill="#fba4bf" stroke="#fba4bf" stroke-width="1.51"/><path d="M-46-218L-3-48l93-201z" fill="#fee7e3" stroke="#fee7e3" stroke-width="1.51"/><path d="M13 191l20 180 109-142z" fill="#fdc6cb" stroke="#fdc6cb" stroke-width="1.51"/><path d="M-13 644l40 232 71-209z" fill="#f296bb" stroke="#f296bb" stroke-width="1.51"/><path d="M-3-48l-4 85 128-82z" fill="#fdddd9" stroke="#fdddd9" stroke-width="1.51"/><path d="M27 876l-17 96 115-83z" fill="#de87af" stroke="#de87af" stroke-width="1.51"/><path d="M10 972l-78 181 166-11z" fill="#c780ac" stroke="#c780ac" stroke-width="1.51"/><path d="M-68 1153l55 118 111-129z" fill="#ba7cab" stroke="#ba7cab" stroke-width="1.51"/><path d="M98 1142l-111 129 115-17z" fill="#b578a8" stroke="#b578a8" stroke-width="1.51"/><path d="M-7 37l-132 98 152 56z" fill="#fdd7d3" stroke="#fdd7d3" stroke-width="1.51"/><path d="M-13 644l-164 70L27 876z" fill="#f298bd" stroke="#f298bd" stroke-width="1.51"/><path d="M-177 714l-26 86 230 76z" fill="#ed97bd" stroke="#ed97bd" stroke-width="1.51"/><path d="M-220 414l187 110 66-153z" fill="#feb9c9" stroke="#feb9c9" stroke-width="1.51"/><path d="M13 191l-229 63L33 371z" fill="#fecacf" stroke="#fecacf" stroke-width="1.51"/><path d="M-216 254l-4 160 253-43z" fill="#fec6cf" stroke="#fec6cf" stroke-width="1.51"/><path d="M-203 800l-14 191 227-19z" fill="#de8eb6" stroke="#de8eb6" stroke-width="1.51"/><path d="M-139 135l-77 119 229-63z" fill="#fed3d3" stroke="#fed3d3" stroke-width="1.51"/><path d="M-203 800L10 972l17-96z" fill="#e38db5" stroke="#e38db5" stroke-width="1.51"/><path d="M-46-218l-67 1L-3-48z" fill="#fee9e6" stroke="#fee9e6" stroke-width="1.51"/><path d="M-113-217l-74 177 184-8z" fill="#fee7e4" stroke="#fee7e4" stroke-width="1.51"/><path d="M-217 991l149 162 78-181z" fill="#ce86b1" stroke="#ce86b1" stroke-width="1.51"/><path d="M-220 414l51 129 136-19z" fill="#ffb4c8" stroke="#ffb4c8" stroke-width="1.51"/><path d="M-33 524l-136 19 156 101z" fill="#fca9c3" stroke="#fca9c3" stroke-width="1.51"/><path d="M-187-40L-7 37l4-85z" fill="#fee1dd" stroke="#fee1dd" stroke-width="1.51"/><path d="M-187-40l48 175L-7 37z" fill="#fededa" stroke="#fededa" stroke-width="1.51"/><path d="M-169 543l-8 171 164-70z" fill="#f9a5c3" stroke="#f9a5c3" stroke-width="1.51"/><path d="M-68 1153l-128 82 183 36z" fill="#b77ead" stroke="#b77ead" stroke-width="1.51"/><path d="M-217 991l12 183 137-21z" fill="#c686b2" stroke="#c686b2" stroke-width="1.51"/><path d="M-205 1174l9 61 128-82z" fill="#bb82b0" stroke="#bb82b0" stroke-width="1.51"/><path d="M-187-40l-29 294 77-119z" fill="#fedcd8" stroke="#fedcd8" stroke-width="1.51"/><path d="M-220 414l17 386 26-86z" fill="#faa7c5" stroke="#faa7c5" stroke-width="1.51"/><path d="M-220 414l43 300 8-171z" fill="#ffafc7" stroke="#ffafc7" stroke-width="1.51"/><path d="M-220 414l3 577 14-191z" fill="#f49fc4" stroke="#f49fc4" stroke-width="1.51"/></svg>