<svg version="1.1" id="Layer_1" xmlns="http://www.w3.org/2000/svg" xmlns:xlink="http://www.w3.org/1999/xlink" x="0" y="0" viewBox="0 0 50 50" xml:space="preserve"><style type="text/css">.st0,.st1{display:none;fill:#fff}.st1{fill:#071e3d}.st2{opacity:.1;clip-path:url(#SVGID_2_)}.st3{fill:#fff}.st4{display:none;opacity:.5}.st5,.st6,.st7{display:inline;opacity:0;fill:#fff}.st6,.st7{opacity:3.8461e-2;fill:#f7f7f7}.st7{opacity:7.6923e-2;fill:#efefef}.st10,.st8,.st9{display:inline;opacity:.1154;fill:#e7e7e7}.st10,.st9{opacity:.1538;fill:#e0e0e0}.st10{opacity:.1923;fill:#d8d8d8}.st11,.st12,.st13{display:inline;opacity:.2308;fill:#d0d0d0}.st12,.st13{opacity:.2692;fill:#c8c8c8}.st13{opacity:.3077;fill:silver}.st14,.st15,.st16{display:inline;opacity:.3462;fill:#b8b8b8}.st15,.st16{opacity:.3846;fill:#b1b1b1}.st16{opacity:.4231;fill:#a9a9a9}.st17,.st18,.st19{display:inline;opacity:.4615;fill:#a1a1a1}.st18,.st19{opacity:.5;fill:#999}.st19{opacity:.5385;fill:#919191}.st20,.st21,.st22{display:inline;opacity:.5769;fill:#898989}.st21,.st22{opacity:.6154;fill:#818181}.st22{opacity:.6538;fill:#7a7a7a}.st23,.st24,.st25{display:inline;opacity:.6923;fill:#727272}.st24,.st25{opacity:.7308;fill:#6a6a6a}.st25{opacity:.7692;fill:#626262}.st26,.st27,.st28{display:inline;opacity:.8077;fill:#5a5a5a}.st27,.st28{opacity:.8462;fill:#525252}.st28{opacity:.8846;fill:#4b4b4b}.st29{opacity:.9231;fill:#434343}.st29,.st30,.st31{display:inline}.st30{opacity:.9615;fill:#3b3b3b}.st31{fill:#333}.st32{display:none}.st33{fill:#f92d62}.st33,.st34{display:inline}.st35,.st36{fill:#f92d62}.st36{display:none}</style><path class="st0" d="M0 0h50v50H0z"/><path class="st1" d="M0 0h50v50H0z"/><defs><path id="SVGID_1_" d="M0 0h50v50H0z"/></defs><clipPath id="SVGID_2_"><use xlink:href="#SVGID_1_" overflow="visible"/></clipPath><g class="st2"><path class="st3" d="M-1.2 1.4L.2 2.8c.1.2.3.2.4 0 .1-.1 0-.4-.1-.5L-1.1.7v.7zM-1.2 13.9l4.9 4.9c.1.1.3.1.3 0 .1-.1 0-.3-.1-.4l-5.1-5.1v.6zM-1.2 15.1L5.7 22c.1 0 .2.1.3 0 .1-.1 0-.3-.1-.4l-7.1-7.1v.6zM-1.2 16.4l4 4c.1.1.3.1.3 0 .1-.1 0-.3-.1-.4l-4.2-4.2v.6zM-1.2 18l2.7 2.7c.1.1.3.1.3 0 .1-.1 0-.3-.1-.4l-2.9-2.9v.6zM-1.2 19.1l4.6 4.6c.1.1.3.1.3 0 .1-.1 0-.3-.1-.4l-4.9-4.9v.7zM-1.2 20.4l1.9 1.9c.1.1.2.1.3 0 0-.1 0-.3-.1-.4l-2.1-2.1v.6z"/><g><path class="st3" d="M-1.2 9.7l1 1c.1.1.3.1.3 0 .1-.1 0-.3-.1-.5L-1.2 9v.7zM-1.2 10.9L1.9 14c.1.1.3.1.3 0 .1-.1 0-.3-.1-.4l-3.3-3.3v.6zM-1.2 12.4l.1.1c.1.1.3.1.3 0 .1-.1 0-.3-.1-.4l-.3-.3v.6z"/></g><g><path class="st3" d="M-1.2 26.5l2.6 2.6c.2.2.4.3.5.2.1-.1-.1-.3-.3-.5L-1.2 26v.5zM-1.2 29.9L-.1 31c.1.1.2.1.3 0 0-.1 0-.2-.1-.3l-1.3-1.3v.5zM1.6 28.1c-.1.1 0 .2.1.3L8 34.8c.1.1.2.1.3.1.1-.1 0-.2-.1-.3l-6.4-6.4c-.1-.2-.2-.2-.2-.1zM3.3 30.8c-.1.1 0 .2.1.3l6.3 6.3c.1.1.2.1.3.1.1-.1 0-.2-.1-.3l-6.3-6.3c-.1-.2-.2-.2-.3-.1zM.8 29.3c0 .1 0 .2.1.3l6.2 6.2c.1.2.2.2.3.1.1-.1 0-.2-.1-.3l-6.2-6.2c-.1-.1-.3-.2-.3-.1zM-.3 29.5c0 .1 0 .2.1.3L5.9 36c.1.1.2.1.3.1.1-.1 0-.2-.1-.3l-6.2-6.2c-.1-.1-.2-.1-.2-.1zM1.4 32.2c0 .1 0 .2.1.3l6.1 6.1c.1.1.2.1.3.1.1-.1 0-.2-.1-.3l-6.1-6.1c-.1-.2-.2-.2-.3-.1zM-1 30.7c0 .1 0 .2.1.3l6 6c.1.1.2.1.3.1.1-.1 0-.2-.1-.3l-6-6c-.2-.1-.3-.2-.3-.1z"/><g><path class="st3" d="M-1.2 22.2l5.9 5.9c.1.1.2.1.3 0 0-.1 0-.3-.1-.4l-6.1-6.1v.6zM-.1 24c0 .1 0 .3.1.4l6.5 6.5c.1.1.2.1.3 0 .1-.1 0-.2-.1-.3L.2 24c-.1-.1-.3-.1-.3 0zM-1.2 24.3l5 5c.1.1.2.1.3 0 .1-.1 0-.2-.1-.3l-5.2-5.2v.5z"/></g><g><path class="st3" d="M-1.2 23c.1-.1.1-.2 0-.3v.3z"/></g><g><path class="st3" d="M-1.2 34.6l3.7 3.7c.2.2.4.3.4.2 0-.1-.1-.3-.2-.4l-3.8-3.8v.3zM-1.2 35.4l7 7c.2.2.4.3.4.2.1-.1-.1-.3-.2-.4L-1.2 35v.4zM-1.2 36.3l2.9 2.9c.2.2.4.3.4.2 0-.1-.1-.3-.2-.4l-3.1-3.1v.4zM-1.2 37.4l3.9 3.9c.1.1.2.1.3.1 0-.1 0-.2-.1-.3L-1.2 37v.4zM-1.2 38.2l5.5 5.5c.1.1.2.1.3.1 0-.1 0-.2-.1-.3l-5.6-5.6-.1-.1v.4zM-1.2 39L2 42.2c.1.1.2.1.2.1 0-.1 0-.2-.1-.3l-3.3-3.3v.3zM5.9 41.5c-.1.1 0 .2.1.3l5.8 5.8c.1.1.2.1.3.1.1-.1 0-.2-.1-.3l-5.8-5.8c-.1-.1-.2-.2-.3-.1zM7.5 43.9c-.1.1 0 .2.1.3l5.7 5.7c.1.1.2.1.3.1.1 0 0-.2-.1-.3L7.8 44c-.1-.1-.2-.2-.3-.1zM5.1 42.4c0 .1 0 .2.1.3l5.7 5.7c.1.1.2.1.3.1.1 0 0-.2-.1-.3l-5.7-5.7c-.1-.1-.2-.2-.3-.1z"/><g><path class="st3" d="M4.1 42.4c0 .1 0 .2.1.3l5.6 5.6c.1.1.2.1.3.1.1 0 0-.2-.1-.3l-5.6-5.6c-.2-.1-.3-.1-.3-.1zM5.6 44.7c0 .1 0 .2.1.3l5.5 5.5c.1.1.2.1.3.1.1 0 0-.2-.1-.3l-5.6-5.6h-.2zM3.4 43.3c0 .1 0 .2.1.3L8.9 49c.1.1.2.1.3.1.1 0 0-.2-.1-.3l-5.5-5.5c-.1 0-.2-.1-.2 0z"/></g><g><path class="st3" d="M2.8 35.6c0 .1 0 .2.1.3l5.9 5.9c.2.2.3.2.4.2.1-.1 0-.2-.1-.3l-6-6c-.1-.1-.2-.1-.3-.1zM4.5 38.1c-.1.1 0 .2.1.3l5.9 5.9c.1.1.2.1.3.1.1-.1 0-.2-.1-.3l-5.9-5.9c-.1-.1-.2-.1-.3-.1zM2.1 36.7c0 .1 0 .2.1.3L8 42.8c.1.1.2.1.3.1.1-.1 0-.2-.1-.3l-5.9-5.9c0-.1-.2-.1-.2 0z"/></g><g><path class="st3" d="M-1.2 31.8l2.8 2.8c.1.1.2.1.3.1 0-.1 0-.2-.1-.3l-3-3v.4zM-1.2 32.7l4.5 4.5c.1.1.2.1.3.1 0-.1 0-.2-.1-.3l-4.7-4.7v.4zM-1.2 33.6l2.1 2.1c.1.1.2.1.3.1 0-.1 0-.2-.1-.3l-2.3-2.3v.4z"/></g></g><g><path class="st3" d="M-1.2 42.4l1 1c.2.2.3.3.4.2 0-.1-.1-.2-.2-.4l-1.1-1.1v.3zM-1.2 43.1l4.1 4.1c.2.2.3.3.4.2l-.2-.4-4.2-4.2v.3zM-1.2 43.8l.4.4c.2.2.3.3.4.2 0-.1-.1-.2-.2-.4l-.5-.5v.3zM-1.2 44.8l1.3 1.3c.1.1.2.1.2.1s0-.2-.1-.2l-1.4-1.4v.2zM-1.2 45.4l2.7 2.7c.1.1.2.1.2.1s0-.2-.1-.2l-2.9-2.9v.3zM-1.2 46.1l.7.7c.1.1.2.1.2.1s0-.2-.1-.2l-.8-.8v.2zM3 46.4s0 .2.1.3l4.7 4.7h.3l-4.9-4.9c-.1-.1-.2-.1-.2-.1zM4.4 48.5s0 .2.1.2l2.6 2.6h.3l-2.8-2.8h-.2zM2.3 47.1s0 .2.1.2l4 4h.3l-4.2-4.2h-.2z"/><g><path class="st3" d="M1.3 47.1s0 .2.1.2l4 4h.3l-4.2-4.2h-.2zM2.8 49.2s0 .2.1.2l2 2h.3L3 49.3c-.1-.1-.2-.2-.2-.1zM.7 47.8s0 .2.1.2l3.3 3.3h.3L1 47.9c-.1-.1-.2-.1-.3-.1z"/></g><g><path class="st3" d="M.1 41.2c0 .1 0 .2.1.3l5.4 5.4c.1.1.2.1.2 0s0-.2-.1-.3L.3 41.2c-.1 0-.2-.1-.2 0zM1.6 43.4c0 .1 0 .2.1.3L7.1 49c.1.1.2.1.3.1 0 0 0-.2-.1-.3l-5.4-5.4h-.3zM-.6 42c0 .1 0 .2.1.3l5.3 5.3c.1.1.2.1.2.1s0-.2-.1-.3l-5.3-5.3c0-.1-.1-.1-.2-.1z"/></g><g><path class="st3" d="M-1.2 40.1l.2.2c.1.1.2.1.2.1 0-.1 0-.2-.1-.3l-.3-.3v.3zM-1.2 40.8l1.7 1.7c.1.1.2.1.2.1 0-.1 0-.2-.1-.3l-1.9-1.9v.4z"/></g><g><path class="st3" d="M1.7 51.4l-2.9-2.9v.2l2.6 2.7zM1.2 51.4L-1.2 49v.3l2.1 2.1zM.5 51.4l-1.7-1.7v.2l1.5 1.5zM-1 50.8s0 .1.1.2l.4.4h.3l-.5-.5c-.2-.1-.3-.1-.3-.1zM-.8 51.4l-.4-.4v.3l.1.1zM-1.2 46.8l4.1 4.1c.1.1.2.1.3.1 0 0 0-.1-.1-.2l-4.3-4.3v.3zM-.7 47.7s0 .1.1.2l3.4 3.4h.3l-3.6-3.6h-.2zM2.4 51.4l-3.6-3.6v.2l3.3 3.4z"/></g></g></g><g><path class="st3" d="M29-1.4l3 3c.2.2.4.2.6 0 .1-.2.1-.5 0-.7l-2.4-2.4H29zM26.3-1.4l1.2 1.2c.1.2.4.2.5 0 .1-.2.1-.5-.1-.6l-.5-.5h-1.1z"/><g><path class="st3" d="M16.3-1.4l5.6 5.6c.3.3.6.4.7.2.1-.2 0-.5-.3-.8l-4.9-4.9h-1.1zM14.4-1.4l12.5 12.5c.3.3.6.4.7.2.1-.2 0-.5-.3-.8L15.4-1.4h-1zM12.1-1.4l8 8c.3.3.6.4.7.2.1-.2 0-.5-.3-.8l-7.4-7.4h-1zM12.4 1.3c-.1.2 0 .4.1.6l8.7 8.7c.1.1.4.1.5 0 .1-.1.1-.4-.1-.5l-8.8-8.8c-.1-.2-.3-.1-.4 0zM14.8 5.4c-.1.2-.1.4.1.5l8.6 8.6c.1.1.4.2.5 0 .1-.1.1-.4-.1-.5l-8.7-8.7c-.2 0-.4 0-.4.1zM11.1 3.8c-.1.2 0 .4.1.5l8.5 8.5c.1.1.3.1.4 0 .1-.1.1-.4-.1-.5l-8.5-8.5c-.2-.2-.3-.2-.4 0zM9.3-1.4l1 1c.1.1.3.1.4 0s0-.4-.1-.6l-.4-.4h-.9zM7.5-1.4l5.1 5.1c.1.1.3.1.4 0 .1-.2 0-.4-.1-.6L8.4-1.4h-.9zM5.5-1.4L9 2.1c.1.1.3.1.4 0 .1-.2 0-.4-.1-.6L6.4-1.4h-.9z"/><g><path class="st3" d="M27.5 9.2c-.1.2-.1.4.1.6l9.2 9.2c.2.2.4.2.5 0 .1-.1.1-.4 0-.5L28 9.2c-.2-.1-.4-.1-.5 0zM29.7 13.4c-.1.1-.1.4 0 .5l9.1 9.1c.2.2.4.2.5 0 .1-.1.1-.4 0-.5l-9.1-9.1c-.1-.1-.4-.1-.5 0zM25.6 11.6c-.1.2-.1.4.1.5l8.9 8.9c.2.2.4.2.5 0 .1-.1.1-.4 0-.5l-9-9c-.2-.1-.4-.1-.5.1z"/></g><g><path class="st3" d="M23.5 12.2c-.1.1-.1.4.1.5l8.7 8.7c.1.1.4.2.5 0 .1-.1.1-.4 0-.5L24 12.2c-.1-.1-.3-.1-.5 0zM25.7 16.2c-.1.1-.1.4.1.5l8.6 8.6c.1.1.4.2.5 0 .1-.1.1-.3 0-.5l-8.7-8.7c-.2 0-.4-.1-.5.1zM21.9 14.4c-.1.1-.1.4.1.5l8.5 8.5c.1.1.4.2.5 0 .1-.1.1-.3 0-.5l-8.6-8.6c-.2-.1-.4-.1-.5.1z"/></g><g><path class="st3" d="M23.5-1.4c.1 0 .1.1 0 0l9.7 9.7c.2.2.4.2.6 0 .1-.2.1-.4 0-.6l-9.1-9.1h-1.2zM25.9 2.6c-.1.2-.1.5.1.6l9.5 9.5c.2.2.4.2.6 0 .1-.2.1-.4 0-.6l-9.6-9.6c-.2-.1-.4-.1-.6.1zM21.7.9c-.1.2-.1.5.1.6l9.3 9.3c.2.2.4.2.5 0 .1-.2.1-.4 0-.6L22.2.8c-.2-.1-.4-.1-.5.1z"/></g><g><path class="st3" d="M21.3-1.4l2.6 2.6c.2.2.4.1.5 0 .1-.2.1-.5-.1-.6l-1.9-1.9h-1.1zM18.8-1.4l.9.9c.2.2.4.1.5 0 .1-.2.1-.5-.1-.6l-.2-.2h-1.1z"/></g></g><g><path class="st3" d="M0 .8c-.1.2.1.5.3.7l14.9 14.9c.3.3.5.4.6.2.1-.1 0-.4-.3-.7L.6 1C.3.7.1.6 0 .8zM4.6 6.9c-.1.1.1.4.3.7l14.8 14.8c.2.2.5.4.6.2.1-.1 0-.4-.3-.7L5.2 7.1c-.3-.3-.5-.4-.6-.2zM-.9 3c-.1.2 0 .5.3.7L14 18.3c.2.2.5.3.6.2.1-.1 0-.4-.3-.7L-.4 3.2C-.6 3-.9 2.9-.9 3zM7.3 13.5c-.1.1 0 .3.1.5l7.6 7.6c.1.1.3.1.4 0 .1-.1 0-.3-.1-.4l-7.7-7.7c-.1-.1-.2-.1-.3 0zM9.4 16.9c-.1.1 0 .3.1.4l7.5 7.5c.1.1.3.1.4 0 .1-.1.1-.3-.1-.4L9.8 17c-.2-.2-.3-.2-.4-.1zM6.2 15.3c-.1.1 0 .3.1.4l7.5 7.5c.1.1.3.1.4 0 .1-.1 0-.3-.1-.4l-7.5-7.5c-.1-.1-.3-.1-.4 0zM-1.2 5.3l6.6 6.6c.1.1.3.1.4 0 .1-.1 0-.3-.1-.5l-6.9-6.9v.8zM-.2 7.4c-.1.1 0 .3.1.5l7.5 7.6c.1.1.3.1.4 0 .1-.1 0-.3-.1-.5L.2 7.4c-.2-.2-.3-.2-.4 0zM-1.2 8.2l5.6 5.6c.1.1.3.1.3 0 .1-.1 0-.3-.1-.5l-5.8-5.8v.7zM-1.2 1.6L.3 3.1c.1.1.3.1.4 0 .1-.1 0-.4-.1-.5L-1.1.9v.7zM20.1 20.9c-.1.1-.1.3.1.5l8 8c.1.1.3.2.4.1.1-.1.1-.3 0-.4l-8-8c-.2-.3-.4-.3-.5-.2zM22.2 24.4c-.1.1-.1.3.1.4l7.9 7.9c.1.1.3.2.4.1.1-.1.1-.3 0-.4l-7.9-7.9c-.3-.2-.4-.2-.5-.1zM18.7 22.6c-.1.1-.1.3.1.4l7.8 7.8c.1.1.3.2.4.1.1-.1.1-.3 0-.4l-7.8-7.8c-.2-.2-.4-.2-.5-.1z"/><g><path class="st3" d="M17 23c-.1.1-.1.3.1.4l7.6 7.6c.1.1.3.2.4.1.1-.1.1-.3-.1-.4L17.3 23c0-.1-.2-.1-.3 0zM19 26.4c-.1.1-.1.3.1.4l7.6 7.6c.1.1.3.2.4.1.1-.1.1-.3 0-.4l-7.6-7.6c-.3-.2-.4-.2-.5-.1zM15.7 24.7c-.1.1 0 .3.1.4l7.5 7.5c.1.1.3.2.4.1.1-.1.1-.3-.1-.4l-7.5-7.5c-.1-.2-.3-.3-.4-.1z"/></g><g><path class="st3" d="M16.4 11.8c-.1.1-.1.4.1.5l8.3 8.3c.1.1.3.2.5 0 .1-.1.1-.3-.1-.5l-8.4-8.4c-.1-.1-.3-.1-.4.1zM18.6 15.5c-.1.1-.1.3.1.5l8.2 8.2c.1.1.3.2.5 0 .1-.1.1-.3 0-.5L19 15.6c-.1-.2-.3-.2-.4-.1zM15 13.8c-.1.1 0 .4.1.5l8.1 8.1c.1.1.3.2.4 0 .1-.1.1-.3-.1-.5l-8.2-8.2s-.2 0-.3.1z"/></g><g><path class="st3" d="M6.2 1.6c-.1.2 0 .4.1.6l8.3 8.3c.1.1.3.1.4 0 .1-.1.1-.4-.1-.5L6.6 1.6c-.1-.1-.3-.1-.4 0zM8.5 5.5c-.1.1 0 .4.1.5l8.2 8.2c.1.1.3.1.4 0 .1-.1.1-.4-.1-.5L8.9 5.5c-.1-.1-.3-.1-.4 0zM5.1 4c-.1.1 0 .4.1.5l8.1 8.1c.1.1.3.1.4 0 .1-.1 0-.4-.1-.5L5.5 4c-.2-.2-.3-.2-.4 0z"/></g><g><path class="st3" d="M2.8-1.4L4.3.1c.1.1.3.1.4 0 .1-.2 0-.4-.1-.5l-1-1h-.8zM1.2-1.4L6.5 4c.1.1.3.1.4 0 .1-.2 0-.4-.1-.5L2-1.4h-.8zM-.7-1.4l3.8 3.8c.1.1.3.1.4 0 .1-.2 0-.4-.1-.5L.1-1.4h-.8z"/></g><g><path class="st3" d="M5.5 20.4c-.1.1.1.4.3.6l13.3 13.3c.2.2.5.3.6.3.1-.1 0-.3-.3-.6L6.1 20.6c-.3-.2-.5-.3-.6-.2zM9.6 25.6c-.1.1.1.4.3.6L23 39.3c.2.2.5.3.6.3.1-.1 0-.3-.2-.5L10.1 25.8c-.2-.2-.4-.3-.5-.2zM4.6 21.9c-.1.1.1.4.3.6l13 13c.2.2.5.3.5.3.1-.1 0-.3-.3-.5l-13-13.2c-.2-.2-.5-.3-.5-.2zM11.9 31c-.1.1 0 .2.1.4l6.8 6.8c.1.1.3.1.4.1.1-.1.1-.2-.1-.3l-6.9-7c-.1-.1-.3-.1-.3 0zM13.7 33.9c-.1.1 0 .2.1.4l6.7 6.7c.1.1.3.1.4.1.1-.1.1-.2-.1-.3L14 33.9c-.1-.1-.2-.1-.3 0zM10.8 32.2c-.1.1 0 .2.1.4l6.7 6.7c.1.1.3.1.3.1.1-.1 0-.2-.1-.3l-6.7-6.7c-.1-.2-.2-.2-.3-.2zM3.2 22.3c-.1.1 0 .3.1.4l6.8 6.8c.1.1.3.1.3 0 .1-.1 0-.3-.1-.4l-6.9-6.9s-.1 0-.2.1zM5.1 25.3c-.1.1 0 .3.1.4l6.7 6.7c.1.1.3.1.3.1.1-.1 0-.2-.1-.4l-6.8-6.8c0-.1-.1-.1-.2 0zM2.4 23.8c-.1.1 0 .3.1.4l6.7 6.7c.1.1.3.1.3.1.1-.1 0-.2-.1-.4l-6.7-6.7c-.1-.2-.3-.2-.3-.1zM-1.2 14l5 5c.1.1.3.1.3 0 .1-.1 0-.3-.1-.4l-5.2-5.2v.6zM-1.2 15.2l7 7c.1.1.3.1.3 0 .1-.1 0-.3-.1-.4l-7-7-.1-.1v.5zM-1.2 16.5l4.1 4.1c.1.1.3.1.3 0 .1-.1 0-.3-.1-.4l-4.3-4.3v.6z"/><g><path class="st3" d="M23.4 38.2c-.1.1-.1.2.1.4l7.1 7.1c.1.1.3.2.4.1.1-.1.1-.2 0-.3l-7.1-7.1c-.2-.2-.4-.2-.5-.2zM25.2 41.2c-.1.1-.1.2 0 .3l7 7c.1.1.3.2.4.1.1-.1.1-.2 0-.3l-7.1-7.1c0-.1-.2-.1-.3 0zM22.1 39.4c-.1.1-.1.2.1.3l6.9 6.9c.1.1.3.2.4.1.1-.1.1-.2 0-.3l-7-7c-.2 0-.3-.1-.4 0z"/></g><g><path class="st3" d="M20.5 39.5c-.1.1-.1.2.1.3l6.8 6.8c.1.1.3.2.4.1.1-.1.1-.2 0-.3l-6.9-6.9c-.1-.1-.3-.1-.4 0zM22.3 42.3c-.1.1-.1.2.1.3l6.8 6.8c.1.1.3.2.4.1.1-.1.1-.2 0-.3l-6.8-6.8c-.3-.1-.5-.2-.5-.1zM19.3 40.6c-.1.1-.1.2.1.3l6.7 6.7c.1.1.3.2.4.1.1-.1.1-.2 0-.3l-6.7-6.7c-.3-.2-.4-.2-.5-.1z"/></g><g><path class="st3" d="M20.3 30.8c-.1.1-.1.3.1.4l7.4 7.4c.1.1.3.2.4.1.1-.1.1-.2 0-.4l-7.4-7.4c-.3-.1-.4-.2-.5-.1zM22.2 34c-.1.1-.1.3.1.4l7.3 7.3c.1.1.3.2.4.1.1-.1.1-.2 0-.4L22.5 34c-.1-.1-.3-.1-.3 0zM18.9 32.2c-.1.1-.1.3.1.4l7.2 7.2c.1.1.3.2.4.1.1-.1.1-.2 0-.4l-7.2-7.2c-.2-.2-.4-.2-.5-.1z"/></g><g><path class="st3" d="M11.3 21.9c-.1.1 0 .3.1.4l7.4 7.4c.1.1.3.1.4.1.1-.1.1-.3-.1-.4L11.7 22c-.2-.2-.4-.2-.4-.1zM13.2 25.1c-.1.1 0 .3.1.4l7.3 7.3c.1.1.3.2.4.1.1-.1.1-.3-.1-.4l-7.3-7.3c-.1-.2-.3-.2-.4-.1zM10.1 23.5c-.1.1 0 .3.1.4l7.2 7.2c.1.1.3.1.4.1.1-.1.1-.3-.1-.4l-7.2-7.2c-.1-.2-.3-.2-.4-.1z"/></g><g><path class="st3" d="M2 12.6c-.1.1 0 .3.1.4l7.4 7.4c.1.1.3.1.4 0 .1-.1 0-.3-.1-.4l-7.4-7.4c-.2-.1-.3-.1-.4 0zM4.1 16c-.1.1 0 .3.1.4l7.3 7.3c.1.1.3.1.4 0 .1-.1 0-.3-.1-.4L4.4 16c-.1-.2-.3-.2-.3 0zM1.1 14.4c-.1.1 0 .3.1.4L8.4 22c.1.1.3.1.3 0 .1-.1 0-.3-.1-.4l-7.2-7.2c-.1-.1-.2-.1-.3 0z"/></g></g></g></g><g><path class="st3" d="M9.7 36.2c-.1.1.1.3.3.5l11.9 11.9c.2.2.4.3.5.3.1-.1 0-.3-.2-.5l-12.1-12c-.2-.2-.4-.3-.4-.2zM13.3 40.7c-.1.1 0 .3.2.5l10.2 10.2h.5L13.7 41c-.2-.2-.4-.3-.4-.3zM8.7 37.3c-.1.1.1.3.2.5l11.6 11.6c.2.2.4.3.5.3.1-.1 0-.3-.2-.5L9.2 37.5c-.2-.2-.4-.3-.5-.2zM15.2 45.2c-.1.1 0 .2.1.3l5.9 5.9h.5l-6.1-6.1c-.2-.2-.3-.2-.4-.1zM16.8 47.6c-.1.1 0 .2.1.3l3.5 3.5h.4l-3.7-3.7c-.1-.1-.2-.1-.3-.1zM14.2 46c-.1.1 0 .2.1.3l5.1 5.1h.4l-5.3-5.3c-.1-.1-.3-.1-.3-.1zM7.5 37.4c-.1.1 0 .2.1.3l6.1 6.1c.1.1.2.1.3.1.1-.1 0-.2-.1-.3l-6.2-6.2c-.1 0-.2-.1-.2 0zM9.1 40c-.1.1 0 .2.1.3l6.1 6.1c.1.1.2.1.3.1.1-.1 0-.2-.1-.3L9.4 40c-.1-.1-.2-.1-.3 0zM6.6 38.4c-.1.1 0 .2.1.3l6 6c.1.1.2.1.3.1.1-.1 0-.2-.1-.3l-6-6c-.1-.1-.3-.1-.3-.1z"/><g><path class="st3" d="M1.6 28.2c-.1.1 0 .2.1.3L8 34.8c.2.2.3.3.4.2.1-.1 0-.2-.1-.3l-6.4-6.4c-.1-.1-.2-.1-.3-.1zM3.4 31c-.1.1 0 .2.1.3l6.3 6.3c.1.1.2.1.3.1.1-.1 0-.2-.1-.3L3.7 31c-.1-.1-.2-.1-.3 0zM.9 29.5c0 .1 0 .2.1.3L7.2 36c.1.1.2.1.3.1.1-.1 0-.2-.1-.3l-6.2-6.2c-.2-.2-.3-.2-.3-.1z"/></g><g><path class="st3" d="M22.9 46.1c-.1.1-.1.2.1.3l5 5h.5l-5.2-5.2c-.1-.2-.3-.2-.4-.1zM24.6 48.7c-.1.1-.1.2 0 .3l2.4 2.4h.5l-2.6-2.6c-.1-.1-.2-.2-.3-.1zM21.7 47c-.1.1-.1.2.1.3l4.1 4.1h.5L22 47.1c-.1-.1-.2-.2-.3-.1z"/></g><g><path class="st3" d="M14.9 38.1c-.1.1 0 .2.1.3l6.6 6.6c.1.1.3.1.3.1.1-.1.1-.2-.1-.3l-6.6-6.6c-.1-.2-.2-.2-.3-.1zM16.6 40.8c-.1.1 0 .2.1.3l6.5 6.5c.1.1.3.2.3.1.1-.1.1-.2 0-.3L17 40.9c-.2-.1-.3-.2-.4-.1zM13.8 39.1c-.1.1 0 .2.1.3l6.4 6.4c.1.1.3.1.3.1.1-.1.1-.2-.1-.3L14 39.1h-.2z"/></g><g><path class="st3" d="M6.7 29.8c-.1.1 0 .2.1.4l6.6 6.6c.1.1.3.1.3.1.1-.1 0-.2-.1-.3L7 29.9c-.1-.1-.3-.2-.3-.1zM8.5 32.6c-.1.1 0 .2.1.3l6.5 6.5c.1.1.3.1.3.1.1-.1 0-.2-.1-.3l-6.5-6.5c-.1-.1-.3-.1-.3-.1zM5.8 31.1c-.1.1 0 .2.1.3l6.4 6.4c.1.1.2.1.3.1.1-.1 0-.2-.1-.3L6 31.1c-.1-.1-.2-.1-.2 0z"/></g><g><path class="st3" d="M13.3 48.9c-.1.1 0 .2.2.4l2.1 2.1h.4l-2.3-2.3c-.1-.1-.3-.3-.4-.2zM12.4 49.6c-.1 0 0 .2.2.4l1.3 1.3h.4l-1.5-1.5-.4-.2zM11.2 49.6c-.1 0 0 .2.1.3l1.5 1.5h.4l-1.7-1.7c-.1-.1-.3-.1-.3-.1zM10.3 50.3c-.1 0 0 .2.1.3l.8.8h.4l-1-1c-.1-.1-.2-.1-.3-.1zM6 41.7c-.1.1 0 .2.1.3l5.8 5.8c.1.1.2.1.3.1.1-.1 0-.2-.1-.3l-5.8-5.8c-.1-.2-.2-.2-.3-.1zM7.6 44c-.1.1 0 .2.1.3l5.7 5.7c.1.1.2.1.3.1.1 0 0-.2-.1-.3l-5.7-5.7c-.1-.1-.3-.1-.3-.1zM5.2 42.6c0 .1 0 .2.1.3l5.7 5.7c.1.1.2.1.3.1.1-.1 0-.2-.1-.3l-5.7-5.7c-.1-.2-.2-.2-.3-.1z"/><g><path class="st3" d="M18.2 51c-.1 0 0 .2.1.3l.1.1h.4l-.3-.3c-.1-.1-.3-.2-.3-.1z"/></g><g><path class="st3" d="M10.7 43.5c-.1.1 0 .2.1.3l5.9 5.9c.1.1.2.1.3.1.1-.1 0-.2-.1-.3l-6-6h-.2zM12.3 45.9c-.1.1 0 .2.1.3l5.2 5.2h.4L12.6 46c-.1-.1-.3-.1-.3-.1zM9.8 44.4c-.1.1 0 .2.1.3l5.8 5.8c.1.1.2.1.3.1.1 0 0-.2-.1-.3L10 44.4s-.2-.1-.2 0z"/></g></g><g><path class="st3" d="M3 46.5s0 .2.1.3l4.6 4.6H8l-4.8-4.8c0-.1-.1-.1-.2-.1zM4.5 48.7s0 .2.1.2l2.5 2.5h.3l-2.6-2.6c-.1-.1-.2-.2-.3-.1zM2.4 47.3s0 .2.1.2l3.9 3.9h.3l-4-4c-.2-.1-.3-.2-.3-.1z"/><g><path class="st3" d="M7.2 48.4s0 .2.1.3l2.8 2.8h.4l-2.9-2.9c-.2-.2-.3-.3-.4-.2zM8.7 50.5c-.1 0 0 .2.1.2l.6.6h.4l-.8-.7c-.1-.1-.3-.1-.3-.1zM6.5 49.1s0 .2.1.2l2.1 2.1H9l-2.2-2.2c-.2-.1-.3-.2-.3-.1z"/></g></g></g><g><path class="st3" d="M51.2 7.8L42-1.4h-1.4L51.2 9.2zM51.2 10.5L44 3.3c-.3-.3-.8-.4-.9-.3-.2.2-.1.6.3 1l7.9 7.9v-1.4zM51.2 13.6l-14.9-15H35c.1.1.1.2.2.3l16 16v-1.3zM51.2 17.5L45.7 12c-.2-.2-.5-.2-.6 0-.2.2-.2.4 0 .6l6.2 6.2v-1.3zM51.2 19.9l-3.4-3.4c-.2-.2-.5-.2-.6 0-.2.2-.2.4 0 .6l4 4v-1.2zM51.2 22.7L43 14.5c-.2-.2-.4-.2-.6 0-.2.2-.2.4 0 .6l8.8 8.8v-1.2zM32.2-.9c-.1.2-.1.5 0 .7L42.4 9.9c.2.2.4.2.6 0 .2-.2.2-.5 0-.6L32.8-.9c-.2-.2-.4-.2-.6 0zM34.6 3.9c-.2.2-.1.5 0 .6l10 10c.2.2.4.2.6 0 .2-.2.2-.4 0-.6l-10-10.1c-.2-.1-.4-.1-.6.1zM30 2c-.1.2-.1.5 0 .6l9.8 9.8c.2.2.4.2.6 0 .2-.2.2-.4 0-.6L30.6 2c-.2-.2-.5-.2-.6 0z"/><g><path class="st3" d="M51.2-1.4h-.8l.8.8zM51.2.9c-.2-.2-.5-.1-.6.1-.2.2-.2.5 0 .7l.7.7V.9zM51.2 4.3l-5.4-5.4c-.2-.2-.5-.2-.7.1-.2.2-.2.5 0 .7l6.1 6.1V4.3z"/></g><g><path class="st3" d="M47.4-1.4l.3.3c.2.2.5.2.7-.1.1-.1.1-.1.1-.2h-1.1z"/></g><g><path class="st3" d="M51.2 32.5L40 21.3c-.3-.3-.6-.4-.8-.3-.1.1 0 .5.3.8l11.7 11.7v-1zM51.2 34.4L44.8 28c-.3-.3-.6-.4-.8-.3-.2.1 0 .5.2.7l7 7v-1zM51.2 36.7L37.8 23.3c-.3-.3-.7-.4-.8-.3-.1.1 0 .5.3.7l13.9 13.9v-.9zM51.2 39.6l-5-5c-.1-.1-.4-.2-.5-.1-.2.1-.2.3 0 .5l5.5 5.5v-.9zM51.2 41.4l-3.1-3.1c-.1-.1-.4-.2-.5-.1-.2.1-.2.3 0 .4l3.7 3.7v-.9zM51.2 43.5l-7.3-7.3c-.1-.1-.4-.2-.5-.1-.1.1-.1.3 0 .4l7.8 7.8v-.8zM34.6 23.5c-.1.1-.1.3 0 .5l8.7 8.7c.1.1.4.2.5.1.1-.1.2-.3 0-.5L35 23.5c0-.1-.2-.1-.4 0zM36.6 27.3c-.1.1-.1.3 0 .5l8.6 8.6c.1.1.4.2.5.1.2-.1.2-.3 0-.4L37 27.4c0-.2-.2-.2-.4-.1zM32.6 25.3c-.1.1-.1.3 0 .5l8.5 8.5c.1.1.4.2.5.1.1-.1.1-.3 0-.4l-8.5-8.5c-.1-.3-.3-.3-.5-.2z"/><g><path class="st3" d="M27.6 9.5c-.1.2-.1.4.1.6l9.2 9.2c.2.2.4.2.5 0 .1-.1.1-.4 0-.5l-9.2-9.2c-.3-.2-.5-.2-.6-.1zM29.8 13.7c-.1.1-.1.4 0 .5l9 9c.2.2.4.2.5 0 .1-.1.1-.4 0-.5l-9.1-9.1s-.3 0-.4.1zM25.7 11.9c-.1.1-.1.4.1.5l8.9 8.9c.2.2.4.2.5 0 .1-.1.1-.4 0-.5l-9-9c-.2-.1-.4-.1-.5.1z"/></g><g><path class="st3" d="M51.2 25.3L49 23.1c-.2-.2-.4-.2-.6 0-.2.1-.2.4 0 .5l2.8 2.8v-1.1zM51.2 27.4l-.2-.1c-.2-.2-.4-.2-.6-.1-.2.1-.2.4 0 .5l.8.8v-1.1zM51.2 29.9l-4.8-4.8c-.2-.2-.4-.2-.6-.1-.2.1-.2.4 0 .5l5.4 5.4v-1z"/></g><g><path class="st3" d="M36.3 10.9c-.1.2-.1.4 0 .6l9.6 9.6c.2.2.4.2.6 0 .2-.1.2-.4 0-.6l-9.7-9.7c-.1-.1-.4-.1-.5.1zM38.5 15.3c-.2.2-.1.4 0 .6l9.5 9.5c.2.2.4.2.6.1.2-.1.2-.4 0-.5L39 15.3c-.1-.2-.4-.2-.5 0zM34 13.3c-.1.2-.1.4 0 .6l9.3 9.3c.2.2.4.2.6 0 .2-.1.2-.4 0-.5l-9.4-9.4c-.1-.2-.3-.2-.5 0z"/></g></g><g><path class="st3" d="M30.3 31.1c-.1.1 0 .4.3.6l14.9 14.9c.3.3.6.4.7.3.1-.1 0-.3-.2-.6l-15-15c-.2-.1-.5-.3-.7-.2zM34.6 36.9c-.1.1 0 .4.2.6l13.9 13.9h.8L35.3 37.2c-.3-.3-.6-.4-.7-.3zM28.6 32.6c-.1.1 0 .4.3.6l14.6 14.6c.2.2.6.4.7.3.1-.1 0-.3-.2-.6L29.3 32.9c-.3-.3-.6-.4-.7-.3zM36.3 42.5c-.1.1-.1.2 0 .4l7.6 7.6c.1.1.3.2.5.1.1-.1.1-.2 0-.4l-7.7-7.7h-.4zM38.1 45.7c-.1.1-.1.2 0 .4l5.4 5.4h.7l-5.6-5.6c-.2-.3-.4-.3-.5-.2zM34.6 43.7c-.1.1-.1.2 0 .4l7.3 7.3h.6s0-.1-.1-.1L35 43.8c-.1-.1-.3-.2-.4-.1zM26.7 32.9c-.1.1-.1.3 0 .4l7.6 7.6c.1.1.3.2.4.1.1-.1.1-.3 0-.4L27 32.9c0-.1-.2-.1-.3 0zM28.6 36.1c-.1.1-.1.3 0 .4l7.6 7.5c.1.1.3.2.4.1.1-.1.1-.2 0-.4L29 36.2c-.1-.2-.3-.2-.4-.1zM25.2 34.2c-.1.1-.1.3.1.4l7.5 7.5c.1.1.3.2.4.1.1-.1.1-.2 0-.4l-7.5-7.5c-.3-.1-.4-.1-.5-.1zM20.2 21.1c-.1.1-.1.3.1.5l8 8c.1.1.3.2.4.1.1-.1.1-.3 0-.4l-8-8c-.2-.3-.4-.3-.5-.2zM22.2 24.6c-.1.1-.1.3.1.4l7.9 7.9c.1.1.3.2.4.1.1-.1.1-.3 0-.4l-7.9-7.9c-.2-.2-.4-.2-.5-.1zM18.8 22.9c-.1.1-.1.3.1.4l7.8 7.8c.1.1.3.2.4.1.1-.1.1-.3 0-.4L19.3 23c-.2-.2-.4-.2-.5-.1z"/><g><path class="st3" d="M50.5 51.3c-.1 0-.1.1-.1.1h.6c-.1-.2-.4-.2-.5-.1z"/></g><g><path class="st3" d="M51.2 46.1l-2.6-2.6c-.1-.1-.4-.2-.5-.1-.1.1-.2.3 0 .4l3.1 3.1v-.8zM51.2 47.8l-.8-.8c-.1-.1-.4-.2-.5-.1-.2.1-.2.3 0 .4l1.4 1.4v-.9zM51.2 49.6l-4.8-4.8c-.1-.1-.4-.2-.5-.1-.1.1-.1.3 0 .4l5.4 5.4v-.9z"/></g><g><path class="st3" d="M37.9 33.3c-.1.1-.1.3 0 .4l8.3 8.3c.1.1.4.2.5.1.1-.1.2-.3 0-.4l-8.4-8.4c-.1-.1-.3-.1-.4 0zM39.8 36.8c-.1.1-.1.3 0 .4l8.2 8.2c.1.1.4.2.5.1.1-.1.2-.3 0-.4l-8.3-8.3c-.1-.1-.3-.1-.4 0zM35.9 34.8c-.1.1-.1.3 0 .4l8.1 8.1c.1.1.4.2.5.1.1-.1.1-.3 0-.4l-8.1-8.1c-.2-.2-.4-.2-.5-.1z"/></g><g><path class="st3" d="M27.4 22.8c-.1.1-.1.3.1.5l8.3 8.3c.1.1.4.2.5.1.1-.1.1-.3 0-.4l-8.4-8.4c-.2-.2-.4-.2-.5-.1zM29.4 26.5c-.1.1-.1.3 0 .5l8.2 8.2c.1.1.4.2.5.1.1-.1.1-.3 0-.4l-8.3-8.3c0-.2-.3-.2-.4-.1zM25.7 24.6c-.1.1-.1.3.1.5l8.1 8.1c.1.1.3.2.5.1.1-.1.1-.3 0-.4l-8.1-8.2c-.3-.2-.5-.2-.6-.1z"/></g><g><path class="st3" d="M32.5 47.3c-.1.1 0 .3.2.5l3.6 3.6h.6l-3.8-3.8c-.2-.2-.5-.3-.6-.3zM30.9 48.3c-.1.1 0 .3.2.5l2.6 2.6h.6l-2.8-2.8c-.2-.3-.5-.4-.6-.3zM29.2 48.2c-.1.1-.1.2 0 .3l2.8 2.8h.6l-3.1-3.1h-.3zM30.8 51c-.1.1-.1.2 0 .3l.1.1h.6l-.3-.3c-.1-.1-.3-.2-.4-.1zM27.7 49.1c-.1.1-.1.2 0 .3l1.9 1.9h.5l-2.2-2.2h-.2zM23.5 38.4c-.1.1-.1.2.1.4l7.1 7.1c.1.1.2.1.3.1.1-.1.1-.2 0-.3l-7.1-7.1c-.1-.2-.3-.3-.4-.2zM25.3 41.4c-.1.1-.1.2 0 .3l7 7c.1.1.3.2.4.1.1-.1.1-.2 0-.3l-7-7c-.2-.2-.3-.2-.4-.1zM22.2 39.6c-.1.1-.1.2.1.3l6.9 6.9c.1.1.3.2.4.1.1-.1.1-.2 0-.3l-7-7c-.2-.1-.4-.1-.4 0z"/><g><path class="st3" d="M39.2 49.8c-.1.1-.1.2 0 .3l1.2 1.2h.7l-1.4-1.4c-.2-.1-.4-.1-.5-.1zM37.5 50.8c-.1.1-.1.2 0 .3l.3.3h.6l-.5-.5c-.1-.1-.3-.2-.4-.1z"/></g><g><path class="st3" d="M30 40.6c-.1.1-.1.2 0 .4l7.4 7.4c.1.1.3.2.4.1.1-.1.1-.2 0-.3l-7.4-7.4c-.1-.2-.3-.3-.4-.2zM31.7 43.6c-.1.1-.1.2 0 .4l7.3 7.3c.1.1.3.2.4.1.1-.1.1-.2 0-.3l-7.3-7.3c-.1-.2-.2-.3-.4-.2zM28.4 41.7c-.1.1-.1.2 0 .4l7.2 7.2c.1.1.3.2.4.1.1-.1.1-.2 0-.3l-7.2-7.2c-.1-.2-.3-.2-.4-.2z"/></g></g></g></g></g><g class="st4"><path class="st5" d="M34.7 30.6L25 36.2l-9.7-5.6V19.4l9.7-5.6 9.7 5.6v11.2zM25 12l-11.2 6.5v13L25 38l11.2-6.5v-13L25 12z"/><path class="st6" d="M34.6 30.5L25 36.1l-9.6-5.5V19.5L25 14l9.6 5.5v11zM13.9 18.6v12.9L25 37.9l11.1-6.4V18.6L25 12.1l-11.1 6.5z"/><path class="st7" d="M34.5 30.5L25 36l-9.5-5.5v-11L25 14l9.5 5.5v11zM14 18.6v12.8l11 6.4 11-6.4V18.6l-11-6.4-11 6.4z"/><path class="st8" d="M34.4 30.4L25 35.9l-9.4-5.4v-11l9.4-5.4 9.4 5.4v10.9zM14 18.7v12.6l11 6.3 11-6.3V18.7l-11-6.3-11 6.3z"/><path class="st9" d="M34.4 30.4L25 35.8l-9.4-5.4V19.6l9.4-5.4 9.4 5.4v10.8zM14.1 18.7v12.5L25 37.5l10.9-6.3V18.7L25 12.5l-10.9 6.2z"/><path class="st10" d="M34.3 30.4L25 35.7l-9.3-5.4V19.6l9.3-5.4 9.3 5.4v10.8zM14.2 18.8v12.4L25 37.4l10.8-6.2V18.8L25 12.6l-10.8 6.2z"/><path class="st11" d="M34.2 30.3L25 35.6l-9.2-5.3V19.7l9.2-5.3 9.2 5.3v10.6zM14.3 18.8v12.3L25 37.3l10.7-6.2V18.8L25 12.7l-10.7 6.1z"/><path class="st12" d="M34.1 30.3L25 35.5l-9.1-5.3V19.7l9.1-5.3 9.1 5.3v10.6zM14.4 18.9v12.2L25 37.2l10.6-6.1V18.9L25 12.8l-10.6 6.1z"/><path class="st13" d="M34 30.2l-9 5.2-9-5.2V19.8l9-5.2 9 5.2v10.4zM14.5 18.9V31L25 37.1 35.5 31V18.9l-10.5-6-10.5 6z"/><path class="st14" d="M34 30.2l-9 5.2-9-5.2V19.8l9-5.2 9 5.2v10.4zM14.6 19v12L25 37l10.4-6V19L25 13l-10.4 6z"/><path class="st15" d="M33.9 30.1L25 35.3l-8.9-5.1V19.9l8.9-5.1 8.9 5.1v10.2zM14.7 19v11.9l10.3 6 10.3-6V19L25 13.1 14.7 19z"/><path class="st16" d="M33.8 30.1L25 35.2l-8.8-5.1V19.9l8.8-5.1 8.8 5.1v10.2zm-19-11v11.8L25 36.8l10.2-5.9V19.1L25 13.2l-10.2 5.9z"/><path class="st17" d="M33.7 30L25 35l-8.7-5V20l8.7-5 8.7 5v10zM14.9 19.2v11.7L25 36.7l10.1-5.8V19.2L25 13.3l-10.1 5.9z"/><path class="st18" d="M33.6 30L25 35l-8.6-5V20l8.6-5 8.6 5v10zM15 19.2v11.6l10 5.8 10-5.8V19.2l-10-5.8-10 5.8z"/><path class="st19" d="M33.6 29.9l-8.6 5-8.6-4.9v-9.9l8.6-4.9 8.6 4.9v9.8zM15.1 19.3v11.5l9.9 5.7 9.9-5.7V19.3L25 13.5l-9.9 5.8z"/><path class="st20" d="M33.5 29.9L25 34.8l-8.5-4.9v-9.8l8.5-4.9 8.5 4.9v9.8zM15.2 19.3v11.4l9.8 5.7 9.8-5.7V19.3L25 13.6l-9.8 5.7z"/><path class="st21" d="M33.4 29.8L25 34.7l-8.4-4.9v-9.7l8.4-4.9 8.4 4.9v9.7zM15.2 19.4v11.3l9.8 5.6 9.8-5.6V19.4L25 13.7l-9.8 5.7z"/><path class="st22" d="M33.3 29.8L25 34.6l-8.3-4.8v-9.6l8.3-4.8 8.3 4.8v9.6zm-18-10.4v11.2l9.7 5.6 9.7-5.6V19.4L25 13.8l-9.7 5.6z"/><path class="st23" d="M33.2 29.8L25 34.5l-8.2-4.8v-9.5l8.2-4.8 8.2 4.8v9.6zM15.4 19.5v11.1L25 36l9.6-5.5v-11L25 13.9l-9.6 5.6z"/><path class="st24" d="M33.2 29.7L25 34.4l-8.2-4.7v-9.4l8.2-4.7 8.2 4.7v9.4zM15.5 19.5v10.9l9.5 5.5 9.5-5.5V19.5L25 14.1l-9.5 5.4z"/><path class="st25" d="M33.1 29.7L25 34.3l-8.1-4.7v-9.3l8.1-4.7 8.1 4.7v9.4zM15.6 19.6v10.8l9.4 5.4 9.4-5.4V19.6L25 14.2l-9.4 5.4z"/><path class="st26" d="M33 29.6l-8 4.6-8-4.6v-9.2l8-4.6 8 4.6v9.2zm-17.3-10v10.7l9.3 5.4 9.3-5.4V19.6L25 14.3l-9.3 5.3z"/><path class="st27" d="M32.9 29.6L25 34.2l-7.9-4.6v-9.2l7.9-4.6 7.9 4.6v9.2zm-17.1-9.9v10.6l9.2 5.3 9.2-5.3V19.7L25 14.4l-9.2 5.3z"/><path class="st28" d="M32.8 29.5L25 34.1l-7.8-4.5v-9.1L25 16l7.8 4.5v9zm-16.9-9.8v10.5l9.1 5.3 9.1-5.3V19.7L25 14.5l-9.1 5.2z"/><path class="st29" d="M32.8 29.5L25 34l-7.8-4.5v-9L25 16l7.8 4.5v9zM16 19.8v10.4l9 5.2 9-5.2V19.8l-9-5.2-9 5.2z"/><path class="st30" d="M32.7 29.4L25 33.9l-7.7-4.4v-8.9l7.7-4.4 7.7 4.4v8.8zm-16.6-9.6v10.3l8.9 5.2 8.9-5.2V19.8L25 14.7l-8.9 5.1z"/><path class="st31" d="M32.6 20.6v8.8L25 33.8l-7.6-4.4v-8.8l7.6-4.4 7.6 4.4zm-16.4-.7v10.2l8.8 5.1 8.8-5.1V19.9L25 14.8l-8.8 5.1z"/></g><path class="st1" d="M25 35.5l-9.1-5.2V19.7l9.1-5.2 9.1 5.2v10.6l-9 5.1z"/><g class="st32"><path class="st33" d="M21.4 25c0 .4-.1.7-.3.8-.2.2-.5.3-.9.3h-.6v-2.2h.7c.3 0 .6.1.8.3.3.2.3.5.3.8zm-.2 0c0-.3-.1-.5-.2-.7-.1-.1-.4-.2-.7-.2h-.4v1.8h.3c.3 0 .5-.1.7-.2.2-.1.3-.4.3-.7zM23.2 26.2H22V24h1.3v.2h-1v.7h.9v.2h-.9v.8h1v.3zM25 25.6c0 .2-.1.4-.2.5-.1.1-.3.2-.6.2s-.5 0-.6-.1v-.3c.1 0 .2.1.3.1h.3c.2 0 .3 0 .4-.1.1-.1.1-.2.1-.3v-.2s-.1-.1-.2-.1-.2-.1-.3-.1c-.2-.2-.4-.2-.5-.3-.1-.1-.1-.2-.1-.4s.1-.3.2-.4c.1-.1.3-.2.5-.2s.4 0 .6.1l-.1.2c-.2-.1-.4-.1-.5-.1-.1 0-.2 0-.3.1-.1.1-.1.1-.1.2v.2c0 .1.1.1.1.1.1 0 .2.1.3.1.2.1.4.2.5.3.1.2.2.3.2.5zM25.4 26.2V24h.3v2.2h-.3zM27.3 25h.7v1.1c-.1 0-.2.1-.4.1h-.4c-.3 0-.6-.1-.8-.3-.2-.2-.3-.5-.3-.9 0-.2.1-.4.1-.6.1-.2.2-.3.4-.4.2-.1.4-.1.6-.1.2 0 .5.1.7.1l-.1.2c-.2-.1-.4-.1-.6-.1-.3 0-.5.1-.6.2-.2.2-.2.4-.2.7 0 .3.1.5.2.7.1.2.4.2.7.2.2 0 .3 0 .5-.1v-.7h-.5V25zM30.3 26.2H30l-1.2-1.9v1.9h-.2V24h.3l1.2 1.9v-.3V24h.2v2.2z"/></g><g class="st32"><path class="st33" d="M21.2 27.3c0 .1 0 .1-.1.1H20.8v.2h-.1v-.5h.3c.1.1.2.1.2.2zm-.3.2h.2v-.1-.1h-.2v.2zM21.3 27.7v-.5h.1l-.1.5.3-.1v.1h-.3z"/><path class="st33" d="M22 27.7v-.2h-.2l-.1.2h-.1l.2-.5h.1l.1.5zm-.1-.2l-.1-.2v-.1.1l-.1.2h.2z"/><path class="st33" d="M22.4 27.2c-.1 0-.1 0-.1.1 0 0-.1.1-.1.2v.2l.1.1h.1v.1h-.1c-.1 0-.1 0-.2-.1 0 0-.1-.1-.1-.2v-.2l.1-.1c.2-.1.2-.1.3-.1.1-.1.1 0 .1 0v.1c0-.1-.1-.1-.1-.1zM23 27.7h-.3v-.5h.3v.1h-.2v.2h.2v.1h-.2v.2l.2-.1zM23.4 27.4l.1-.3h.1l-.2.3v.3h-.1l.1-.3-.2-.3h.1l.1.3zM24.2 27.4c0 .1 0 .2-.1.2 0 .1-.1.1-.2.1s-.1 0-.2-.1c0 0-.1-.1-.1-.2s0-.2.1-.2c0 0 .1-.1.2-.1s.1 0 .2.1c0 .1.1.2.1.2zm-.5 0v.2l.1.1c.1 0 .1 0 .1-.1v-.2-.2l-.1-.1c-.1 0-.1 0-.1.1v.2zM24.7 27.2v.3c0 .1 0 .1-.1.1 0 0-.1.1-.2.1s-.1 0-.2-.1v-.4h.1v.5h.2v-.1l.2-.4zM24.9 27.5v.2h-.1v-.5h.4v.1c0 .1 0 .1-.1.1l.1.2h-.1l-.1-.1h-.1zm0-.1h.2v-.1-.1h-.2v.2zM25.7 27.7l-.1-.5h-.2v-.1h.4v.1h-.2v.5zM26.2 27.7h-.3v-.5h.3v.1H26v.2h.2v.1H26v.2l.2-.1zM26.7 27.7l-.2-.2-.1.2h-.1l.2-.3-.2-.3h.1l.1.2.1-.2h.1l-.2.3.2.3z"/><path class="st33" d="M27 27.7l-.1-.5h-.2v-.1h.4v.1H27v.5zM27.8 27.7l-.1-.3h-.3v.3h-.1v-.5h.1v.2h.3v-.2h.1v.5zM28.3 27.7H28v-.5h.3v.1H28v.2h.2v.1H28v.2l.3-.1zM28.5 27.5v.2h-.1v-.5H28.7v.1c0 .1 0 .1-.1.1l.1.2h-.1l-.1-.2zm0-.1h.2v-.1-.1h-.2v.2zM29.2 27.7h-.3v-.5h.3v.1H29v.2h.2v.1H29v.2l.2-.1z"/></g><g class="st32"><g class="st34"><path class="st35" d="M21.5 28.2V28v.2h.1-.1zM21.9 28.1c0 .1 0 .1 0 0 0 .1-.1.1-.1.1v-.1-.1c-.1.1-.1 0 .1.1-.1-.1-.1 0 0 0zm-.2 0c0 .1 0 .1 0 0 0 .1.1.1 0 0l.1.1v-.1-.1c0 .1 0 .1-.1.1.1 0 0 0 0 0zM22 28c0 .1 0 .1 0 0 0 .1 0 .1 0 0-.1.1-.1.1 0 0l-.1.2.1-.2c0 .1 0 .1 0 0zM22.1 28.2c-.1 0-.1-.1-.1-.1V28h.2v.1l-.1.1c.1 0 .1 0 0 0 .1 0 .1 0 0 0 .1 0 .1 0 0 0zm0-.1c.1 0 .1 0 0 0 .1 0 .1 0 0 0zM22.5 28.2v-.1.1h-.1v-.1.2-.3h.2v.1l-.1.1zM22.7 28zm0 .2V28v.2zM22.9 28.2s-.1 0 0 0c-.1 0-.1 0 0 0l-.1-.2h.1v.1c.1.1.1.1 0 .1.1 0 0 0 0 0zm0-.1c-.1 0-.1 0 0 0-.1.1-.1.1 0 .1s.1 0 0-.1c.1 0 .1 0 0 0zM23.2 28.2c-.1 0-.1 0 0 0-.1.1-.1.1-.1 0h.1c-.1 0-.1 0 0 0-.1 0-.1 0 0 0-.1 0-.1 0 0 0-.1 0-.1 0 0 0-.1 0-.1 0-.1-.1h.1c-.1 0 0 0 0 0-.1 0-.1 0 0 .1-.1-.1-.1-.1 0 0-.1-.1-.1 0 0 0zM23.2 28v.1-.1zM23.7 28.2v-.1.1h-.1v-.1.2-.3h.2v.1l-.1.1zM24 28.2h-.1v-.1-.1h.2l-.1.2zm0 0c.1-.1.1-.1 0-.1s-.1 0 0 .1c-.1 0-.1 0 0 0-.1 0-.1 0 0 0zM24.3 28.1c0 .1 0 .1 0 0 0 .1-.1.1-.1.1v-.1-.1c-.1.1 0 0 .1.1-.1-.1-.1 0 0 0zm-.2 0c0 .1 0 .1 0 0 .1.1.1.1 0 0l.1.1v-.1-.1c0 .1 0 .1-.1.1.1 0 .1 0 0 0zM24.4 28.2v-.3.3zM24.6 28.1c0 .1 0 .1 0 0 0 .1-.1.1-.1.1v-.1-.1c0 .1 0 0 .1.1-.1-.1 0 0 0 0zm-.1 0c0 .1 0 .1 0 0 0 .1 0 .1 0 0l.1.1v-.1-.1c0 .1-.1.1-.1.1zM24.8 28c0 .1 0 .1 0 0-.1.1-.1.1 0 0-.1.1-.1.1 0 0l-.1.2.1-.2c-.1.1-.1.1 0 0-.1 0-.1 0 0 0zM25 28.2c-.1.1-.1.1-.1 0h.1c-.1 0-.1 0-.1-.1h.1c-.1 0-.1 0 0 .1-.1-.1 0-.1 0 0 0-.1 0 0 0 0zM25.1 28zm0 .2V28v.2zM25.2 28.2c.1 0 .1 0 0 0 .1 0 .1 0 0 0 .1 0 .1 0 0 0 .1 0 0 0 0 0l-.1-.2h.1-.1l.1.2zM25.5 28.2h-.1s0-.1.1-.1h-.1.1v.1zm0 0c-.1 0-.1 0 0 0-.1 0-.1 0 0 0-.1 0 0 0 0 0zM25.9 28.2v-.1.1h-.1v-.1.2-.3h.2v.1l-.1.1z"/><path class="st35" d="M26 28.2c-.1 0-.1-.1-.1-.1V28h.2v.1l-.1.1c.1 0 .1 0 0 0 .1 0 .1 0 0 0 .1 0 .1 0 0 0zm0-.1c.1 0 .1 0 0 0 .1 0 .1 0 0 0zM26.2 28.2c.1 0 .1 0 0 0 .1 0 .1 0 0 0l-.1-.2h.1-.1l.1.2zM26.3 28.2c0 .1 0 .1 0 0 0 .1 0 .1 0 0zM26.6 28.2c-.1 0-.1 0 0 0-.1 0-.1-.1-.1-.1V28h.1s-.1 0-.1.1 0 .1.1.1c-.1 0 0 0 0 0zM26.8 28.1c0 .1 0 .1 0 0 0 .1-.1.1-.1.1v-.1-.1c0 .1 0 0 .1.1 0-.1 0 0 0 0zm-.1 0c0 .1 0 .1 0 0 0 .1 0 .1 0 0l.1.1v-.1-.1c0 .1 0 .1-.1.1zM27 28.2v-.1.2-.3h.1v.1l-.1.1z"/><path class="st35" d="M27.2 28.2c-.1.1-.1.1-.1 0h.1c-.1 0-.1 0-.1-.1h.1c-.1 0-.1 0 0 .1 0-.1 0-.1 0 0 0-.1 0 0 0 0zM27.4 28.2s-.1 0 0 0c-.1 0-.1-.1-.1-.1V28h.2v.1l-.1.1c-.1 0-.1 0 0 0-.1 0 0 0 0 0zm0-.1s-.1 0 0 0c-.1 0-.1 0 0 0zM27.6 28.2s-.1 0 0 0c-.1 0-.1-.1-.1-.1V28h.1s-.1 0-.1.1 0 .1.1.1z"/><path class="st35" d="M27.7 28.2c.1 0 .1 0 0 0 .1 0 .1 0 0 0 .1 0 .1 0 0 0 .1 0 0 0 0 0l-.1-.2h.1-.1l.1.2z"/><path class="st35" d="M27.9 28.2s-.1 0 0 0c-.1 0-.1-.1-.1-.1V28h.2v.1l-.1.1c-.1 0-.1 0 0 0zm0-.1c-.1 0-.1 0 0 0zM28.1 28.2c-.1 0-.1 0 0 0l-.1-.1h.1-.1l.1.1z"/><path class="st35" d="M28.2 28v.2h-.1v-.1l.1-.1zM28.5 28c0 .1 0 .1 0 0 0 .1-.1.1 0 0-.1.1-.1.1 0 0l-.1.2.1-.2c-.1.1-.1.1 0 0z"/></g></g><path class="st36" d="M21.2 26.5h7.6v.1h-7.6z"/><g class="st32"><path class="st33" d="M22.4 23.1v-1.4h.3c.1 0 .2 0 .3.1.1.1.1.2.1.3v.2s0 .1-.1.1c0 0 0 .1-.1.1h-.1-.1v.6h-.3zm.3-.8c0-.1 0-.1 0 0h.1zM23 23.1l.3-1.4h.2l.3 1.4h-.3l-.1-.3h-.2l-.1.3H23zm.4-.5h.1l-.1-.5v.5zM24 23.1v-1.2h-.2v-.2h.7v.2h-.2v1.2H24zM24.8 23.1v-1.2h-.2v-.2h.7v.2H25v1.2h-.2zM25.3 23.1v-1.4h.6v.2h-.3v.4h.2v.2h-.2v.4h.3v.2h-.6zM26 23.1v-1.4h.5c.1 0 .1 0 .1.1l.1.1v.5l-.1.1s-.1 0-.1.1c.1.3.2.5.2.7h-.3l-.2-.6v.6H26zm.3-.9h.1v-.1-.1-.1-.1-.1-.1h-.1v.6zM26.9 23.1v-1.4h.2l.3.7v-.7h.2v1.4h-.2l-.3-.8v.8h-.2z"/></g></svg>