<?xml version="1.0" encoding="utf-8"?>
<!-- Generator: Adobe Illustrator 21.0.2, SVG Export Plug-In . SVG Version: 6.00 Build 0)  -->
<svg version="1.1" id="Layer_1" xmlns="http://www.w3.org/2000/svg" xmlns:xlink="http://www.w3.org/1999/xlink" x="0px" y="0px"
	 viewBox="0 0 50 50" style="enable-background:new 0 0 50 50;" xml:space="preserve">
<style type="text/css">
	.st0{display:none;fill:#FFFFFF;}
	.st1{display:none;fill:#071E3D;}
	.st2{opacity:0.1;clip-path:url(#SVGID_2_);}
	.st3{fill:#FFFFFF;}
	.st4{display:none;opacity:0.5;}
	.st5{display:inline;opacity:0;fill:#FFFFFF;}
	.st6{display:inline;opacity:3.846100e-02;fill:#F7F7F7;}
	.st7{display:inline;opacity:7.692300e-02;fill:#EFEFEF;}
	.st8{display:inline;opacity:0.1154;fill:#E7E7E7;}
	.st9{display:inline;opacity:0.1538;fill:#E0E0E0;}
	.st10{display:inline;opacity:0.1923;fill:#D8D8D8;}
	.st11{display:inline;opacity:0.2308;fill:#D0D0D0;}
	.st12{display:inline;opacity:0.2692;fill:#C8C8C8;}
	.st13{display:inline;opacity:0.3077;fill:#C0C0C0;}
	.st14{display:inline;opacity:0.3462;fill:#B8B8B8;}
	.st15{display:inline;opacity:0.3846;fill:#B1B1B1;}
	.st16{display:inline;opacity:0.4231;fill:#A9A9A9;}
	.st17{display:inline;opacity:0.4615;fill:#A1A1A1;}
	.st18{display:inline;opacity:0.5;fill:#999999;}
	.st19{display:inline;opacity:0.5385;fill:#919191;}
	.st20{display:inline;opacity:0.5769;fill:#898989;}
	.st21{display:inline;opacity:0.6154;fill:#818181;}
	.st22{display:inline;opacity:0.6538;fill:#7A7A7A;}
	.st23{display:inline;opacity:0.6923;fill:#727272;}
	.st24{display:inline;opacity:0.7308;fill:#6A6A6A;}
	.st25{display:inline;opacity:0.7692;fill:#626262;}
	.st26{display:inline;opacity:0.8077;fill:#5A5A5A;}
	.st27{display:inline;opacity:0.8462;fill:#525252;}
	.st28{display:inline;opacity:0.8846;fill:#4B4B4B;}
	.st29{display:inline;opacity:0.9231;fill:#434343;}
	.st30{display:inline;opacity:0.9615;fill:#3B3B3B;}
	.st31{display:inline;fill:#333333;}
	.st32{display:none;}
	.st33{display:inline;fill:#F92D62;}
	.st34{display:inline;}
	.st35{fill:#F92D62;}
	.st36{display:none;fill:#F92D62;}
</style>
<g>
	<g>
		<rect class="st0" width="50" height="50"/>
		<rect class="st1" width="50" height="50"/>
		<g>
			<defs>
				<rect id="SVGID_1_" width="50" height="50"/>
			</defs>
			<clipPath id="SVGID_2_">
				<use xlink:href="#SVGID_1_"  style="overflow:visible;"/>
			</clipPath>
			<g class="st2">
				<g>
					<g>
						<g>
							<g>
								<path class="st3" d="M-1.2,1.4l1.4,1.4C0.3,3,0.5,3,0.6,2.8c0.1-0.1,0-0.4-0.1-0.5l-1.6-1.6V1.4z"/>
							</g>
						</g>
						<g>
							<g>
								<path class="st3" d="M-1.2,13.9l4.9,4.9c0.1,0.1,0.3,0.1,0.3,0c0.1-0.1,0-0.3-0.1-0.4l-5.1-5.1V13.9z"/>
								<path class="st3" d="M-1.2,15.1l6.9,6.9C5.8,22,5.9,22.1,6,22c0.1-0.1,0-0.3-0.1-0.4l-7.1-7.1c0,0,0,0,0,0V15.1z"/>
								<path class="st3" d="M-1.2,16.4l4,4c0.1,0.1,0.3,0.1,0.3,0c0.1-0.1,0-0.3-0.1-0.4l-4.2-4.2V16.4z"/>
							</g>
							<g>
								<path class="st3" d="M-1.2,18l2.7,2.7c0.1,0.1,0.3,0.1,0.3,0c0.1-0.1,0-0.3-0.1-0.4l-2.9-2.9V18z"/>
								<path class="st3" d="M-1.2,19.1l4.6,4.6c0.1,0.1,0.3,0.1,0.3,0c0.1-0.1,0-0.3-0.1-0.4l-4.9-4.9V19.1z"/>
								<path class="st3" d="M-1.2,20.4l1.9,1.9c0.1,0.1,0.2,0.1,0.3,0C1,22.2,1,22,0.9,21.9l-2.1-2.1V20.4z"/>
							</g>
							<g>
								<path class="st3" d="M-1.2,9.7l1,1c0.1,0.1,0.3,0.1,0.3,0c0.1-0.1,0-0.3-0.1-0.5L-1.2,9V9.7z"/>
								<path class="st3" d="M-1.2,10.9L1.9,14c0.1,0.1,0.3,0.1,0.3,0c0.1-0.1,0-0.3-0.1-0.4l-3.3-3.3V10.9z"/>
								<path class="st3" d="M-1.2,12.4l0.1,0.1c0.1,0.1,0.3,0.1,0.3,0c0.1-0.1,0-0.3-0.1-0.4l-0.3-0.3V12.4z"/>
							</g>
						</g>
					</g>
				</g>
				<g>
					<g>
						<g>
							<path class="st3" d="M-1.2,26.5l2.6,2.6c0.2,0.2,0.4,0.3,0.5,0.2c0.1-0.1-0.1-0.3-0.3-0.5L-1.2,26V26.5z"/>
							<g>
								<path class="st3" d="M-1.2,29.9l1.1,1.1c0.1,0.1,0.2,0.1,0.3,0c0-0.1,0-0.2-0.1-0.3l-1.3-1.3V29.9z"/>
							</g>
							<g>
								<path class="st3" d="M1.6,28.1c-0.1,0.1,0,0.2,0.1,0.3L8,34.8c0.1,0.1,0.2,0.1,0.3,0.1l0,0c0.1-0.1,0-0.2-0.1-0.3l-6.4-6.4
									C1.7,28,1.6,28,1.6,28.1L1.6,28.1z"/>
								<path class="st3" d="M3.3,30.8c-0.1,0.1,0,0.2,0.1,0.3l6.3,6.3c0.1,0.1,0.2,0.1,0.3,0.1l0,0c0.1-0.1,0-0.2-0.1-0.3l-6.3-6.3
									C3.5,30.7,3.4,30.7,3.3,30.8L3.3,30.8z"/>
								<path class="st3" d="M0.8,29.3c0,0.1,0,0.2,0.1,0.3l6.2,6.2C7.2,36,7.3,36,7.4,35.9l0,0c0.1-0.1,0-0.2-0.1-0.3l-6.2-6.2
									C1,29.3,0.8,29.2,0.8,29.3L0.8,29.3z"/>
							</g>
							<g>
								<path class="st3" d="M-0.3,29.5c0,0.1,0,0.2,0.1,0.3L5.9,36c0.1,0.1,0.2,0.1,0.3,0.1l0,0c0.1-0.1,0-0.2-0.1-0.3l-6.2-6.2
									C-0.2,29.5-0.3,29.5-0.3,29.5L-0.3,29.5z"/>
								<path class="st3" d="M1.4,32.2c0,0.1,0,0.2,0.1,0.3l6.1,6.1c0.1,0.1,0.2,0.1,0.3,0.1l0,0c0.1-0.1,0-0.2-0.1-0.3l-6.1-6.1
									C1.6,32.1,1.5,32.1,1.4,32.2L1.4,32.2z"/>
								<path class="st3" d="M-1,30.7c0,0.1,0,0.2,0.1,0.3l6,6c0.1,0.1,0.2,0.1,0.3,0.1l0,0c0.1-0.1,0-0.2-0.1-0.3l-6-6
									C-0.9,30.7-1,30.6-1,30.7L-1,30.7z"/>
							</g>
							<g>
								<path class="st3" d="M-1.2,22.2l5.9,5.9c0.1,0.1,0.2,0.1,0.3,0C5,28,5,27.8,4.9,27.7l-6.1-6.1V22.2z"/>
								<path class="st3" d="M-0.1,24c0,0.1,0,0.3,0.1,0.4l6.5,6.5c0.1,0.1,0.2,0.1,0.3,0l0,0c0.1-0.1,0-0.2-0.1-0.3L0.2,24
									C0.1,23.9-0.1,23.9-0.1,24L-0.1,24z"/>
								<path class="st3" d="M-1.2,24.3l5,5c0.1,0.1,0.2,0.1,0.3,0c0.1-0.1,0-0.2-0.1-0.3l-5.2-5.2V24.3z"/>
							</g>
							<g>
								<path class="st3" d="M-1.2,23C-1.2,23-1.2,23-1.2,23c0.1-0.1,0.1-0.2,0-0.3V23z"/>
							</g>
						</g>
						<g>
							<path class="st3" d="M-1.2,34.6l3.7,3.7c0.2,0.2,0.4,0.3,0.4,0.2c0-0.1-0.1-0.3-0.2-0.4l-3.8-3.8V34.6z"/>
							<path class="st3" d="M-1.2,35.4l7,7c0.2,0.2,0.4,0.3,0.4,0.2c0.1-0.1-0.1-0.3-0.2-0.4L-1.2,35V35.4z"/>
							<path class="st3" d="M-1.2,36.3l2.9,2.9c0.2,0.2,0.4,0.3,0.4,0.2c0-0.1-0.1-0.3-0.2-0.4l-3.1-3.1V36.3z"/>
							<g>
								<path class="st3" d="M-1.2,37.4l3.9,3.9c0.1,0.1,0.2,0.1,0.3,0.1c0-0.1,0-0.2-0.1-0.3l-4.1-4.1V37.4z"/>
								<path class="st3" d="M-1.2,38.2l5.5,5.5c0.1,0.1,0.2,0.1,0.3,0.1c0-0.1,0-0.2-0.1-0.3l-5.6-5.6c0,0,0,0-0.1-0.1V38.2z"/>
								<path class="st3" d="M-1.2,39L2,42.2c0.1,0.1,0.2,0.1,0.2,0.1c0-0.1,0-0.2-0.1-0.3l-3.3-3.3V39z"/>
							</g>
							<g>
								<path class="st3" d="M5.9,41.5c-0.1,0.1,0,0.2,0.1,0.3l5.8,5.8c0.1,0.1,0.2,0.1,0.3,0.1l0,0c0.1-0.1,0-0.2-0.1-0.3l-5.8-5.8
									C6.1,41.5,6,41.4,5.9,41.5L5.9,41.5z"/>
								<path class="st3" d="M7.5,43.9c-0.1,0.1,0,0.2,0.1,0.3l5.7,5.7c0.1,0.1,0.2,0.1,0.3,0.1l0,0c0.1,0,0-0.2-0.1-0.3l-5.7-5.7
									C7.7,43.9,7.6,43.8,7.5,43.9L7.5,43.9z"/>
								<path class="st3" d="M5.1,42.4c0,0.1,0,0.2,0.1,0.3l5.7,5.7c0.1,0.1,0.2,0.1,0.3,0.1l0,0c0.1,0,0-0.2-0.1-0.3l-5.7-5.7
									C5.3,42.4,5.2,42.3,5.1,42.4L5.1,42.4z"/>
							</g>
							<g>
								<path class="st3" d="M4.1,42.4c0,0.1,0,0.2,0.1,0.3l5.6,5.6c0.1,0.1,0.2,0.1,0.3,0.1l0,0c0.1,0,0-0.2-0.1-0.3l-5.6-5.6
									C4.2,42.4,4.1,42.4,4.1,42.4L4.1,42.4z"/>
								<path class="st3" d="M5.6,44.7c0,0.1,0,0.2,0.1,0.3l5.5,5.5c0.1,0.1,0.2,0.1,0.3,0.1l0,0c0.1,0,0-0.2-0.1-0.3l-5.6-5.6
									C5.8,44.7,5.7,44.7,5.6,44.7L5.6,44.7z"/>
								<path class="st3" d="M3.4,43.3c0,0.1,0,0.2,0.1,0.3L8.9,49c0.1,0.1,0.2,0.1,0.3,0.1l0,0c0.1,0,0-0.2-0.1-0.3l-5.5-5.5
									C3.5,43.3,3.4,43.2,3.4,43.3L3.4,43.3z"/>
							</g>
							<g>
								<path class="st3" d="M2.8,35.6c0,0.1,0,0.2,0.1,0.3l5.9,5.9C9,42,9.1,42,9.2,42l0,0c0.1-0.1,0-0.2-0.1-0.3l-6-6
									C3,35.6,2.9,35.6,2.8,35.6L2.8,35.6z"/>
								<path class="st3" d="M4.5,38.1c-0.1,0.1,0,0.2,0.1,0.3l5.9,5.9c0.1,0.1,0.2,0.1,0.3,0.1l0,0c0.1-0.1,0-0.2-0.1-0.3l-5.9-5.9
									C4.7,38.1,4.6,38.1,4.5,38.1L4.5,38.1z"/>
								<path class="st3" d="M2.1,36.7c0,0.1,0,0.2,0.1,0.3L8,42.8c0.1,0.1,0.2,0.1,0.3,0.1l0,0c0.1-0.1,0-0.2-0.1-0.3l-5.9-5.9
									C2.3,36.6,2.1,36.6,2.1,36.7L2.1,36.7z"/>
							</g>
							<g>
								<path class="st3" d="M-1.2,31.8l2.8,2.8c0.1,0.1,0.2,0.1,0.3,0.1c0-0.1,0-0.2-0.1-0.3l-3-3V31.8z"/>
								<path class="st3" d="M-1.2,32.7l4.5,4.5c0.1,0.1,0.2,0.1,0.3,0.1c0-0.1,0-0.2-0.1-0.3l-4.7-4.7V32.7z"/>
								<path class="st3" d="M-1.2,33.6l2.1,2.1c0.1,0.1,0.2,0.1,0.3,0.1c0-0.1,0-0.2-0.1-0.3l-2.3-2.3V33.6z"/>
							</g>
						</g>
					</g>
					<g>
						<g>
							<path class="st3" d="M-1.2,42.4l1,1c0.2,0.2,0.3,0.3,0.4,0.2c0-0.1-0.1-0.2-0.2-0.4l-1.1-1.1V42.4z"/>
							<path class="st3" d="M-1.2,43.1l4.1,4.1c0.2,0.2,0.3,0.3,0.4,0.2c0,0-0.1-0.2-0.2-0.4l-4.2-4.2V43.1z"/>
							<path class="st3" d="M-1.2,43.8l0.4,0.4c0.2,0.2,0.3,0.3,0.4,0.2c0-0.1-0.1-0.2-0.2-0.4l-0.5-0.5V43.8z"/>
							<g>
								<path class="st3" d="M-1.2,44.8l1.3,1.3c0.1,0.1,0.2,0.1,0.2,0.1c0,0,0-0.2-0.1-0.2l-1.4-1.4V44.8z"/>
								<path class="st3" d="M-1.2,45.4l2.7,2.7c0.1,0.1,0.2,0.1,0.2,0.1c0,0,0-0.2-0.1-0.2l-2.9-2.9V45.4z"/>
								<path class="st3" d="M-1.2,46.1l0.7,0.7c0.1,0.1,0.2,0.1,0.2,0.1c0,0,0-0.2-0.1-0.2l-0.8-0.8V46.1z"/>
							</g>
							<g>
								<path class="st3" d="M3,46.4c0,0,0,0.2,0.1,0.3l4.7,4.7h0.3l-4.9-4.9C3.1,46.4,3,46.4,3,46.4z"/>
								<path class="st3" d="M4.4,48.5c0,0,0,0.2,0.1,0.2l2.6,2.6h0.3l-2.8-2.8C4.6,48.5,4.5,48.5,4.4,48.5z"/>
								<path class="st3" d="M2.3,47.1c0,0,0,0.2,0.1,0.2l4,4h0.3l-4.2-4.2C2.4,47.1,2.3,47.1,2.3,47.1z"/>
							</g>
							<g>
								<path class="st3" d="M1.3,47.1c0,0,0,0.2,0.1,0.2l4,4h0.3l-4.2-4.2C1.5,47.1,1.4,47.1,1.3,47.1z"/>
								<path class="st3" d="M2.8,49.2c0,0,0,0.2,0.1,0.2l2,2h0.3L3,49.3C2.9,49.2,2.8,49.1,2.8,49.2z"/>
								<path class="st3" d="M0.7,47.8c0,0,0,0.2,0.1,0.2l3.3,3.3h0.3L1,47.9C0.9,47.8,0.8,47.8,0.7,47.8z"/>
							</g>
							<g>
								<path class="st3" d="M0.1,41.2c0,0.1,0,0.2,0.1,0.3l5.4,5.4C5.7,47,5.8,47,5.8,46.9l0,0c0-0.1,0-0.2-0.1-0.3l-5.4-5.4
									C0.2,41.2,0.1,41.1,0.1,41.2L0.1,41.2z"/>
								<path class="st3" d="M1.6,43.4c0,0.1,0,0.2,0.1,0.3L7.1,49c0.1,0.1,0.2,0.1,0.3,0.1l0,0c0,0,0-0.2-0.1-0.3l-5.4-5.4
									C1.8,43.4,1.6,43.4,1.6,43.4L1.6,43.4z"/>
								<path class="st3" d="M-0.6,42c0,0.1,0,0.2,0.1,0.3l5.3,5.3c0.1,0.1,0.2,0.1,0.2,0.1l0,0c0,0,0-0.2-0.1-0.3l-5.3-5.3
									C-0.4,42-0.5,42-0.6,42L-0.6,42z"/>
							</g>
							<g>
								<path class="st3" d="M-1.2,40.1l0.2,0.2c0.1,0.1,0.2,0.1,0.2,0.1c0-0.1,0-0.2-0.1-0.3l-0.3-0.3V40.1z"/>
								<path class="st3" d="M-1.2,40.8l1.7,1.7c0.1,0.1,0.2,0.1,0.2,0.1c0-0.1,0-0.2-0.1-0.3l-1.9-1.9V40.8z"/>
							</g>
						</g>
						<g>
							<polygon class="st3" points="1.7,51.4 -1.2,48.5 -1.2,48.7 1.4,51.4 							"/>
							<polygon class="st3" points="1.2,51.4 -1.2,49 -1.2,49.3 0.9,51.4 							"/>
							<polygon class="st3" points="0.5,51.4 -1.2,49.7 -1.2,49.9 0.3,51.4 							"/>
							<g>
								<path class="st3" d="M-1,50.8c0,0,0,0.1,0.1,0.2l0.4,0.4h0.3l-0.5-0.5C-0.9,50.8-1,50.8-1,50.8z"/>
							</g>
							<g>
								<polygon class="st3" points="-0.8,51.4 -1.2,51 -1.2,51.3 -1.1,51.4 								"/>
							</g>
							<g>
								<path class="st3" d="M-1.2,46.8l4.1,4.1C3,51,3.1,51,3.2,51c0,0,0-0.1-0.1-0.2l-4.3-4.3V46.8z"/>
								<path class="st3" d="M-0.7,47.7c0,0,0,0.1,0.1,0.2l3.4,3.4h0.3l-3.6-3.6C-0.6,47.7-0.7,47.7-0.7,47.7z"/>
								<polygon class="st3" points="2.4,51.4 -1.2,47.8 -1.2,48 2.1,51.4 								"/>
							</g>
						</g>
					</g>
				</g>
				<g>
					<g>
						<g>
							<g>
								<path class="st3" d="M29-1.4l3,3c0.2,0.2,0.4,0.2,0.6,0c0.1-0.2,0.1-0.5,0-0.7l-2.4-2.4H29z"/>
								<path class="st3" d="M26.3-1.4l1.2,1.2C27.6,0,27.9,0,28-0.2c0.1-0.2,0.1-0.5-0.1-0.6l-0.5-0.5H26.3z"/>
							</g>
						</g>
						<g>
							<path class="st3" d="M16.3-1.4l5.6,5.6c0.3,0.3,0.6,0.4,0.7,0.2c0.1-0.2,0-0.5-0.3-0.8l-4.9-4.9H16.3z"/>
							<path class="st3" d="M14.4-1.4l12.5,12.5c0.3,0.3,0.6,0.4,0.7,0.2c0.1-0.2,0-0.5-0.3-0.8L15.4-1.4H14.4z"/>
							<path class="st3" d="M12.1-1.4l8,8c0.3,0.3,0.6,0.4,0.7,0.2c0.1-0.2,0-0.5-0.3-0.8l-7.4-7.4H12.1z"/>
							<g>
								<path class="st3" d="M12.4,1.3c-0.1,0.2,0,0.4,0.1,0.6l8.7,8.7c0.1,0.1,0.4,0.1,0.5,0l0,0c0.1-0.1,0.1-0.4-0.1-0.5l-8.8-8.8
									C12.7,1.1,12.5,1.2,12.4,1.3L12.4,1.3z"/>
								<path class="st3" d="M14.8,5.4c-0.1,0.2-0.1,0.4,0.1,0.5l8.6,8.6c0.1,0.1,0.4,0.2,0.5,0l0,0c0.1-0.1,0.1-0.4-0.1-0.5
									l-8.7-8.7C15,5.3,14.8,5.3,14.8,5.4L14.8,5.4z"/>
								<path class="st3" d="M11.1,3.8c-0.1,0.2,0,0.4,0.1,0.5l8.5,8.5c0.1,0.1,0.3,0.1,0.4,0l0,0c0.1-0.1,0.1-0.4-0.1-0.5l-8.5-8.5
									C11.3,3.6,11.2,3.6,11.1,3.8L11.1,3.8z"/>
							</g>
							<g>
								<path class="st3" d="M9.3-1.4l1,1c0.1,0.1,0.3,0.1,0.4,0s0-0.4-0.1-0.6l-0.4-0.4H9.3z"/>
								<path class="st3" d="M7.5-1.4l5.1,5.1c0.1,0.1,0.3,0.1,0.4,0c0.1-0.2,0-0.4-0.1-0.6L8.4-1.4H7.5z"/>
								<path class="st3" d="M5.5-1.4L9,2.1c0.1,0.1,0.3,0.1,0.4,0c0.1-0.2,0-0.4-0.1-0.6L6.4-1.4H5.5z"/>
							</g>
							<g>
								<path class="st3" d="M27.5,9.2c-0.1,0.2-0.1,0.4,0.1,0.6l9.2,9.2c0.2,0.2,0.4,0.2,0.5,0l0,0c0.1-0.1,0.1-0.4,0-0.5L28,9.2
									C27.8,9.1,27.6,9.1,27.5,9.2L27.5,9.2z"/>
								<path class="st3" d="M29.7,13.4c-0.1,0.1-0.1,0.4,0,0.5l9.1,9.1c0.2,0.2,0.4,0.2,0.5,0l0,0c0.1-0.1,0.1-0.4,0-0.5l-9.1-9.1
									C30.1,13.3,29.8,13.3,29.7,13.4L29.7,13.4z"/>
								<path class="st3" d="M25.6,11.6c-0.1,0.2-0.1,0.4,0.1,0.5l8.9,8.9c0.2,0.2,0.4,0.2,0.5,0l0,0c0.1-0.1,0.1-0.4,0-0.5l-9-9
									C25.9,11.4,25.7,11.4,25.6,11.6L25.6,11.6z"/>
							</g>
							<g>
								<path class="st3" d="M23.5,12.2c-0.1,0.1-0.1,0.4,0.1,0.5l8.7,8.7c0.1,0.1,0.4,0.2,0.5,0l0,0c0.1-0.1,0.1-0.4,0-0.5L24,12.2
									C23.9,12.1,23.7,12.1,23.5,12.2L23.5,12.2z"/>
								<path class="st3" d="M25.7,16.2c-0.1,0.1-0.1,0.4,0.1,0.5l8.6,8.6c0.1,0.1,0.4,0.2,0.5,0l0,0c0.1-0.1,0.1-0.3,0-0.5
									l-8.7-8.7C26,16.1,25.8,16,25.7,16.2L25.7,16.2z"/>
								<path class="st3" d="M21.9,14.4c-0.1,0.1-0.1,0.4,0.1,0.5l8.5,8.5c0.1,0.1,0.4,0.2,0.5,0l0,0c0.1-0.1,0.1-0.3,0-0.5
									l-8.6-8.6C22.2,14.2,22,14.2,21.9,14.4L21.9,14.4z"/>
							</g>
							<g>
								<path class="st3" d="M23.5-1.4C23.6-1.4,23.6-1.3,23.5-1.4l9.7,9.7c0.2,0.2,0.4,0.2,0.6,0c0.1-0.2,0.1-0.4,0-0.6l-9.1-9.1
									H23.5z"/>
								<path class="st3" d="M25.9,2.6c-0.1,0.2-0.1,0.5,0.1,0.6l9.5,9.5c0.2,0.2,0.4,0.2,0.6,0l0,0c0.1-0.2,0.1-0.4,0-0.6l-9.6-9.6
									C26.3,2.4,26.1,2.4,25.9,2.6L25.9,2.6z"/>
								<path class="st3" d="M21.7,0.9c-0.1,0.2-0.1,0.5,0.1,0.6l9.3,9.3c0.2,0.2,0.4,0.2,0.5,0l0,0c0.1-0.2,0.1-0.4,0-0.6l-9.4-9.4
									C22,0.7,21.8,0.7,21.7,0.9L21.7,0.9z"/>
							</g>
							<g>
								<path class="st3" d="M21.3-1.4l2.6,2.6c0.2,0.2,0.4,0.1,0.5,0c0.1-0.2,0.1-0.5-0.1-0.6l-1.9-1.9H21.3z"/>
								<path class="st3" d="M18.8-1.4l0.9,0.9c0.2,0.2,0.4,0.1,0.5,0c0.1-0.2,0.1-0.5-0.1-0.6l-0.2-0.2H18.8z"/>
							</g>
						</g>
					</g>
					<g>
						<g>
							<path class="st3" d="M0,0.8c-0.1,0.2,0.1,0.5,0.3,0.7l14.9,14.9c0.3,0.3,0.5,0.4,0.6,0.2l0,0c0.1-0.1,0-0.4-0.3-0.7L0.6,1
								C0.3,0.7,0.1,0.6,0,0.8L0,0.8z"/>
							<path class="st3" d="M4.6,6.9C4.5,7,4.7,7.3,4.9,7.6l14.8,14.8c0.2,0.2,0.5,0.4,0.6,0.2l0,0c0.1-0.1,0-0.4-0.3-0.7L5.2,7.1
								C4.9,6.8,4.7,6.7,4.6,6.9L4.6,6.9z"/>
							<path class="st3" d="M-0.9,3C-1,3.2-0.9,3.5-0.6,3.7L14,18.3c0.2,0.2,0.5,0.3,0.6,0.2l0,0c0.1-0.1,0-0.4-0.3-0.7L-0.4,3.2
								C-0.6,3-0.9,2.9-0.9,3L-0.9,3z"/>
							<g>
								<path class="st3" d="M7.3,13.5c-0.1,0.1,0,0.3,0.1,0.5l7.6,7.6c0.1,0.1,0.3,0.1,0.4,0l0,0c0.1-0.1,0-0.3-0.1-0.4l-7.7-7.7
									C7.5,13.4,7.4,13.4,7.3,13.5L7.3,13.5z"/>
								<path class="st3" d="M9.4,16.9c-0.1,0.1,0,0.3,0.1,0.4l7.5,7.5c0.1,0.1,0.3,0.1,0.4,0l0,0c0.1-0.1,0.1-0.3-0.1-0.4L9.8,17
									C9.6,16.8,9.5,16.8,9.4,16.9L9.4,16.9z"/>
								<path class="st3" d="M6.2,15.3c-0.1,0.1,0,0.3,0.1,0.4l7.5,7.5c0.1,0.1,0.3,0.1,0.4,0l0,0c0.1-0.1,0-0.3-0.1-0.4l-7.5-7.5
									C6.5,15.2,6.3,15.2,6.2,15.3L6.2,15.3z"/>
							</g>
							<g>
								<path class="st3" d="M-1.2,5.3l6.6,6.6c0.1,0.1,0.3,0.1,0.4,0c0.1-0.1,0-0.3-0.1-0.5l-6.9-6.9V5.3z"/>
								<path class="st3" d="M-0.2,7.4c-0.1,0.1,0,0.3,0.1,0.5l7.5,7.6c0.1,0.1,0.3,0.1,0.4,0l0,0c0.1-0.1,0-0.3-0.1-0.5L0.2,7.4
									C0,7.2-0.1,7.2-0.2,7.4L-0.2,7.4z"/>
								<path class="st3" d="M-1.2,8.2l5.6,5.6c0.1,0.1,0.3,0.1,0.3,0c0.1-0.1,0-0.3-0.1-0.5l-5.8-5.8V8.2z"/>
							</g>
							<g>
								<path class="st3" d="M-1.2,1.6l1.5,1.5c0.1,0.1,0.3,0.1,0.4,0c0.1-0.1,0-0.4-0.1-0.5l-1.7-1.7V1.6z"/>
							</g>
							<g>
								<path class="st3" d="M20.1,20.9c-0.1,0.1-0.1,0.3,0.1,0.5l8,8c0.1,0.1,0.3,0.2,0.4,0.1l0,0c0.1-0.1,0.1-0.3,0-0.4l-8-8
									C20.4,20.8,20.2,20.8,20.1,20.9L20.1,20.9z"/>
								<path class="st3" d="M22.2,24.4c-0.1,0.1-0.1,0.3,0.1,0.4l7.9,7.9c0.1,0.1,0.3,0.2,0.4,0.1l0,0c0.1-0.1,0.1-0.3,0-0.4
									l-7.9-7.9C22.4,24.3,22.3,24.3,22.2,24.4L22.2,24.4z"/>
								<path class="st3" d="M18.7,22.6c-0.1,0.1-0.1,0.3,0.1,0.4l7.8,7.8c0.1,0.1,0.3,0.2,0.4,0.1l0,0c0.1-0.1,0.1-0.3,0-0.4
									l-7.8-7.8C19,22.5,18.8,22.5,18.7,22.6L18.7,22.6z"/>
							</g>
							<g>
								<path class="st3" d="M17,23c-0.1,0.1-0.1,0.3,0.1,0.4l7.6,7.6c0.1,0.1,0.3,0.2,0.4,0.1l0,0c0.1-0.1,0.1-0.3-0.1-0.4
									l-7.7-7.7C17.3,22.9,17.1,22.9,17,23L17,23z"/>
								<path class="st3" d="M19,26.4c-0.1,0.1-0.1,0.3,0.1,0.4l7.6,7.6c0.1,0.1,0.3,0.2,0.4,0.1l0,0c0.1-0.1,0.1-0.3,0-0.4
									l-7.6-7.6C19.2,26.3,19.1,26.3,19,26.4L19,26.4z"/>
								<path class="st3" d="M15.7,24.7c-0.1,0.1,0,0.3,0.1,0.4l7.5,7.5c0.1,0.1,0.3,0.2,0.4,0.1l0,0c0.1-0.1,0.1-0.3-0.1-0.4
									l-7.5-7.5C16,24.6,15.8,24.5,15.7,24.7L15.7,24.7z"/>
							</g>
							<g>
								<path class="st3" d="M16.4,11.8c-0.1,0.1-0.1,0.4,0.1,0.5l8.3,8.3c0.1,0.1,0.3,0.2,0.5,0l0,0c0.1-0.1,0.1-0.3-0.1-0.5
									l-8.4-8.4C16.7,11.6,16.5,11.6,16.4,11.8L16.4,11.8z"/>
								<path class="st3" d="M18.6,15.5c-0.1,0.1-0.1,0.3,0.1,0.5l8.2,8.2c0.1,0.1,0.3,0.2,0.5,0l0,0c0.1-0.1,0.1-0.3,0-0.5L19,15.6
									C18.9,15.4,18.7,15.4,18.6,15.5L18.6,15.5z"/>
								<path class="st3" d="M15,13.8c-0.1,0.1,0,0.4,0.1,0.5l8.1,8.1c0.1,0.1,0.3,0.2,0.4,0l0,0c0.1-0.1,0.1-0.3-0.1-0.5l-8.2-8.2
									C15.3,13.7,15.1,13.7,15,13.8L15,13.8z"/>
							</g>
							<g>
								<path class="st3" d="M6.2,1.6C6.1,1.8,6.2,2,6.3,2.2l8.3,8.3c0.1,0.1,0.3,0.1,0.4,0l0,0c0.1-0.1,0.1-0.4-0.1-0.5L6.6,1.6
									C6.5,1.5,6.3,1.5,6.2,1.6L6.2,1.6z"/>
								<path class="st3" d="M8.5,5.5c-0.1,0.1,0,0.4,0.1,0.5l8.2,8.2c0.1,0.1,0.3,0.1,0.4,0l0,0c0.1-0.1,0.1-0.4-0.1-0.5L8.9,5.5
									C8.8,5.4,8.6,5.4,8.5,5.5L8.5,5.5z"/>
								<path class="st3" d="M5.1,4C5,4.1,5.1,4.4,5.2,4.5l8.1,8.1c0.1,0.1,0.3,0.1,0.4,0l0,0c0.1-0.1,0-0.4-0.1-0.5L5.5,4
									C5.3,3.8,5.2,3.8,5.1,4L5.1,4z"/>
							</g>
							<g>
								<path class="st3" d="M2.8-1.4l1.5,1.5c0.1,0.1,0.3,0.1,0.4,0c0.1-0.2,0-0.4-0.1-0.5L3.6-1.4H2.8z"/>
								<path class="st3" d="M1.2-1.4L6.5,4c0.1,0.1,0.3,0.1,0.4,0c0.1-0.2,0-0.4-0.1-0.5L2-1.4H1.2z"/>
								<path class="st3" d="M-0.7-1.4l3.8,3.8c0.1,0.1,0.3,0.1,0.4,0c0.1-0.2,0-0.4-0.1-0.5L0.1-1.4H-0.7z"/>
							</g>
						</g>
						<g>
							<path class="st3" d="M5.5,20.4c-0.1,0.1,0.1,0.4,0.3,0.6l13.3,13.3c0.2,0.2,0.5,0.3,0.6,0.3l0,0c0.1-0.1,0-0.3-0.3-0.6
								L6.1,20.6C5.8,20.4,5.6,20.3,5.5,20.4L5.5,20.4z"/>
							<path class="st3" d="M9.6,25.6c-0.1,0.1,0.1,0.4,0.3,0.6L23,39.3c0.2,0.2,0.5,0.3,0.6,0.3l0,0c0.1-0.1,0-0.3-0.2-0.5
								L10.1,25.8C9.9,25.6,9.7,25.5,9.6,25.6L9.6,25.6z"/>
							<path class="st3" d="M4.6,21.9c-0.1,0.1,0.1,0.4,0.3,0.6l13,13c0.2,0.2,0.5,0.3,0.5,0.3l0,0c0.1-0.1,0-0.3-0.3-0.5L5.1,22.1
								C4.9,21.9,4.6,21.8,4.6,21.9L4.6,21.9z"/>
							<g>
								<path class="st3" d="M11.9,31c-0.1,0.1,0,0.2,0.1,0.4l6.8,6.8c0.1,0.1,0.3,0.1,0.4,0.1l0,0c0.1-0.1,0.1-0.2-0.1-0.3L12.2,31
									C12.1,30.9,11.9,30.9,11.9,31L11.9,31z"/>
								<path class="st3" d="M13.7,33.9c-0.1,0.1,0,0.2,0.1,0.4l6.7,6.7c0.1,0.1,0.3,0.1,0.4,0.1l0,0c0.1-0.1,0.1-0.2-0.1-0.3
									L14,33.9C13.9,33.8,13.8,33.8,13.7,33.9L13.7,33.9z"/>
								<path class="st3" d="M10.8,32.2c-0.1,0.1,0,0.2,0.1,0.4l6.7,6.7c0.1,0.1,0.3,0.1,0.3,0.1l0,0c0.1-0.1,0-0.2-0.1-0.3
									l-6.7-6.7C11,32.2,10.9,32.2,10.8,32.2L10.8,32.2z"/>
							</g>
							<g>
								<path class="st3" d="M3.2,22.3c-0.1,0.1,0,0.3,0.1,0.4l6.8,6.8c0.1,0.1,0.3,0.1,0.3,0l0,0c0.1-0.1,0-0.3-0.1-0.4l-6.9-6.9
									C3.4,22.2,3.3,22.2,3.2,22.3L3.2,22.3z"/>
								<path class="st3" d="M5.1,25.3c-0.1,0.1,0,0.3,0.1,0.4l6.7,6.7c0.1,0.1,0.3,0.1,0.3,0.1l0,0c0.1-0.1,0-0.2-0.1-0.4l-6.8-6.8
									C5.3,25.2,5.2,25.2,5.1,25.3L5.1,25.3z"/>
								<path class="st3" d="M2.4,23.8c-0.1,0.1,0,0.3,0.1,0.4l6.7,6.7c0.1,0.1,0.3,0.1,0.3,0.1l0,0c0.1-0.1,0-0.2-0.1-0.4l-6.7-6.7
									C2.6,23.7,2.4,23.7,2.4,23.8L2.4,23.8z"/>
							</g>
							<g>
								<path class="st3" d="M-1.2,14l5,5c0.1,0.1,0.3,0.1,0.3,0c0.1-0.1,0-0.3-0.1-0.4l-5.2-5.2V14z"/>
								<path class="st3" d="M-1.2,15.2l7,7c0.1,0.1,0.3,0.1,0.3,0c0.1-0.1,0-0.3-0.1-0.4l-7-7c0,0-0.1-0.1-0.1-0.1V15.2z"/>
								<path class="st3" d="M-1.2,16.5l4.1,4.1c0.1,0.1,0.3,0.1,0.3,0c0.1-0.1,0-0.3-0.1-0.4l-4.3-4.3V16.5z"/>
							</g>
							<g>
								<path class="st3" d="M23.4,38.2c-0.1,0.1-0.1,0.2,0.1,0.4l7.1,7.1c0.1,0.1,0.3,0.2,0.4,0.1l0,0c0.1-0.1,0.1-0.2,0-0.3
									l-7.1-7.1C23.7,38.2,23.5,38.2,23.4,38.2L23.4,38.2z"/>
								<path class="st3" d="M25.2,41.2c-0.1,0.1-0.1,0.2,0,0.3l7,7c0.1,0.1,0.3,0.2,0.4,0.1l0,0c0.1-0.1,0.1-0.2,0-0.3l-7.1-7.1
									C25.5,41.1,25.3,41.1,25.2,41.2L25.2,41.2z"/>
								<path class="st3" d="M22.1,39.4c-0.1,0.1-0.1,0.2,0.1,0.3l6.9,6.9c0.1,0.1,0.3,0.2,0.4,0.1l0,0c0.1-0.1,0.1-0.2,0-0.3l-7-7
									C22.3,39.4,22.2,39.3,22.1,39.4L22.1,39.4z"/>
							</g>
							<g>
								<path class="st3" d="M20.5,39.5c-0.1,0.1-0.1,0.2,0.1,0.3l6.8,6.8c0.1,0.1,0.3,0.2,0.4,0.1l0,0c0.1-0.1,0.1-0.2,0-0.3
									l-6.9-6.9C20.8,39.4,20.6,39.4,20.5,39.5L20.5,39.5z"/>
								<path class="st3" d="M22.3,42.3c-0.1,0.1-0.1,0.2,0.1,0.3l6.8,6.8c0.1,0.1,0.3,0.2,0.4,0.1l0,0c0.1-0.1,0.1-0.2,0-0.3
									l-6.8-6.8C22.5,42.3,22.3,42.2,22.3,42.3L22.3,42.3z"/>
								<path class="st3" d="M19.3,40.6c-0.1,0.1-0.1,0.2,0.1,0.3l6.7,6.7c0.1,0.1,0.3,0.2,0.4,0.1l0,0c0.1-0.1,0.1-0.2,0-0.3
									l-6.7-6.7C19.5,40.5,19.4,40.5,19.3,40.6L19.3,40.6z"/>
							</g>
							<g>
								<path class="st3" d="M20.3,30.8c-0.1,0.1-0.1,0.3,0.1,0.4l7.4,7.4c0.1,0.1,0.3,0.2,0.4,0.1l0,0c0.1-0.1,0.1-0.2,0-0.4
									l-7.4-7.4C20.5,30.8,20.4,30.7,20.3,30.8L20.3,30.8z"/>
								<path class="st3" d="M22.2,34c-0.1,0.1-0.1,0.3,0.1,0.4l7.3,7.3c0.1,0.1,0.3,0.2,0.4,0.1l0,0c0.1-0.1,0.1-0.2,0-0.4L22.5,34
									C22.4,33.9,22.2,33.9,22.2,34L22.2,34z"/>
								<path class="st3" d="M18.9,32.2c-0.1,0.1-0.1,0.3,0.1,0.4l7.2,7.2c0.1,0.1,0.3,0.2,0.4,0.1l0,0c0.1-0.1,0.1-0.2,0-0.4
									l-7.2-7.2C19.2,32.1,19,32.1,18.9,32.2L18.9,32.2z"/>
							</g>
							<g>
								<path class="st3" d="M11.3,21.9c-0.1,0.1,0,0.3,0.1,0.4l7.4,7.4c0.1,0.1,0.3,0.1,0.4,0.1l0,0c0.1-0.1,0.1-0.3-0.1-0.4
									l-7.4-7.4C11.5,21.8,11.3,21.8,11.3,21.9L11.3,21.9z"/>
								<path class="st3" d="M13.2,25.1c-0.1,0.1,0,0.3,0.1,0.4l7.3,7.3c0.1,0.1,0.3,0.2,0.4,0.1l0,0c0.1-0.1,0.1-0.3-0.1-0.4
									l-7.3-7.3C13.5,25,13.3,25,13.2,25.1L13.2,25.1z"/>
								<path class="st3" d="M10.1,23.5c-0.1,0.1,0,0.3,0.1,0.4l7.2,7.2c0.1,0.1,0.3,0.1,0.4,0.1l0,0c0.1-0.1,0.1-0.3-0.1-0.4
									l-7.2-7.2C10.4,23.4,10.2,23.4,10.1,23.5L10.1,23.5z"/>
							</g>
							<g>
								<path class="st3" d="M2,12.6c-0.1,0.1,0,0.3,0.1,0.4l7.4,7.4c0.1,0.1,0.3,0.1,0.4,0l0,0c0.1-0.1,0-0.3-0.1-0.4l-7.4-7.4
									C2.2,12.5,2.1,12.5,2,12.6L2,12.6z"/>
								<path class="st3" d="M4.1,16c-0.1,0.1,0,0.3,0.1,0.4l7.3,7.3c0.1,0.1,0.3,0.1,0.4,0l0,0c0.1-0.1,0-0.3-0.1-0.4L4.4,16
									C4.3,15.8,4.1,15.8,4.1,16L4.1,16z"/>
								<path class="st3" d="M1.1,14.4c-0.1,0.1,0,0.3,0.1,0.4L8.4,22c0.1,0.1,0.3,0.1,0.3,0l0,0c0.1-0.1,0-0.3-0.1-0.4l-7.2-7.2
									C1.3,14.3,1.2,14.3,1.1,14.4L1.1,14.4z"/>
							</g>
						</g>
					</g>
				</g>
				<g>
					<g>
						<g>
							<path class="st3" d="M9.7,36.2c-0.1,0.1,0.1,0.3,0.3,0.5l11.9,11.9c0.2,0.2,0.4,0.3,0.5,0.3l0,0c0.1-0.1,0-0.3-0.2-0.5
								L10.1,36.4C9.9,36.2,9.7,36.1,9.7,36.2L9.7,36.2z"/>
							<path class="st3" d="M13.3,40.7c-0.1,0.1,0,0.3,0.2,0.5l10.2,10.2h0.5L13.7,41C13.5,40.8,13.3,40.7,13.3,40.7z"/>
							<path class="st3" d="M8.7,37.3c-0.1,0.1,0.1,0.3,0.2,0.5l11.6,11.6c0.2,0.2,0.4,0.3,0.5,0.3l0,0c0.1-0.1,0-0.3-0.2-0.5
								L9.2,37.5C9,37.3,8.8,37.2,8.7,37.3L8.7,37.3z"/>
							<g>
								<path class="st3" d="M15.2,45.2c-0.1,0.1,0,0.2,0.1,0.3l5.9,5.9h0.5l-6.1-6.1C15.4,45.1,15.3,45.1,15.2,45.2z"/>
								<path class="st3" d="M16.8,47.6c-0.1,0.1,0,0.2,0.1,0.3l3.5,3.5h0.4l-3.7-3.7C17,47.6,16.9,47.6,16.8,47.6z"/>
								<path class="st3" d="M14.2,46c-0.1,0.1,0,0.2,0.1,0.3l5.1,5.1h0.4l-5.3-5.3C14.4,46,14.2,46,14.2,46z"/>
							</g>
							<g>
								<path class="st3" d="M7.5,37.4c-0.1,0.1,0,0.2,0.1,0.3l6.1,6.1c0.1,0.1,0.2,0.1,0.3,0.1l0,0c0.1-0.1,0-0.2-0.1-0.3l-6.2-6.2
									C7.6,37.4,7.5,37.3,7.5,37.4L7.5,37.4z"/>
								<path class="st3" d="M9.1,40c-0.1,0.1,0,0.2,0.1,0.3l6.1,6.1c0.1,0.1,0.2,0.1,0.3,0.1l0,0c0.1-0.1,0-0.2-0.1-0.3L9.4,40
									C9.3,39.9,9.2,39.9,9.1,40L9.1,40z"/>
								<path class="st3" d="M6.6,38.4c-0.1,0.1,0,0.2,0.1,0.3l6,6c0.1,0.1,0.2,0.1,0.3,0.1l0,0c0.1-0.1,0-0.2-0.1-0.3l-6-6
									C6.8,38.4,6.6,38.4,6.6,38.4L6.6,38.4z"/>
							</g>
							<g>
								<path class="st3" d="M1.6,28.2c-0.1,0.1,0,0.2,0.1,0.3l6.3,6.3C8.2,35,8.3,35.1,8.4,35l0,0c0.1-0.1,0-0.2-0.1-0.3l-6.4-6.4
									C1.8,28.2,1.7,28.2,1.6,28.2L1.6,28.2z"/>
								<path class="st3" d="M3.4,31c-0.1,0.1,0,0.2,0.1,0.3l6.3,6.3c0.1,0.1,0.2,0.1,0.3,0.1l0,0c0.1-0.1,0-0.2-0.1-0.3L3.7,31
									C3.6,30.9,3.5,30.9,3.4,31L3.4,31z"/>
								<path class="st3" d="M0.9,29.5c0,0.1,0,0.2,0.1,0.3L7.2,36c0.1,0.1,0.2,0.1,0.3,0.1l0,0c0.1-0.1,0-0.2-0.1-0.3l-6.2-6.2
									C1,29.4,0.9,29.4,0.9,29.5L0.9,29.5z"/>
							</g>
							<g>
								<path class="st3" d="M22.9,46.1c-0.1,0.1-0.1,0.2,0.1,0.3l5,5h0.5l-5.2-5.2C23.2,46,23,46,22.9,46.1z"/>
								<path class="st3" d="M24.6,48.7c-0.1,0.1-0.1,0.2,0,0.3l2.4,2.4h0.5l-2.6-2.6C24.8,48.7,24.7,48.6,24.6,48.7z"/>
								<path class="st3" d="M21.7,47c-0.1,0.1-0.1,0.2,0.1,0.3l4.1,4.1h0.5L22,47.1C21.9,47,21.8,46.9,21.7,47z"/>
							</g>
							<g>
								<path class="st3" d="M14.9,38.1c-0.1,0.1,0,0.2,0.1,0.3l6.6,6.6c0.1,0.1,0.3,0.1,0.3,0.1l0,0c0.1-0.1,0.1-0.2-0.1-0.3
									l-6.6-6.6C15.1,38,15,38,14.9,38.1L14.9,38.1z"/>
								<path class="st3" d="M16.6,40.8c-0.1,0.1,0,0.2,0.1,0.3l6.5,6.5c0.1,0.1,0.3,0.2,0.3,0.1l0,0c0.1-0.1,0.1-0.2,0-0.3
									l-6.5-6.5C16.8,40.8,16.7,40.7,16.6,40.8L16.6,40.8z"/>
								<path class="st3" d="M13.8,39.1c-0.1,0.1,0,0.2,0.1,0.3l6.4,6.4c0.1,0.1,0.3,0.1,0.3,0.1l0,0c0.1-0.1,0.1-0.2-0.1-0.3
									l-6.5-6.5C14,39.1,13.9,39.1,13.8,39.1L13.8,39.1z"/>
							</g>
							<g>
								<path class="st3" d="M6.7,29.8c-0.1,0.1,0,0.2,0.1,0.4l6.6,6.6c0.1,0.1,0.3,0.1,0.3,0.1l0,0c0.1-0.1,0-0.2-0.1-0.3L7,29.9
									C6.9,29.8,6.7,29.7,6.7,29.8L6.7,29.8z"/>
								<path class="st3" d="M8.5,32.6c-0.1,0.1,0,0.2,0.1,0.3l6.5,6.5c0.1,0.1,0.3,0.1,0.3,0.1l0,0c0.1-0.1,0-0.2-0.1-0.3l-6.5-6.5
									C8.7,32.6,8.5,32.6,8.5,32.6L8.5,32.6z"/>
								<path class="st3" d="M5.8,31.1c-0.1,0.1,0,0.2,0.1,0.3l6.4,6.4c0.1,0.1,0.2,0.1,0.3,0.1l0,0c0.1-0.1,0-0.2-0.1-0.3l-6.5-6.5
									C5.9,31,5.8,31,5.8,31.1L5.8,31.1z"/>
							</g>
						</g>
						<g>
							<path class="st3" d="M13.3,48.9c-0.1,0.1,0,0.2,0.2,0.4l2.1,2.1H16l-2.3-2.3C13.6,49,13.4,48.8,13.3,48.9z"/>
							<path class="st3" d="M12.4,49.6c-0.1,0,0,0.2,0.2,0.4l1.3,1.3h0.4l-1.5-1.5C12.6,49.7,12.4,49.6,12.4,49.6z"/>
							<g>
								<path class="st3" d="M11.2,49.6c-0.1,0,0,0.2,0.1,0.3l1.5,1.5h0.4l-1.7-1.7C11.4,49.6,11.2,49.6,11.2,49.6z"/>
								<path class="st3" d="M10.3,50.3c-0.1,0,0,0.2,0.1,0.3l0.8,0.8h0.4l-1-1C10.5,50.3,10.4,50.3,10.3,50.3z"/>
							</g>
							<g>
								<path class="st3" d="M6,41.7c-0.1,0.1,0,0.2,0.1,0.3l5.8,5.8c0.1,0.1,0.2,0.1,0.3,0.1l0,0c0.1-0.1,0-0.2-0.1-0.3l-5.8-5.8
									C6.2,41.6,6.1,41.6,6,41.7L6,41.7z"/>
								<path class="st3" d="M7.6,44c-0.1,0.1,0,0.2,0.1,0.3l5.7,5.7c0.1,0.1,0.2,0.1,0.3,0.1l0,0c0.1,0,0-0.2-0.1-0.3l-5.7-5.7
									C7.8,44,7.6,44,7.6,44L7.6,44z"/>
								<path class="st3" d="M5.2,42.6c0,0.1,0,0.2,0.1,0.3l5.7,5.7c0.1,0.1,0.2,0.1,0.3,0.1l0,0c0.1-0.1,0-0.2-0.1-0.3l-5.7-5.7
									C5.4,42.5,5.3,42.5,5.2,42.6L5.2,42.6z"/>
							</g>
							<g>
								<path class="st3" d="M18.2,51c-0.1,0,0,0.2,0.1,0.3l0.1,0.1h0.4l-0.3-0.3C18.4,51,18.2,50.9,18.2,51z"/>
							</g>
							<g>
								<path class="st3" d="M10.7,43.5c-0.1,0.1,0,0.2,0.1,0.3l5.9,5.9c0.1,0.1,0.2,0.1,0.3,0.1l0,0c0.1-0.1,0-0.2-0.1-0.3l-6-6
									C10.9,43.5,10.7,43.5,10.7,43.5L10.7,43.5z"/>
								<path class="st3" d="M12.3,45.9c-0.1,0.1,0,0.2,0.1,0.3l5.2,5.2h0.4L12.6,46C12.5,45.9,12.3,45.9,12.3,45.9z"/>
								<path class="st3" d="M9.8,44.4c-0.1,0.1,0,0.2,0.1,0.3l5.8,5.8c0.1,0.1,0.2,0.1,0.3,0.1l0,0c0.1,0,0-0.2-0.1-0.3l-5.9-5.9
									C10,44.4,9.8,44.3,9.8,44.4L9.8,44.4z"/>
							</g>
						</g>
					</g>
					<g>
						<g>
							<g>
								<path class="st3" d="M3,46.5c0,0,0,0.2,0.1,0.3l4.6,4.6h0.3l-4.8-4.8C3.2,46.5,3.1,46.5,3,46.5z"/>
								<path class="st3" d="M4.5,48.7c0,0,0,0.2,0.1,0.2l2.5,2.5h0.3l-2.6-2.6C4.7,48.7,4.6,48.6,4.5,48.7z"/>
								<path class="st3" d="M2.4,47.3c0,0,0,0.2,0.1,0.2l3.9,3.9h0.3l-4-4C2.5,47.3,2.4,47.2,2.4,47.3z"/>
							</g>
							<g>
								<path class="st3" d="M7.2,48.4c0,0,0,0.2,0.1,0.3l2.8,2.8h0.4l-2.9-2.9C7.4,48.4,7.3,48.3,7.2,48.4z"/>
								<path class="st3" d="M8.7,50.5c-0.1,0,0,0.2,0.1,0.2l0.6,0.6h0.4L9,50.6C8.9,50.5,8.7,50.5,8.7,50.5z"/>
								<path class="st3" d="M6.5,49.1c0,0,0,0.2,0.1,0.2l2.1,2.1h0.3l-2.2-2.2C6.6,49.1,6.5,49,6.5,49.1z"/>
							</g>
						</g>
					</g>
				</g>
				<g>
					<g>
						<g>
							<polygon class="st3" points="51.2,7.8 42,-1.4 40.6,-1.4 51.2,9.2 							"/>
							<path class="st3" d="M51.2,10.5L44,3.3c-0.3-0.3-0.8-0.4-0.9-0.3c-0.2,0.2-0.1,0.6,0.3,1l7.9,7.9V10.5z"/>
							<path class="st3" d="M51.2,13.6L36.3-1.4H35c0.1,0.1,0.1,0.2,0.2,0.3l16,16V13.6z"/>
							<g>
								<path class="st3" d="M51.2,17.5L45.7,12c-0.2-0.2-0.5-0.2-0.6,0c-0.2,0.2-0.2,0.4,0,0.6l6.2,6.2V17.5z"/>
								<path class="st3" d="M51.2,19.9l-3.4-3.4c-0.2-0.2-0.5-0.2-0.6,0c-0.2,0.2-0.2,0.4,0,0.6l4,4V19.9z"/>
								<path class="st3" d="M51.2,22.7L43,14.5c-0.2-0.2-0.4-0.2-0.6,0c-0.2,0.2-0.2,0.4,0,0.6l8.8,8.8V22.7z"/>
							</g>
							<g>
								<path class="st3" d="M32.2-0.9c-0.1,0.2-0.1,0.5,0,0.7L42.4,9.9c0.2,0.2,0.4,0.2,0.6,0l0,0c0.2-0.2,0.2-0.5,0-0.6L32.8-0.9
									C32.6-1.1,32.4-1.1,32.2-0.9L32.2-0.9z"/>
								<path class="st3" d="M34.6,3.9c-0.2,0.2-0.1,0.5,0,0.6l10,10c0.2,0.2,0.4,0.2,0.6,0l0,0c0.2-0.2,0.2-0.4,0-0.6L35.2,3.8
									C35,3.7,34.8,3.7,34.6,3.9L34.6,3.9z"/>
								<path class="st3" d="M30,2c-0.1,0.2-0.1,0.5,0,0.6l9.8,9.8c0.2,0.2,0.4,0.2,0.6,0l0,0c0.2-0.2,0.2-0.4,0-0.6L30.6,2
									C30.4,1.8,30.1,1.8,30,2L30,2z"/>
							</g>
							<g>
								<polygon class="st3" points="51.2,-1.4 50.4,-1.4 51.2,-0.6 								"/>
								<path class="st3" d="M51.2,0.9C51,0.7,50.7,0.8,50.6,1c-0.2,0.2-0.2,0.5,0,0.7l0.7,0.7V0.9z"/>
								<path class="st3" d="M51.2,4.3l-5.4-5.4c-0.2-0.2-0.5-0.2-0.7,0.1c-0.2,0.2-0.2,0.5,0,0.7l6.1,6.1V4.3z"/>
							</g>
							<g>
								<path class="st3" d="M47.4-1.4l0.3,0.3c0.2,0.2,0.5,0.2,0.7-0.1c0.1-0.1,0.1-0.1,0.1-0.2H47.4z"/>
							</g>
						</g>
						<g>
							<path class="st3" d="M51.2,32.5L40,21.3c-0.3-0.3-0.6-0.4-0.8-0.3c-0.1,0.1,0,0.5,0.3,0.8l11.7,11.7V32.5z"/>
							<path class="st3" d="M51.2,34.4l-6.4-6.4c-0.3-0.3-0.6-0.4-0.8-0.3c-0.2,0.1,0,0.5,0.2,0.7l7,7V34.4z"/>
							<path class="st3" d="M51.2,36.7L37.8,23.3C37.5,23,37.1,22.9,37,23c-0.1,0.1,0,0.5,0.3,0.7l13.9,13.9V36.7z"/>
							<g>
								<path class="st3" d="M51.2,39.6l-5-5c-0.1-0.1-0.4-0.2-0.5-0.1c-0.2,0.1-0.2,0.3,0,0.5l5.5,5.5V39.6z"/>
								<path class="st3" d="M51.2,41.4l-3.1-3.1c-0.1-0.1-0.4-0.2-0.5-0.1c-0.2,0.1-0.2,0.3,0,0.4l3.7,3.7V41.4z"/>
								<path class="st3" d="M51.2,43.5l-7.3-7.3c-0.1-0.1-0.4-0.2-0.5-0.1c-0.1,0.1-0.1,0.3,0,0.4l7.8,7.8V43.5z"/>
							</g>
							<g>
								<path class="st3" d="M34.6,23.5c-0.1,0.1-0.1,0.3,0,0.5l8.7,8.7c0.1,0.1,0.4,0.2,0.5,0.1l0,0c0.1-0.1,0.2-0.3,0-0.5
									l-8.8-8.8C35,23.4,34.8,23.4,34.6,23.5L34.6,23.5z"/>
								<path class="st3" d="M36.6,27.3c-0.1,0.1-0.1,0.3,0,0.5l8.6,8.6c0.1,0.1,0.4,0.2,0.5,0.1l0,0c0.2-0.1,0.2-0.3,0-0.4
									l-8.7-8.7C37,27.2,36.8,27.2,36.6,27.3L36.6,27.3z"/>
								<path class="st3" d="M32.6,25.3c-0.1,0.1-0.1,0.3,0,0.5l8.5,8.5c0.1,0.1,0.4,0.2,0.5,0.1l0,0c0.1-0.1,0.1-0.3,0-0.4
									l-8.5-8.5C33,25.2,32.8,25.2,32.6,25.3L32.6,25.3z"/>
							</g>
							<g>
								<path class="st3" d="M27.6,9.5c-0.1,0.2-0.1,0.4,0.1,0.6l9.2,9.2c0.2,0.2,0.4,0.2,0.5,0l0,0c0.1-0.1,0.1-0.4,0-0.5l-9.2-9.2
									C27.9,9.4,27.7,9.4,27.6,9.5L27.6,9.5z"/>
								<path class="st3" d="M29.8,13.7c-0.1,0.1-0.1,0.4,0,0.5l9,9c0.2,0.2,0.4,0.2,0.5,0l0,0c0.1-0.1,0.1-0.4,0-0.5l-9.1-9.1
									C30.2,13.6,29.9,13.6,29.8,13.7L29.8,13.7z"/>
								<path class="st3" d="M25.7,11.9c-0.1,0.1-0.1,0.4,0.1,0.5l8.9,8.9c0.2,0.2,0.4,0.2,0.5,0l0,0c0.1-0.1,0.1-0.4,0-0.5l-9-9
									C26,11.7,25.8,11.7,25.7,11.9L25.7,11.9z"/>
							</g>
							<g>
								<path class="st3" d="M51.2,25.3L49,23.1c-0.2-0.2-0.4-0.2-0.6,0c-0.2,0.1-0.2,0.4,0,0.5l2.8,2.8V25.3z"/>
								<path class="st3" d="M51.2,27.4L51,27.3c-0.2-0.2-0.4-0.2-0.6-0.1c-0.2,0.1-0.2,0.4,0,0.5l0.8,0.8V27.4z"/>
								<path class="st3" d="M51.2,29.9l-4.8-4.8c-0.2-0.2-0.4-0.2-0.6-0.1c-0.2,0.1-0.2,0.4,0,0.5l5.4,5.4V29.9z"/>
							</g>
							<g>
								<path class="st3" d="M36.3,10.9c-0.1,0.2-0.1,0.4,0,0.6l9.6,9.6c0.2,0.2,0.4,0.2,0.6,0l0,0c0.2-0.1,0.2-0.4,0-0.6l-9.7-9.7
									C36.7,10.7,36.4,10.7,36.3,10.9L36.3,10.9z"/>
								<path class="st3" d="M38.5,15.3c-0.2,0.2-0.1,0.4,0,0.6l9.5,9.5c0.2,0.2,0.4,0.2,0.6,0.1l0,0c0.2-0.1,0.2-0.4,0-0.5L39,15.3
									C38.9,15.1,38.6,15.1,38.5,15.3L38.5,15.3z"/>
								<path class="st3" d="M34,13.3c-0.1,0.2-0.1,0.4,0,0.6l9.3,9.3c0.2,0.2,0.4,0.2,0.6,0l0,0c0.2-0.1,0.2-0.4,0-0.5l-9.4-9.4
									C34.4,13.1,34.2,13.1,34,13.3L34,13.3z"/>
							</g>
						</g>
					</g>
					<g>
						<g>
							<path class="st3" d="M30.3,31.1c-0.1,0.1,0,0.4,0.3,0.6l14.9,14.9c0.3,0.3,0.6,0.4,0.7,0.3l0,0c0.1-0.1,0-0.3-0.2-0.6l-15-15
								C30.8,31.2,30.5,31,30.3,31.1L30.3,31.1z"/>
							<path class="st3" d="M34.6,36.9c-0.1,0.1,0,0.4,0.2,0.6l13.9,13.9h0.8L35.3,37.2C35,36.9,34.7,36.8,34.6,36.9z"/>
							<path class="st3" d="M28.6,32.6c-0.1,0.1,0,0.4,0.3,0.6l14.6,14.6c0.2,0.2,0.6,0.4,0.7,0.3l0,0c0.1-0.1,0-0.3-0.2-0.6
								L29.3,32.9C29,32.6,28.7,32.5,28.6,32.6L28.6,32.6z"/>
							<g>
								<path class="st3" d="M36.3,42.5c-0.1,0.1-0.1,0.2,0,0.4l7.6,7.6c0.1,0.1,0.3,0.2,0.5,0.1l0,0c0.1-0.1,0.1-0.2,0-0.4
									l-7.7-7.7C36.7,42.5,36.5,42.5,36.3,42.5L36.3,42.5z"/>
								<path class="st3" d="M38.1,45.7c-0.1,0.1-0.1,0.2,0,0.4l5.4,5.4h0.7l-5.6-5.6C38.4,45.6,38.2,45.6,38.1,45.7z"/>
								<path class="st3" d="M34.6,43.7c-0.1,0.1-0.1,0.2,0,0.4l7.3,7.3h0.6c0,0,0-0.1-0.1-0.1L35,43.8
									C34.9,43.7,34.7,43.6,34.6,43.7z"/>
							</g>
							<g>
								<path class="st3" d="M26.7,32.9c-0.1,0.1-0.1,0.3,0,0.4l7.6,7.6c0.1,0.1,0.3,0.2,0.4,0.1l0,0c0.1-0.1,0.1-0.3,0-0.4
									l-7.7-7.7C27,32.8,26.8,32.8,26.7,32.9L26.7,32.9z"/>
								<path class="st3" d="M28.6,36.1c-0.1,0.1-0.1,0.3,0,0.4l7.6,7.5c0.1,0.1,0.3,0.2,0.4,0.1l0,0c0.1-0.1,0.1-0.2,0-0.4L29,36.2
									C28.9,36,28.7,36,28.6,36.1L28.6,36.1z"/>
								<path class="st3" d="M25.2,34.2c-0.1,0.1-0.1,0.3,0.1,0.4l7.5,7.5c0.1,0.1,0.3,0.2,0.4,0.1l0,0c0.1-0.1,0.1-0.2,0-0.4
									l-7.5-7.5C25.4,34.2,25.3,34.2,25.2,34.2L25.2,34.2z"/>
							</g>
							<g>
								<path class="st3" d="M20.2,21.1c-0.1,0.1-0.1,0.3,0.1,0.5l8,8c0.1,0.1,0.3,0.2,0.4,0.1l0,0c0.1-0.1,0.1-0.3,0-0.4l-8-8
									C20.5,21,20.3,21,20.2,21.1L20.2,21.1z"/>
								<path class="st3" d="M22.2,24.6c-0.1,0.1-0.1,0.3,0.1,0.4l7.9,7.9c0.1,0.1,0.3,0.2,0.4,0.1l0,0c0.1-0.1,0.1-0.3,0-0.4
									l-7.9-7.9C22.5,24.5,22.3,24.5,22.2,24.6L22.2,24.6z"/>
								<path class="st3" d="M18.8,22.9c-0.1,0.1-0.1,0.3,0.1,0.4l7.8,7.8c0.1,0.1,0.3,0.2,0.4,0.1l0,0c0.1-0.1,0.1-0.3,0-0.4
									l-7.8-7.8C19.1,22.8,18.9,22.8,18.8,22.9L18.8,22.9z"/>
							</g>
							<g>
								<path class="st3" d="M50.5,51.3c-0.1,0-0.1,0.1-0.1,0.1H51l0,0C50.9,51.2,50.6,51.2,50.5,51.3z"/>
							</g>
							<g>
								<path class="st3" d="M51.2,46.1l-2.6-2.6c-0.1-0.1-0.4-0.2-0.5-0.1c-0.1,0.1-0.2,0.3,0,0.4l3.1,3.1V46.1z"/>
								<path class="st3" d="M51.2,47.8l-0.8-0.8c-0.1-0.1-0.4-0.2-0.5-0.1c-0.2,0.1-0.2,0.3,0,0.4l1.4,1.4V47.8z"/>
								<path class="st3" d="M51.2,49.6l-4.8-4.8c-0.1-0.1-0.4-0.2-0.5-0.1c-0.1,0.1-0.1,0.3,0,0.4l5.4,5.4V49.6z"/>
							</g>
							<g>
								<path class="st3" d="M37.9,33.3c-0.1,0.1-0.1,0.3,0,0.4l8.3,8.3c0.1,0.1,0.4,0.2,0.5,0.1l0,0c0.1-0.1,0.2-0.3,0-0.4
									l-8.4-8.4C38.2,33.2,38,33.2,37.9,33.3L37.9,33.3z"/>
								<path class="st3" d="M39.8,36.8c-0.1,0.1-0.1,0.3,0,0.4l8.2,8.2c0.1,0.1,0.4,0.2,0.5,0.1l0,0c0.1-0.1,0.2-0.3,0-0.4
									l-8.3-8.3C40.1,36.7,39.9,36.7,39.8,36.8L39.8,36.8z"/>
								<path class="st3" d="M35.9,34.8c-0.1,0.1-0.1,0.3,0,0.4l8.1,8.1c0.1,0.1,0.4,0.2,0.5,0.1l0,0c0.1-0.1,0.1-0.3,0-0.4
									l-8.1-8.1C36.2,34.7,36,34.7,35.9,34.8L35.9,34.8z"/>
							</g>
							<g>
								<path class="st3" d="M27.4,22.8c-0.1,0.1-0.1,0.3,0.1,0.5l8.3,8.3c0.1,0.1,0.4,0.2,0.5,0.1l0,0c0.1-0.1,0.1-0.3,0-0.4
									l-8.4-8.4C27.7,22.7,27.5,22.7,27.4,22.8L27.4,22.8z"/>
								<path class="st3" d="M29.4,26.5c-0.1,0.1-0.1,0.3,0,0.5l8.2,8.2c0.1,0.1,0.4,0.2,0.5,0.1l0,0c0.1-0.1,0.1-0.3,0-0.4
									l-8.3-8.3C29.8,26.4,29.5,26.4,29.4,26.5L29.4,26.5z"/>
								<path class="st3" d="M25.7,24.6c-0.1,0.1-0.1,0.3,0.1,0.5l8.1,8.1c0.1,0.1,0.3,0.2,0.5,0.1l0,0c0.1-0.1,0.1-0.3,0-0.4
									l-8.1-8.2C26,24.5,25.8,24.5,25.7,24.6L25.7,24.6z"/>
							</g>
						</g>
						<g>
							<path class="st3" d="M32.5,47.3c-0.1,0.1,0,0.3,0.2,0.5l3.6,3.6h0.6l-3.8-3.8C32.9,47.4,32.6,47.3,32.5,47.3z"/>
							<path class="st3" d="M30.9,48.3c-0.1,0.1,0,0.3,0.2,0.5l2.6,2.6h0.6l-2.8-2.8C31.3,48.3,31,48.2,30.9,48.3z"/>
							<g>
								<path class="st3" d="M29.2,48.2c-0.1,0.1-0.1,0.2,0,0.3l2.8,2.8h0.6l-3.1-3.1C29.4,48.2,29.3,48.2,29.2,48.2z"/>
								<path class="st3" d="M30.8,51c-0.1,0.1-0.1,0.2,0,0.3l0.1,0.1h0.6l-0.3-0.3C31.1,51,30.9,50.9,30.8,51z"/>
								<path class="st3" d="M27.7,49.1c-0.1,0.1-0.1,0.2,0,0.3l1.9,1.9h0.5l-2.2-2.2C28,49.1,27.8,49.1,27.7,49.1z"/>
							</g>
							<g>
								<path class="st3" d="M23.5,38.4c-0.1,0.1-0.1,0.2,0.1,0.4l7.1,7.1C30.8,46,30.9,46,31,46l0,0c0.1-0.1,0.1-0.2,0-0.3
									l-7.1-7.1C23.8,38.4,23.6,38.3,23.5,38.4L23.5,38.4z"/>
								<path class="st3" d="M25.3,41.4c-0.1,0.1-0.1,0.2,0,0.3l7,7c0.1,0.1,0.3,0.2,0.4,0.1l0,0c0.1-0.1,0.1-0.2,0-0.3l-7-7
									C25.5,41.3,25.4,41.3,25.3,41.4L25.3,41.4z"/>
								<path class="st3" d="M22.2,39.6c-0.1,0.1-0.1,0.2,0.1,0.3l6.9,6.9c0.1,0.1,0.3,0.2,0.4,0.1l0,0c0.1-0.1,0.1-0.2,0-0.3l-7-7
									C22.4,39.5,22.2,39.5,22.2,39.6L22.2,39.6z"/>
							</g>
							<g>
								<path class="st3" d="M39.2,49.8c-0.1,0.1-0.1,0.2,0,0.3l1.2,1.2h0.7l-1.4-1.4C39.5,49.8,39.3,49.8,39.2,49.8z"/>
								<path class="st3" d="M37.5,50.8c-0.1,0.1-0.1,0.2,0,0.3l0.3,0.3h0.6l-0.5-0.5C37.8,50.8,37.6,50.7,37.5,50.8z"/>
							</g>
							<g>
								<path class="st3" d="M30,40.6c-0.1,0.1-0.1,0.2,0,0.4l7.4,7.4c0.1,0.1,0.3,0.2,0.4,0.1l0,0c0.1-0.1,0.1-0.2,0-0.3l-7.4-7.4
									C30.3,40.6,30.1,40.5,30,40.6L30,40.6z"/>
								<path class="st3" d="M31.7,43.6c-0.1,0.1-0.1,0.2,0,0.4l7.3,7.3c0.1,0.1,0.3,0.2,0.4,0.1l0,0c0.1-0.1,0.1-0.2,0-0.3
									l-7.3-7.3C32,43.6,31.9,43.5,31.7,43.6L31.7,43.6z"/>
								<path class="st3" d="M28.4,41.7c-0.1,0.1-0.1,0.2,0,0.4l7.2,7.2c0.1,0.1,0.3,0.2,0.4,0.1l0,0c0.1-0.1,0.1-0.2,0-0.3
									l-7.2-7.2C28.7,41.7,28.5,41.7,28.4,41.7L28.4,41.7z"/>
							</g>
						</g>
					</g>
				</g>
			</g>
		</g>
	</g>
	<g class="st4">
		<path class="st5" d="M34.7,30.6L25,36.2l-9.7-5.6V19.4l9.7-5.6l9.7,5.6V30.6z M25,12l-11.2,6.5v13L25,38l11.2-6.5v-13L25,12z"/>
		<path class="st6" d="M34.6,30.5L25,36.1l-9.6-5.5V19.5l9.6-5.5l9.6,5.5V30.5z M13.9,18.6v12.9L25,37.9l11.1-6.4V18.6L25,12.1
			L13.9,18.6z"/>
		<path class="st7" d="M34.5,30.5L25,36l-9.5-5.5v-11L25,14l9.5,5.5V30.5z M14,18.6v12.8l11,6.4l11-6.4V18.6l-11-6.4L14,18.6z"/>
		<path class="st8" d="M34.4,30.4L25,35.9l-9.4-5.4V19.5l9.4-5.4l9.4,5.4V30.4z M14,18.7v12.6l11,6.3L36,31.3V18.7l-11-6.3L14,18.7z
			"/>
		<path class="st9" d="M34.4,30.4L25,35.8l-9.4-5.4V19.6l9.4-5.4l9.4,5.4V30.4z M14.1,18.7v12.5L25,37.5l10.9-6.3V18.7L25,12.5
			L14.1,18.7z"/>
		<path class="st10" d="M34.3,30.4L25,35.7l-9.3-5.4V19.6l9.3-5.4l9.3,5.4V30.4z M14.2,18.8v12.4L25,37.4l10.8-6.2V18.8L25,12.6
			L14.2,18.8z"/>
		<path class="st11" d="M34.2,30.3L25,35.6l-9.2-5.3V19.7l9.2-5.3l9.2,5.3V30.3z M14.3,18.8v12.3L25,37.3l10.7-6.2V18.8L25,12.7
			L14.3,18.8z"/>
		<path class="st12" d="M34.1,30.3L25,35.5l-9.1-5.3V19.7l9.1-5.3l9.1,5.3V30.3z M14.4,18.9v12.2L25,37.2l10.6-6.1V18.9L25,12.8
			L14.4,18.9z"/>
		<path class="st13" d="M34,30.2l-9,5.2l-9-5.2V19.8l9-5.2l9,5.2V30.2z M14.5,18.9v12.1L25,37.1l10.5-6.1V18.9L25,12.9L14.5,18.9z"
			/>
		<path class="st14" d="M34,30.2l-9,5.2l-9-5.2V19.8l9-5.2l9,5.2V30.2z M14.6,19v12L25,37l10.4-6V19L25,13L14.6,19z"/>
		<path class="st15" d="M33.9,30.1L25,35.3l-8.9-5.1V19.9l8.9-5.1l8.9,5.1V30.1z M14.7,19v11.9l10.3,6l10.3-6V19L25,13.1L14.7,19z"
			/>
		<path class="st16" d="M33.8,30.1L25,35.2l-8.8-5.1V19.9l8.8-5.1l8.8,5.1V30.1z M14.8,19.1v11.8L25,36.8l10.2-5.9V19.1L25,13.2
			L14.8,19.1z"/>
		<path class="st17" d="M33.7,30l-8.7,5l-8.7-5V20l8.7-5l8.7,5V30z M14.9,19.2v11.7L25,36.7l10.1-5.8V19.2L25,13.3L14.9,19.2z"/>
		<path class="st18" d="M33.6,30L25,35l-8.6-5V20l8.6-5l8.6,5V30z M15,19.2v11.6l10,5.8l10-5.8V19.2l-10-5.8L15,19.2z"/>
		<path class="st19" d="M33.6,29.9L25,34.9l-8.6-4.9v-9.9l8.6-4.9l8.6,4.9V29.9z M15.1,19.3v11.5l9.9,5.7l9.9-5.7V19.3L25,13.5
			L15.1,19.3z"/>
		<path class="st20" d="M33.5,29.9L25,34.8l-8.5-4.9v-9.8l8.5-4.9l8.5,4.9V29.9z M15.2,19.3v11.4l9.8,5.7l9.8-5.7V19.3L25,13.6
			L15.2,19.3z"/>
		<path class="st21" d="M33.4,29.8L25,34.7l-8.4-4.9v-9.7l8.4-4.9l8.4,4.9V29.8z M15.2,19.4v11.3l9.8,5.6l9.8-5.6V19.4L25,13.7
			L15.2,19.4z"/>
		<path class="st22" d="M33.3,29.8L25,34.6l-8.3-4.8v-9.6l8.3-4.8l8.3,4.8V29.8z M15.3,19.4v11.2l9.7,5.6l9.7-5.6V19.4L25,13.8
			L15.3,19.4z"/>
		<path class="st23" d="M33.2,29.8L25,34.5l-8.2-4.8v-9.5l8.2-4.8l8.2,4.8V29.8z M15.4,19.5v11.1L25,36l9.6-5.5V19.5L25,13.9
			L15.4,19.5z"/>
		<path class="st24" d="M33.2,29.7L25,34.4l-8.2-4.7v-9.4l8.2-4.7l8.2,4.7V29.7z M15.5,19.5v10.9l9.5,5.5l9.5-5.5V19.5L25,14.1
			L15.5,19.5z"/>
		<path class="st25" d="M33.1,29.7L25,34.3l-8.1-4.7v-9.3l8.1-4.7l8.1,4.7V29.7z M15.6,19.6v10.8l9.4,5.4l9.4-5.4V19.6L25,14.2
			L15.6,19.6z"/>
		<path class="st26" d="M33,29.6l-8,4.6l-8-4.6v-9.2l8-4.6l8,4.6V29.6z M15.7,19.6v10.7l9.3,5.4l9.3-5.4V19.6L25,14.3L15.7,19.6z"/>
		<path class="st27" d="M32.9,29.6L25,34.2l-7.9-4.6v-9.2l7.9-4.6l7.9,4.6V29.6z M15.8,19.7v10.6l9.2,5.3l9.2-5.3V19.7L25,14.4
			L15.8,19.7z"/>
		<path class="st28" d="M32.8,29.5L25,34.1l-7.8-4.5v-9.1l7.8-4.5l7.8,4.5V29.5z M15.9,19.7v10.5l9.1,5.3l9.1-5.3V19.7L25,14.5
			L15.9,19.7z"/>
		<path class="st29" d="M32.8,29.5L25,34l-7.8-4.5v-9L25,16l7.8,4.5V29.5z M16,19.8v10.4l9,5.2l9-5.2V19.8l-9-5.2L16,19.8z"/>
		<path class="st30" d="M32.7,29.4L25,33.9l-7.7-4.4v-8.9l7.7-4.4l7.7,4.4V29.4z M16.1,19.8v10.3l8.9,5.2l8.9-5.2V19.8L25,14.7
			L16.1,19.8z"/>
		<path class="st31" d="M32.6,20.6v8.8L25,33.8l-7.6-4.4v-8.8l7.6-4.4L32.6,20.6z M16.2,19.9v10.2l8.8,5.1l8.8-5.1V19.9L25,14.8
			L16.2,19.9z"/>
	</g>
	<polygon class="st1" points="25,35.5 15.9,30.3 15.9,19.7 25,14.5 34.1,19.7 34.1,30.3 25.1,35.4 	"/>
	<g class="st32">
		<path class="st33" d="M21.4,25c0,0.4-0.1,0.7-0.3,0.8c-0.2,0.2-0.5,0.3-0.9,0.3h-0.6v-2.2h0.7c0.3,0,0.6,0.1,0.8,0.3
			C21.4,24.4,21.4,24.7,21.4,25z M21.2,25c0-0.3-0.1-0.5-0.2-0.7c-0.1-0.1-0.4-0.2-0.7-0.2h-0.4v1.8h0.3c0.3,0,0.5-0.1,0.7-0.2
			C21.1,25.6,21.2,25.3,21.2,25z"/>
		<path class="st33" d="M23.2,26.2H22v-2.2h1.3v0.2h-1v0.7h0.9v0.2h-0.9v0.8h1V26.2z"/>
		<path class="st33" d="M25,25.6c0,0.2-0.1,0.4-0.2,0.5c-0.1,0.1-0.3,0.2-0.6,0.2c-0.3,0-0.5,0-0.6-0.1v-0.3c0.1,0,0.2,0.1,0.3,0.1
			c0.1,0,0.2,0,0.3,0c0.2,0,0.3,0,0.4-0.1c0.1-0.1,0.1-0.2,0.1-0.3c0-0.1,0-0.1,0-0.2c0,0-0.1-0.1-0.2-0.1c-0.1,0-0.2-0.1-0.3-0.1
			C24,25,23.8,25,23.7,24.9c-0.1-0.1-0.1-0.2-0.1-0.4c0-0.2,0.1-0.3,0.2-0.4c0.1-0.1,0.3-0.2,0.5-0.2c0.2,0,0.4,0,0.6,0.1l-0.1,0.2
			c-0.2-0.1-0.4-0.1-0.5-0.1c-0.1,0-0.2,0-0.3,0.1c-0.1,0.1-0.1,0.1-0.1,0.2c0,0.1,0,0.1,0,0.2c0,0.1,0.1,0.1,0.1,0.1
			c0.1,0,0.2,0.1,0.3,0.1c0.2,0.1,0.4,0.2,0.5,0.3C24.9,25.3,25,25.4,25,25.6z"/>
		<path class="st33" d="M25.4,26.2v-2.2h0.3v2.2H25.4z"/>
		<path class="st33" d="M27.3,25H28v1.1c-0.1,0-0.2,0.1-0.4,0.1c-0.1,0-0.3,0-0.4,0c-0.3,0-0.6-0.1-0.8-0.3
			c-0.2-0.2-0.3-0.5-0.3-0.9c0-0.2,0.1-0.4,0.1-0.6c0.1-0.2,0.2-0.3,0.4-0.4c0.2-0.1,0.4-0.1,0.6-0.1c0.2,0,0.5,0.1,0.7,0.1
			l-0.1,0.2c-0.2-0.1-0.4-0.1-0.6-0.1c-0.3,0-0.5,0.1-0.6,0.2c-0.2,0.2-0.2,0.4-0.2,0.7c0,0.3,0.1,0.5,0.2,0.7
			c0.1,0.2,0.4,0.2,0.7,0.2c0.2,0,0.3,0,0.5-0.1v-0.7h-0.5V25z"/>
		<path class="st33" d="M30.3,26.2H30l-1.2-1.9h0c0,0.2,0,0.4,0,0.6v1.3h-0.2v-2.2h0.3l1.2,1.9h0c0,0,0-0.1,0-0.3c0-0.2,0-0.3,0-0.3
			v-1.3h0.2V26.2z"/>
	</g>
	<g class="st32">
		<path class="st33" d="M21.2,27.3c0,0.1,0,0.1-0.1,0.1c0,0-0.1,0-0.2,0h-0.1v0.2h-0.1v-0.5H21C21.1,27.2,21.2,27.2,21.2,27.3z
			 M20.9,27.5L20.9,27.5c0.1,0,0.2,0,0.2,0c0,0,0,0,0-0.1c0,0,0-0.1,0-0.1c0,0-0.1,0-0.1,0h-0.1V27.5z"/>
		<path class="st33" d="M21.3,27.7v-0.5h0.1L21.3,27.7l0.3-0.1v0.1H21.3z"/>
		<path class="st33" d="M22,27.7L22,27.5h-0.2l-0.1,0.2h-0.1l0.2-0.5h0.1L22,27.7L22,27.7z M21.9,27.5l-0.1-0.2c0,0,0,0,0-0.1
			c0,0,0,0,0,0.1l-0.1,0.2H21.9z"/>
		<path class="st33" d="M22.4,27.2c-0.1,0-0.1,0-0.1,0.1c0,0-0.1,0.1-0.1,0.2c0,0.1,0,0.1,0,0.2c0,0,0.1,0.1,0.1,0.1
			c0,0,0.1,0,0.1,0v0.1c0,0-0.1,0-0.1,0c-0.1,0-0.1,0-0.2-0.1c0,0-0.1-0.1-0.1-0.2c0-0.1,0-0.1,0-0.2c0,0,0.1-0.1,0.1-0.1
			C22.3,27.2,22.3,27.2,22.4,27.2c0.1-0.1,0.1,0,0.1,0l0,0.1C22.5,27.2,22.4,27.2,22.4,27.2z"/>
		<path class="st33" d="M23,27.7h-0.3v-0.5H23v0.1h-0.2v0.2h0.2v0.1h-0.2v0.2L23,27.7L23,27.7z"/>
		<path class="st33" d="M23.4,27.4l0.1-0.3h0.1L23.4,27.4l0,0.3h-0.1L23.4,27.4l-0.2-0.3h0.1L23.4,27.4z"/>
		<path class="st33" d="M24.2,27.4c0,0.1,0,0.2-0.1,0.2c0,0.1-0.1,0.1-0.2,0.1c-0.1,0-0.1,0-0.2-0.1c0,0-0.1-0.1-0.1-0.2
			c0-0.1,0-0.2,0.1-0.2c0,0,0.1-0.1,0.2-0.1c0.1,0,0.1,0,0.2,0.1C24.1,27.3,24.2,27.4,24.2,27.4z M23.7,27.4c0,0.1,0,0.1,0,0.2
			c0,0,0.1,0.1,0.1,0.1c0.1,0,0.1,0,0.1-0.1c0,0,0-0.1,0-0.2c0-0.1,0-0.1,0-0.2c0,0-0.1-0.1-0.1-0.1c-0.1,0-0.1,0-0.1,0.1
			C23.7,27.3,23.7,27.4,23.7,27.4z"/>
		<path class="st33" d="M24.7,27.2v0.3c0,0.1,0,0.1-0.1,0.1c0,0-0.1,0.1-0.2,0.1c-0.1,0-0.1,0-0.2-0.1c0,0,0-0.1,0-0.1v-0.3h0.1v0.4
			c0,0,0,0.1,0,0.1c0,0,0.1,0,0.1,0c0,0,0.1,0,0.1,0c0,0,0-0.1,0-0.1L24.7,27.2L24.7,27.2z"/>
		<path class="st33" d="M24.9,27.5v0.2h-0.1v-0.5H25c0.1,0,0.1,0,0.2,0c0,0,0,0.1,0,0.1c0,0.1,0,0.1-0.1,0.1l0.1,0.2h-0.1L25,27.5
			H24.9z M24.9,27.4L24.9,27.4c0.1,0,0.2,0,0.2,0c0,0,0,0,0-0.1c0,0,0-0.1,0-0.1c0,0-0.1,0-0.1,0h-0.1V27.4z"/>
		<path class="st33" d="M25.7,27.7L25.7,27.7l-0.1-0.5h-0.2v-0.1h0.4v0.1h-0.2V27.7z"/>
		<path class="st33" d="M26.2,27.7h-0.3v-0.5h0.3v0.1H26v0.2h0.2v0.1H26v0.2L26.2,27.7L26.2,27.7z"/>
		<path class="st33" d="M26.7,27.7L26.7,27.7l-0.2-0.2l-0.1,0.2h-0.1l0.2-0.3l-0.2-0.3h0.1l0.1,0.2l0.1-0.2h0.1l-0.2,0.3L26.7,27.7z
			"/>
		<path class="st33" d="M27,27.7L27,27.7l-0.1-0.5h-0.2v-0.1h0.4v0.1H27V27.7z"/>
		<path class="st33" d="M27.8,27.7L27.8,27.7l-0.1-0.3h-0.3v0.3h-0.1v-0.5h0.1v0.2h0.3v-0.2h0.1V27.7z"/>
		<path class="st33" d="M28.3,27.7H28v-0.5h0.3v0.1H28v0.2h0.2v0.1H28v0.2L28.3,27.7L28.3,27.7z"/>
		<path class="st33" d="M28.5,27.5v0.2h-0.1v-0.5h0.2c0.1,0,0.1,0,0.1,0c0,0,0,0.1,0,0.1c0,0.1,0,0.1-0.1,0.1l0.1,0.2h-0.1l-0.1-0.2
			H28.5z M28.5,27.4L28.5,27.4c0.1,0,0.2,0,0.2,0c0,0,0,0,0-0.1c0,0,0-0.1,0-0.1c0,0-0.1,0-0.1,0h-0.1V27.4z"/>
		<path class="st33" d="M29.2,27.7h-0.3v-0.5h0.3v0.1h-0.2v0.2h0.2v0.1h-0.2v0.2L29.2,27.7L29.2,27.7z"/>
	</g>
	<g class="st32">
		<g class="st34">
			<path class="st35" d="M21.5,28.2V28h0L21.5,28.2l0.1,0v0H21.5z"/>
			<path class="st35" d="M21.9,28.1C21.9,28.2,21.9,28.2,21.9,28.1c0,0.1-0.1,0.1-0.1,0.1c0,0,0,0,0,0c0,0,0,0,0,0c0,0,0,0,0-0.1
				c0,0,0-0.1,0-0.1C21.7,28.1,21.7,28,21.9,28.1C21.8,28,21.8,28.1,21.9,28.1C21.9,28.1,21.9,28.1,21.9,28.1z M21.7,28.1
				C21.7,28.2,21.7,28.2,21.7,28.1C21.7,28.2,21.8,28.2,21.7,28.1c0.1,0.1,0.1,0.1,0.1,0.1c0,0,0,0,0-0.1c0,0,0,0,0-0.1
				C21.8,28.1,21.8,28.1,21.7,28.1C21.8,28.1,21.7,28.1,21.7,28.1C21.7,28.1,21.7,28.1,21.7,28.1z"/>
			<path class="st35" d="M22,28C22,28,22,28,22,28L22,28C22,28.1,22,28.1,22,28C22,28.1,22,28.1,22,28C21.9,28.1,21.9,28.1,22,28
				l-0.1,0.2h0L22,28L22,28L22,28L22,28C22,28.1,22,28.1,22,28C22,28,22,28,22,28z"/>
			<path class="st35" d="M22.1,28.2C22.1,28.2,22.1,28.2,22.1,28.2c-0.1,0-0.1-0.1-0.1-0.1c0,0,0-0.1,0-0.1c0,0,0,0,0.1,0
				c0,0,0,0,0.1,0c0,0,0,0,0,0.1L22.1,28.2L22.1,28.2C22.1,28.2,22.1,28.2,22.1,28.2C22.1,28.2,22.1,28.2,22.1,28.2
				C22.2,28.2,22.2,28.2,22.1,28.2L22.1,28.2C22.2,28.2,22.2,28.2,22.1,28.2C22.2,28.2,22.2,28.2,22.1,28.2z M22.1,28.1
				C22.1,28.1,22.1,28.1,22.1,28.1C22.1,28.1,22.1,28.1,22.1,28.1L22.1,28.1C22.2,28.1,22.2,28.1,22.1,28.1
				C22.2,28.1,22.2,28.1,22.1,28.1z"/>
			<path class="st35" d="M22.5,28.2v-0.1c0,0,0,0,0,0c0,0,0,0,0,0c0,0,0,0,0,0c0,0,0,0,0,0.1L22.5,28.2h-0.1v-0.1c0,0,0,0,0,0
				c0,0,0,0,0,0c0,0,0,0,0,0c0,0,0,0,0,0.1v0.1h0V28h0l0,0h0c0,0,0,0,0,0c0,0,0,0,0,0c0,0,0,0,0.1,0h0c0,0,0,0,0,0c0,0,0,0,0,0
				c0,0,0,0,0.1,0c0,0,0,0,0,0.1L22.5,28.2L22.5,28.2z"/>
			<path class="st35" d="M22.7,28C22.7,28,22.7,28,22.7,28C22.7,28,22.7,28,22.7,28C22.7,28,22.7,28,22.7,28
				C22.7,28,22.7,28,22.7,28C22.7,28,22.7,28,22.7,28C22.7,28,22.7,28,22.7,28C22.7,28,22.7,28,22.7,28C22.7,28,22.7,28,22.7,28z
				 M22.7,28.2L22.7,28.2l0-0.2h0V28.2z"/>
			<path class="st35" d="M22.9,28.2C22.9,28.2,22.9,28.2,22.9,28.2C22.9,28.2,22.8,28.2,22.9,28.2L22.9,28.2
				C22.8,28.2,22.8,28.2,22.9,28.2L22.9,28.2L22.9,28.2L22.8,28h0l0,0h0c0,0,0,0,0,0c0,0,0,0,0,0c0,0,0,0,0.1,0c0,0,0,0,0,0.1
				C23,28.2,23,28.2,22.9,28.2C23,28.2,22.9,28.2,22.9,28.2z M22.9,28.1C22.9,28.1,22.9,28.1,22.9,28.1
				C22.8,28.1,22.8,28.1,22.9,28.1L22.9,28.1c-0.1,0.1-0.1,0.1,0,0.1c0,0,0,0,0,0c0,0,0,0,0,0C23,28.2,23,28.2,22.9,28.1
				C23,28.1,23,28.1,22.9,28.1C22.9,28.1,22.9,28.1,22.9,28.1z"/>
			<path class="st35" d="M23.2,28.2C23.2,28.2,23.2,28.2,23.2,28.2C23.1,28.2,23.1,28.2,23.2,28.2c-0.1,0.1-0.1,0.1-0.1,0v0
				c0,0,0,0,0,0C23.1,28.2,23.1,28.2,23.2,28.2C23.1,28.2,23.1,28.2,23.2,28.2C23.1,28.2,23.1,28.2,23.2,28.2
				C23.1,28.2,23.1,28.2,23.2,28.2C23.1,28.2,23.1,28.2,23.2,28.2c-0.1,0-0.1,0-0.1-0.1c0,0,0,0,0,0c0,0,0,0,0,0c0,0,0,0,0,0
				c0,0,0,0,0.1,0c0,0,0,0,0.1,0l0,0c0,0,0,0-0.1,0s0,0,0,0c0,0,0,0,0,0c0,0,0,0,0,0C23.1,28.1,23.1,28.1,23.2,28.2
				C23.1,28.1,23.1,28.1,23.2,28.2C23.1,28.1,23.1,28.2,23.2,28.2C23.2,28.2,23.2,28.2,23.2,28.2z"/>
			<path class="st35" d="M23.2,28v0.1c0,0,0,0,0,0c0,0,0,0,0,0c0,0,0,0,0,0c0,0,0,0,0-0.1V28h0v0.2h0l0,0l0,0c0,0,0,0,0,0
				c0,0,0,0,0,0c0,0,0,0,0,0c0,0,0,0,0-0.1L23.2,28L23.2,28z"/>
			<path class="st35" d="M23.7,28.2v-0.1c0,0,0,0,0,0c0,0,0,0,0,0c0,0,0,0,0,0c0,0,0,0,0,0.1L23.7,28.2h-0.1v-0.1c0,0,0,0,0,0
				c0,0,0,0,0,0c0,0,0,0,0,0c0,0,0,0,0,0.1v0.1h0V28h0l0,0h0c0,0,0,0,0,0c0,0,0,0,0,0c0,0,0.1,0,0.1,0l0,0c0,0,0,0,0,0c0,0,0,0,0,0
				c0,0,0,0,0.1,0c0,0,0,0,0,0.1L23.7,28.2L23.7,28.2z"/>
			<path class="st35" d="M24,28.2L24,28.2C24,28.2,24,28.2,24,28.2c-0.1,0-0.1,0-0.1,0c0,0,0,0,0-0.1c0,0,0-0.1,0-0.1c0,0,0,0,0.1,0
				c0,0,0,0,0.1,0h0v0l0,0V28h0L24,28.2L24,28.2L24,28.2z M24,28.2C24,28.2,24,28.2,24,28.2C24,28.2,24,28.2,24,28.2L24,28.2
				c0.1-0.1,0.1-0.1,0-0.1c0,0,0,0,0,0c0,0,0,0,0,0C23.9,28.1,23.9,28.1,24,28.2C23.9,28.2,23.9,28.2,24,28.2
				C23.9,28.2,23.9,28.2,24,28.2z"/>
			<path class="st35" d="M24.3,28.1C24.3,28.2,24.3,28.2,24.3,28.1c0,0.1-0.1,0.1-0.1,0.1c0,0,0,0,0,0c0,0,0,0,0,0c0,0,0,0,0-0.1
				c0,0,0-0.1,0-0.1C24.1,28.1,24.2,28,24.3,28.1C24.2,28,24.2,28.1,24.3,28.1C24.3,28.1,24.3,28.1,24.3,28.1z M24.1,28.1
				C24.1,28.2,24.1,28.2,24.1,28.1C24.2,28.2,24.2,28.2,24.1,28.1c0.1,0.1,0.1,0.1,0.1,0.1c0,0,0,0,0-0.1c0,0,0,0,0-0.1
				C24.2,28.1,24.2,28.1,24.1,28.1C24.2,28.1,24.2,28.1,24.1,28.1C24.1,28.1,24.1,28.1,24.1,28.1z"/>
			<path class="st35" d="M24.4,28.2L24.4,28.2l0-0.3h0V28.2z"/>
			<path class="st35" d="M24.6,28.1C24.6,28.2,24.6,28.2,24.6,28.1c0,0.1-0.1,0.1-0.1,0.1c0,0,0,0,0,0c0,0,0,0,0,0c0,0,0,0,0-0.1
				c0,0,0-0.1,0-0.1C24.5,28.1,24.5,28,24.6,28.1C24.5,28,24.6,28.1,24.6,28.1C24.6,28.1,24.6,28.1,24.6,28.1z M24.5,28.1
				C24.5,28.2,24.5,28.2,24.5,28.1C24.5,28.2,24.5,28.2,24.5,28.1c0.1,0.1,0.1,0.1,0.1,0.1c0,0,0,0,0-0.1c0,0,0,0,0-0.1
				C24.6,28.1,24.5,28.1,24.5,28.1C24.5,28.1,24.5,28.1,24.5,28.1C24.5,28.1,24.5,28.1,24.5,28.1z"/>
			<path class="st35" d="M24.8,28C24.8,28,24.8,28,24.8,28L24.8,28C24.8,28.1,24.8,28.1,24.8,28C24.7,28.1,24.7,28.1,24.8,28
				C24.7,28.1,24.7,28.1,24.8,28l-0.1,0.2h0L24.8,28L24.8,28L24.8,28L24.8,28C24.7,28.1,24.7,28.1,24.8,28C24.7,28,24.7,28,24.8,28z
				"/>
			<path class="st35" d="M25,28.2C25,28.2,25,28.2,25,28.2C25,28.2,25,28.2,25,28.2c-0.1,0.1-0.1,0.1-0.1,0v0c0,0,0,0,0,0
				C24.9,28.2,24.9,28.2,25,28.2C25,28.2,25,28.2,25,28.2C25,28.2,25,28.2,25,28.2C25,28.2,25,28.2,25,28.2C25,28.2,25,28.2,25,28.2
				c-0.1,0-0.1,0-0.1-0.1c0,0,0,0,0,0c0,0,0,0,0,0c0,0,0,0,0,0c0,0,0,0,0.1,0c0,0,0,0,0.1,0l0,0c0,0,0,0-0.1,0c0,0,0,0,0,0
				c0,0,0,0,0,0c0,0,0,0,0,0C24.9,28.1,24.9,28.1,25,28.2C24.9,28.1,25,28.1,25,28.2C25,28.1,25,28.2,25,28.2
				C25,28.2,25,28.2,25,28.2z"/>
			<path class="st35" d="M25.1,28C25.1,28,25.1,28,25.1,28C25.1,28,25.1,28,25.1,28C25.1,28,25.1,28,25.1,28
				C25.1,28,25.1,28,25.1,28C25.1,28,25.1,28,25.1,28C25.1,28,25.1,28,25.1,28C25.1,28,25.1,28,25.1,28C25.1,28,25.1,28,25.1,28z
				 M25.1,28.2L25.1,28.2l0-0.2h0V28.2z"/>
			<path class="st35" d="M25.2,28.2C25.3,28.2,25.3,28.2,25.2,28.2C25.3,28.2,25.3,28.2,25.2,28.2L25.2,28.2
				C25.3,28.2,25.3,28.2,25.2,28.2C25.3,28.2,25.2,28.2,25.2,28.2C25.2,28.2,25.2,28.2,25.2,28.2l-0.1-0.2h0v0l0,0l0,0h0v0h0.1v0
				h-0.1L25.2,28.2C25.2,28.2,25.2,28.2,25.2,28.2C25.2,28.2,25.2,28.2,25.2,28.2z"/>
			<path class="st35" d="M25.5,28.2L25.5,28.2L25.5,28.2C25.5,28.2,25.5,28.2,25.5,28.2C25.5,28.2,25.5,28.2,25.5,28.2
				c-0.1,0-0.1,0-0.1,0c0,0,0,0,0,0c0,0,0-0.1,0.1-0.1h0v0c0,0,0,0,0,0c0,0,0,0,0,0c0,0,0,0-0.1,0l0,0c0,0,0,0,0,0c0,0,0,0,0,0
				c0,0,0,0,0.1,0c0,0,0,0,0,0.1L25.5,28.2L25.5,28.2z M25.5,28.2C25.5,28.2,25.5,28.2,25.5,28.2C25.5,28.2,25.5,28.2,25.5,28.2
				L25.5,28.2L25.5,28.2C25.5,28.2,25.5,28.2,25.5,28.2C25.4,28.2,25.4,28.2,25.5,28.2C25.4,28.2,25.4,28.2,25.5,28.2
				C25.4,28.2,25.5,28.2,25.5,28.2z"/>
			<path class="st35" d="M25.9,28.2v-0.1c0,0,0,0,0,0c0,0,0,0,0,0c0,0,0,0,0,0c0,0,0,0,0,0.1L25.9,28.2h-0.1v-0.1c0,0,0,0,0,0
				c0,0,0,0,0,0c0,0,0,0,0,0c0,0,0,0,0,0.1v0.1h0V28h0l0,0h0c0,0,0,0,0,0c0,0,0,0,0,0c0,0,0,0,0.1,0l0,0c0,0,0,0,0,0c0,0,0,0,0,0
				c0,0,0,0,0.1,0c0,0,0,0,0,0.1L25.9,28.2L25.9,28.2z"/>
			<path class="st35" d="M26,28.2C26,28.2,26,28.2,26,28.2c-0.1,0-0.1-0.1-0.1-0.1c0,0,0-0.1,0-0.1c0,0,0,0,0.1,0c0,0,0,0,0.1,0
				c0,0,0,0,0,0.1L26,28.2L26,28.2C26,28.2,26,28.2,26,28.2C26,28.2,26,28.2,26,28.2C26.1,28.2,26.1,28.2,26,28.2L26,28.2
				C26.1,28.2,26.1,28.2,26,28.2C26.1,28.2,26.1,28.2,26,28.2z M26,28.1C26,28.1,26,28.1,26,28.1C26,28.1,26,28.1,26,28.1L26,28.1
				C26.1,28.1,26.1,28.1,26,28.1C26.1,28.1,26.1,28.1,26,28.1z"/>
			<path class="st35" d="M26.2,28.2C26.2,28.2,26.2,28.2,26.2,28.2C26.3,28.2,26.3,28.2,26.2,28.2L26.2,28.2
				C26.3,28.2,26.3,28.2,26.2,28.2C26.2,28.2,26.2,28.2,26.2,28.2C26.2,28.2,26.2,28.2,26.2,28.2l-0.1-0.2h0v0l0,0l0,0h0v0h0.1v0
				h-0.1L26.2,28.2C26.2,28.2,26.2,28.2,26.2,28.2C26.2,28.2,26.2,28.2,26.2,28.2z"/>
			<path class="st35" d="M26.3,28.2L26.3,28.2C26.3,28.2,26.3,28.2,26.3,28.2C26.3,28.3,26.3,28.3,26.3,28.2L26.3,28.2
				C26.3,28.3,26.3,28.3,26.3,28.2C26.3,28.2,26.3,28.2,26.3,28.2L26.3,28.2z"/>
			<path class="st35" d="M26.6,28.2C26.5,28.2,26.5,28.2,26.6,28.2c-0.1,0-0.1-0.1-0.1-0.1c0,0,0-0.1,0-0.1c0,0,0,0,0.1,0
				c0,0,0,0,0,0c0,0,0,0,0,0l0,0c0,0,0,0,0,0c0,0,0,0,0,0c0,0-0.1,0-0.1,0.1C26.5,28.2,26.5,28.2,26.6,28.2
				C26.5,28.2,26.6,28.2,26.6,28.2C26.6,28.2,26.6,28.2,26.6,28.2L26.6,28.2C26.6,28.2,26.6,28.2,26.6,28.2z"/>
			<path class="st35" d="M26.8,28.1C26.8,28.2,26.8,28.2,26.8,28.1c0,0.1-0.1,0.1-0.1,0.1c0,0,0,0,0,0c0,0,0,0,0,0c0,0,0,0,0-0.1
				c0,0,0-0.1,0-0.1C26.7,28.1,26.7,28,26.8,28.1C26.8,28,26.8,28.1,26.8,28.1C26.8,28.1,26.8,28.1,26.8,28.1z M26.7,28.1
				C26.7,28.2,26.7,28.2,26.7,28.1C26.7,28.2,26.7,28.2,26.7,28.1c0.1,0.1,0.1,0.1,0.1,0.1c0,0,0,0,0-0.1c0,0,0,0,0-0.1
				C26.8,28.1,26.8,28.1,26.7,28.1C26.7,28.1,26.7,28.1,26.7,28.1C26.7,28.1,26.7,28.1,26.7,28.1z"/>
			<path class="st35" d="M27,28.2v-0.1c0,0,0,0,0,0c0,0,0,0,0,0c0,0,0,0,0,0c0,0,0,0,0,0.1v0.1h0V28h0l0,0h0c0,0,0,0,0,0
				c0,0,0,0,0,0c0,0,0,0,0.1,0c0,0,0,0,0,0.1L27,28.2L27,28.2z"/>
			<path class="st35" d="M27.2,28.2C27.2,28.2,27.2,28.2,27.2,28.2C27.2,28.2,27.2,28.2,27.2,28.2c-0.1,0.1-0.1,0.1-0.1,0v0
				c0,0,0,0,0,0C27.1,28.2,27.2,28.2,27.2,28.2C27.2,28.2,27.2,28.2,27.2,28.2C27.2,28.2,27.2,28.2,27.2,28.2
				C27.2,28.2,27.2,28.2,27.2,28.2C27.2,28.2,27.2,28.2,27.2,28.2c-0.1,0-0.1,0-0.1-0.1c0,0,0,0,0,0c0,0,0,0,0,0c0,0,0,0,0,0
				c0,0,0,0,0.1,0c0,0,0,0,0.1,0l0,0c0,0,0,0-0.1,0c0,0,0,0,0,0c0,0,0,0,0,0c0,0,0,0,0,0C27.1,28.1,27.1,28.1,27.2,28.2
				C27.2,28.1,27.2,28.1,27.2,28.2C27.2,28.1,27.2,28.2,27.2,28.2C27.2,28.2,27.2,28.2,27.2,28.2z"/>
			<path class="st35" d="M27.4,28.2C27.4,28.2,27.3,28.2,27.4,28.2c-0.1,0-0.1-0.1-0.1-0.1c0,0,0-0.1,0-0.1c0,0,0,0,0.1,0s0,0,0.1,0
				c0,0,0,0,0,0.1L27.4,28.2L27.4,28.2C27.3,28.2,27.3,28.2,27.4,28.2C27.3,28.2,27.4,28.2,27.4,28.2C27.4,28.2,27.4,28.2,27.4,28.2
				L27.4,28.2C27.4,28.2,27.4,28.2,27.4,28.2C27.4,28.2,27.4,28.2,27.4,28.2z M27.4,28.1C27.4,28.1,27.3,28.1,27.4,28.1
				C27.3,28.1,27.3,28.1,27.4,28.1L27.4,28.1C27.4,28.1,27.4,28.1,27.4,28.1C27.4,28.1,27.4,28.1,27.4,28.1z"/>
			<path class="st35" d="M27.6,28.2C27.6,28.2,27.5,28.2,27.6,28.2c-0.1,0-0.1-0.1-0.1-0.1c0,0,0-0.1,0-0.1c0,0,0,0,0.1,0
				c0,0,0,0,0,0c0,0,0,0,0,0l0,0c0,0,0,0,0,0c0,0,0,0,0,0c0,0-0.1,0-0.1,0.1C27.5,28.2,27.5,28.2,27.6,28.2
				C27.6,28.2,27.6,28.2,27.6,28.2C27.6,28.2,27.6,28.2,27.6,28.2L27.6,28.2C27.6,28.2,27.6,28.2,27.6,28.2z"/>
			<path class="st35" d="M27.7,28.2C27.8,28.2,27.8,28.2,27.7,28.2C27.8,28.2,27.8,28.2,27.7,28.2L27.7,28.2
				C27.8,28.2,27.8,28.2,27.7,28.2C27.8,28.2,27.7,28.2,27.7,28.2C27.7,28.2,27.7,28.2,27.7,28.2l-0.1-0.2h0v0l0,0l0,0h0v0h0.1v0
				h-0.1L27.7,28.2C27.7,28.2,27.7,28.2,27.7,28.2C27.7,28.2,27.7,28.2,27.7,28.2z"/>
			<path class="st35" d="M27.9,28.2C27.9,28.2,27.8,28.2,27.9,28.2c-0.1,0-0.1-0.1-0.1-0.1c0,0,0-0.1,0-0.1c0,0,0,0,0.1,0
				c0,0,0,0,0.1,0c0,0,0,0,0,0.1L27.9,28.2L27.9,28.2C27.8,28.2,27.8,28.2,27.9,28.2C27.9,28.2,27.9,28.2,27.9,28.2
				C27.9,28.2,27.9,28.2,27.9,28.2L27.9,28.2C28,28.2,27.9,28.2,27.9,28.2C27.9,28.2,27.9,28.2,27.9,28.2z M27.9,28.1
				C27.9,28.1,27.9,28.1,27.9,28.1C27.8,28.1,27.8,28.1,27.9,28.1L27.9,28.1C27.9,28.1,27.9,28.1,27.9,28.1
				C27.9,28.1,27.9,28.1,27.9,28.1z"/>
			<path class="st35" d="M28.1,28.2C28.1,28.2,28.1,28.2,28.1,28.2C28.1,28.2,28.1,28.2,28.1,28.2L28.1,28.2
				C28.1,28.2,28.1,28.2,28.1,28.2C28.1,28.2,28.1,28.2,28.1,28.2C28,28.2,28,28.2,28.1,28.2L28,28.1h0v0l0,0l0,0h0v0h0.1v0h-0.1
				L28.1,28.2C28.1,28.2,28.1,28.2,28.1,28.2C28.1,28.2,28.1,28.2,28.1,28.2z"/>
			<path class="st35" d="M28.2,28v0.1c0,0,0,0,0,0c0,0,0,0,0,0c0,0,0,0,0,0c0,0,0,0,0-0.1V28h0v0.2h0l0,0h0c0,0,0,0,0,0c0,0,0,0,0,0
				c0,0,0,0-0.1,0c0,0,0,0,0-0.1L28.2,28L28.2,28z"/>
			<path class="st35" d="M28.5,28C28.5,28,28.5,28,28.5,28L28.5,28C28.5,28.1,28.5,28.1,28.5,28C28.5,28.1,28.4,28.1,28.5,28
				C28.4,28.1,28.4,28.1,28.5,28l-0.1,0.2h0L28.5,28L28.5,28L28.5,28L28.5,28C28.4,28.1,28.4,28.1,28.5,28C28.5,28,28.5,28,28.5,28z
				"/>
		</g>
	</g>
	<rect x="21.2" y="26.5" class="st36" width="7.6" height="0.1"/>
	<g class="st32">
		<path class="st33" d="M22.4,23.1v-1.4h0.3c0.1,0,0.2,0,0.3,0.1c0.1,0.1,0.1,0.2,0.1,0.3c0,0.1,0,0.1,0,0.2c0,0,0,0.1-0.1,0.1
			c0,0,0,0.1-0.1,0.1c0,0-0.1,0-0.1,0c0,0-0.1,0-0.1,0v0.6H22.4z M22.7,22.3C22.7,22.3,22.7,22.3,22.7,22.3
			C22.7,22.3,22.7,22.3,22.7,22.3C22.7,22.2,22.7,22.2,22.7,22.3c0.1,0,0.1,0,0.1,0c0,0,0,0,0,0c0,0,0,0,0,0c0,0,0,0,0,0
			c0,0,0,0,0,0s0,0,0,0c0,0,0,0,0,0c0,0,0,0,0,0c0,0,0,0,0,0c0,0,0,0,0,0c0,0,0,0,0,0c0,0,0,0,0,0c0,0,0,0,0,0c0,0,0,0,0,0V22.3z"/>
		<path class="st33" d="M23,23.1l0.3-1.4h0.2l0.3,1.4h-0.3l-0.1-0.3h-0.2l-0.1,0.3H23z M23.4,22.6h0.1l-0.1-0.5L23.4,22.6z"/>
		<path class="st33" d="M24,23.1v-1.2h-0.2v-0.2h0.7v0.2h-0.2v1.2H24z"/>
		<path class="st33" d="M24.8,23.1v-1.2h-0.2v-0.2h0.7v0.2H25v1.2H24.8z"/>
		<path class="st33" d="M25.3,23.1v-1.4h0.6v0.2h-0.3v0.4h0.2v0.2h-0.2v0.4h0.3v0.2H25.3z"/>
		<path class="st33" d="M26,23.1v-1.4h0.3c0.1,0,0.1,0,0.2,0c0.1,0,0.1,0,0.1,0.1c0,0,0.1,0.1,0.1,0.1c0,0,0,0.1,0,0.2
			c0,0,0,0.1,0,0.1c0,0,0,0,0,0.1c0,0,0,0.1,0,0.1c0,0,0,0-0.1,0.1c0,0-0.1,0-0.1,0.1c0.1,0.3,0.2,0.5,0.2,0.7h-0.3l-0.2-0.6h0v0.6
			H26z M26.3,22.2L26.3,22.2c0.1,0,0.1,0,0.1,0c0,0,0,0,0-0.1c0,0,0,0,0-0.1c0,0,0,0,0-0.1c0,0,0,0,0-0.1c0,0,0,0,0-0.1
			c0,0,0,0,0-0.1c0,0,0,0,0,0h-0.1V22.2z"/>
		<path class="st33" d="M26.9,23.1v-1.4h0.2l0.3,0.7v-0.7h0.2v1.4h-0.2l-0.3-0.8v0.8H26.9z"/>
	</g>
</g>
</svg>
