<svg xmlns="http://www.w3.org/2000/svg" width="1920" height="1080"><path d="M257,1277L-13,1271L594,1307Z" fill="#ac6c9c" stroke="#ac6c9c" stroke-width="1.51"/><path d="M615,-258L778,-242L842,-239Z" fill="#ffc2cf" stroke="#ffc2cf" stroke-width="1.51"/><path d="M615,-258L842,-239L1295,-255Z" fill="#ffb5c9" stroke="#ffb5c9" stroke-width="1.51"/><path d="M1087,1316L594,1307L1315,1342Z" fill="#a43287" stroke="#a43287" stroke-width="1.51"/><path d="M615,-258L1295,-255L1505,-259Z" fill="#f9a5c5" stroke="#f9a5c5" stroke-width="1.51"/><path d="M1757,1274L1594,1343L1956,1278Z" fill="#720074" stroke="#720074" stroke-width="1.51"/><path d="M1939,229L1933,380L2097,428Z" fill="#af5493" stroke="#af5493" stroke-width="1.51"/><path d="M1956,1278L1594,1343L2101,1317Z" fill="#660071" stroke="#660071" stroke-width="1.51"/><path d="M1956,1278L2101,1317L2123,1178Z" fill="#5f006f" stroke="#5f006f" stroke-width="1.51"/><path d="M2089,68L1986,62L2139,196Z" fill="#aa6899" stroke="#aa6899" stroke-width="1.51"/><path d="M1986,62L1939,229L2139,196Z" fill="#ae6697" stroke="#ae6697" stroke-width="1.51"/><path d="M1939,229L2097,428L2139,196Z" fill="#aa5993" stroke="#aa5993" stroke-width="1.51"/><path d="M2097,-69L2089,68L2139,196Z" fill="#a86a9b" stroke="#a86a9b" stroke-width="1.51"/><path d="M2097,428L2096,541L2139,196Z" fill="#a54b8e" stroke="#a54b8e" stroke-width="1.51"/><path d="M2050,832L1897,972L2140,961Z" fill="#8a0379" stroke="#8a0379" stroke-width="1.51"/><path d="M1897,972L1983,1140L2140,961Z" fill="#7f0077" stroke="#7f0077" stroke-width="1.51"/><path d="M2090,720L2050,832L2140,961Z" fill="#8e0e7d" stroke="#8e0e7d" stroke-width="1.51"/><path d="M1983,1140L2123,1178L2140,961Z" fill="#710073" stroke="#710073" stroke-width="1.51"/><path d="M2139,196L2096,541L2140,961Z" fill="#a13286" stroke="#a13286" stroke-width="1.51"/><path d="M2096,541L2090,720L2140,961Z" fill="#981982" stroke="#981982" stroke-width="1.51"/><path d="M2057,-233L1967,-114L2097,-69Z" fill="#ae79a8" stroke="#ae79a8" stroke-width="1.51"/><path d="M1837,-254L1891,-216L2057,-233Z" fill="#b981b0" stroke="#b981b0" stroke-width="1.51"/><path d="M1936,689L2090,720L2096,541Z" fill="#a22886" stroke="#a22886" stroke-width="1.51"/><path d="M1986,62L2089,68L2097,-69Z" fill="#ac6f9f" stroke="#ac6f9f" stroke-width="1.51"/><path d="M1983,1140L1956,1278L2123,1178Z" fill="#690072" stroke="#690072" stroke-width="1.51"/><path d="M1903,890L1897,972L2050,832Z" fill="#93077c" stroke="#93077c" stroke-width="1.51"/><path d="M1945,496L1936,689L2096,541Z" fill="#ab3388" stroke="#ab3388" stroke-width="1.51"/><path d="M1967,-114L1986,62L2097,-69Z" fill="#b074a4" stroke="#b074a4" stroke-width="1.51"/><path d="M1945,496L2096,541L2097,428Z" fill="#a93f8b" stroke="#a93f8b" stroke-width="1.51"/><path d="M1933,380L1945,496L2097,428Z" fill="#ae488e" stroke="#ae488e" stroke-width="1.51"/><path d="M1936,689L2050,832L2090,720Z" fill="#9e1984" stroke="#9e1984" stroke-width="1.51"/><path d="M1891,-216L1967,-114L2057,-233Z" fill="#b47dad" stroke="#b47dad" stroke-width="1.51"/><path d="M1936,689L1903,890L2050,832Z" fill="#9d1482" stroke="#9d1482" stroke-width="1.51"/><path d="M1505,-259L1645,-210L1837,-254Z" fill="#d18ab4" stroke="#d18ab4" stroke-width="1.51"/><path d="M1829,1095L1956,1278L1983,1140Z" fill="#740075" stroke="#740075" stroke-width="1.51"/><path d="M1897,972L1829,1095L1983,1140Z" fill="#820178" stroke="#820178" stroke-width="1.51"/><path d="M1838,120L1939,229L1986,62Z" fill="#b76a9a" stroke="#b76a9a" stroke-width="1.51"/><path d="M1967,-114L1834,-107L1986,62Z" fill="#b777a6" stroke="#b777a6" stroke-width="1.51"/><path d="M1834,-107L1838,120L1986,62Z" fill="#bb73a2" stroke="#bb73a2" stroke-width="1.51"/><path d="M1742,652L1936,689L1945,496Z" fill="#b2318a" stroke="#b2318a" stroke-width="1.51"/><path d="M1815,892L1903,890L1936,689Z" fill="#a01382" stroke="#a01382" stroke-width="1.51"/><path d="M1783,339L1933,380L1939,229Z" fill="#b85a96" stroke="#b85a96" stroke-width="1.51"/><path d="M1732,521L1742,652L1945,496Z" fill="#bb398c" stroke="#bb398c" stroke-width="1.51"/><path d="M1829,1095L1757,1274L1956,1278Z" fill="#750075" stroke="#750075" stroke-width="1.51"/><path d="M1891,-216L1834,-107L1967,-114Z" fill="#bb7dac" stroke="#bb7dac" stroke-width="1.51"/><path d="M1742,652L1815,892L1936,689Z" fill="#ae1d87" stroke="#ae1d87" stroke-width="1.51"/><path d="M1838,120L1786,201L1939,229Z" fill="#bc689a" stroke="#bc689a" stroke-width="1.51"/><path d="M1786,201L1783,339L1939,229Z" fill="#bd6199" stroke="#bd6199" stroke-width="1.51"/><path d="M1933,380L1783,339L1945,496Z" fill="#b74f92" stroke="#b74f92" stroke-width="1.51"/><path d="M1783,339L1732,521L1945,496Z" fill="#bd4991" stroke="#bd4991" stroke-width="1.51"/><path d="M1834,-107L1677,-10L1838,120Z" fill="#c478a5" stroke="#c478a5" stroke-width="1.51"/><path d="M1786,1007L1829,1095L1897,972Z" fill="#8d017a" stroke="#8d017a" stroke-width="1.51"/><path d="M1815,892L1897,972L1903,890Z" fill="#97067c" stroke="#97067c" stroke-width="1.51"/><path d="M1742,652L1670,701L1815,892Z" fill="#b61e88" stroke="#b61e88" stroke-width="1.51"/><path d="M1837,-254L1834,-107L1891,-216Z" fill="#bf81af" stroke="#bf81af" stroke-width="1.51"/><path d="M1815,892L1786,1007L1897,972Z" fill="#96017b" stroke="#96017b" stroke-width="1.51"/><path d="M842,-239L1030,-214L1295,-255Z" fill="#fcaac5" stroke="#fcaac5" stroke-width="1.51"/><path d="M1670,701L1631,831L1815,892Z" fill="#b21785" stroke="#b21785" stroke-width="1.51"/><path d="M1612,1167L1757,1274L1829,1095Z" fill="#830178" stroke="#830178" stroke-width="1.51"/><path d="M1645,-210L1834,-107L1837,-254Z" fill="#c683b0" stroke="#c683b0" stroke-width="1.51"/><path d="M1631,129L1786,201L1838,120Z" fill="#c66e9d" stroke="#c66e9d" stroke-width="1.51"/><path d="M1677,-10L1631,129L1838,120Z" fill="#c974a1" stroke="#c974a1" stroke-width="1.51"/><path d="M1645,-210L1677,-10L1834,-107Z" fill="#cb80ac" stroke="#cb80ac" stroke-width="1.51"/><path d="M1786,1007L1612,1167L1829,1095Z" fill="#8d0179" stroke="#8d0179" stroke-width="1.51"/><path d="M1655,486L1732,521L1783,339Z" fill="#c54c92" stroke="#c54c92" stroke-width="1.51"/><path d="M1644,368L1655,486L1783,339Z" fill="#c85495" stroke="#c85495" stroke-width="1.51"/><path d="M1647,228L1783,339L1786,201Z" fill="#c6649a" stroke="#c6649a" stroke-width="1.51"/><path d="M1594,963L1786,1007L1815,892Z" fill="#9f017c" stroke="#9f017c" stroke-width="1.51"/><path d="M1631,831L1594,963L1815,892Z" fill="#aa0b80" stroke="#aa0b80" stroke-width="1.51"/><path d="M1647,228L1644,368L1783,339Z" fill="#c95f99" stroke="#c95f99" stroke-width="1.51"/><path d="M1594,963L1612,1167L1786,1007Z" fill="#9a007c" stroke="#9a007c" stroke-width="1.51"/><path d="M1631,129L1647,228L1786,201Z" fill="#cb6c9c" stroke="#cb6c9c" stroke-width="1.51"/><path d="M750,1282L594,1307L1087,1316Z" fill="#a8468d" stroke="#a8468d" stroke-width="1.51"/><path d="M1732,521L1655,486L1742,652Z" fill="#c43b8e" stroke="#c43b8e" stroke-width="1.51"/><path d="M1655,486L1670,701L1742,652Z" fill="#c3348d" stroke="#c3348d" stroke-width="1.51"/><path d="M1612,1167L1594,1343L1757,1274Z" fill="#800077" stroke="#800077" stroke-width="1.51"/><path d="M1507,1261L1594,1343L1612,1167Z" fill="#880078" stroke="#880078" stroke-width="1.51"/><path d="M1487,732L1631,831L1670,701Z" fill="#c11e89" stroke="#c11e89" stroke-width="1.51"/><path d="M1655,486L1442,579L1670,701Z" fill="#cd398e" stroke="#cd398e" stroke-width="1.51"/><path d="M1442,579L1487,732L1670,701Z" fill="#cc2f8d" stroke="#cc2f8d" stroke-width="1.51"/><path d="M1645,-210L1466,-59L1677,-10Z" fill="#d684ad" stroke="#d684ad" stroke-width="1.51"/><path d="M1466,-59L1631,129L1677,-10Z" fill="#d67ca6" stroke="#d67ca6" stroke-width="1.51"/><path d="M1466,-59L1465,130L1631,129Z" fill="#db7ca4" stroke="#db7ca4" stroke-width="1.51"/><path d="M1455,252L1644,368L1647,228Z" fill="#d4659a" stroke="#d4659a" stroke-width="1.51"/><path d="M1594,963L1459,1138L1612,1167Z" fill="#9e017c" stroke="#9e017c" stroke-width="1.51"/><path d="M1538,946L1594,963L1631,831Z" fill="#b00980" stroke="#b00980" stroke-width="1.51"/><path d="M1505,-259L1466,-59L1645,-210Z" fill="#dc8ab3" stroke="#dc8ab3" stroke-width="1.51"/><path d="M1644,368L1432,336L1655,486Z" fill="#d35796" stroke="#d35796" stroke-width="1.51"/><path d="M1432,336L1442,579L1655,486Z" fill="#d84f95" stroke="#d84f95" stroke-width="1.51"/><path d="M1487,732L1480,794L1631,831Z" fill="#c31e89" stroke="#c31e89" stroke-width="1.51"/><path d="M1455,252L1432,336L1644,368Z" fill="#d9659c" stroke="#d9659c" stroke-width="1.51"/><path d="M1631,129L1465,130L1647,228Z" fill="#d5729e" stroke="#d5729e" stroke-width="1.51"/><path d="M1465,130L1455,252L1647,228Z" fill="#da709e" stroke="#da709e" stroke-width="1.51"/><path d="M1538,946L1459,1138L1594,963Z" fill="#a8057e" stroke="#a8057e" stroke-width="1.51"/><path d="M1480,794L1538,946L1631,831Z" fill="#ba1384" stroke="#ba1384" stroke-width="1.51"/><path d="M1459,1138L1507,1261L1612,1167Z" fill="#93047b" stroke="#93047b" stroke-width="1.51"/><path d="M1507,1261L1315,1342L1594,1343Z" fill="#890779" stroke="#890779" stroke-width="1.51"/><path d="M1030,-214L1166,-215L1295,-255Z" fill="#f7a2c3" stroke="#f7a2c3" stroke-width="1.51"/><path d="M1432,336L1314,400L1442,579Z" fill="#e0599c" stroke="#e0599c" stroke-width="1.51"/><path d="M1346,-83L1466,-59L1505,-259Z" fill="#e48db5" stroke="#e48db5" stroke-width="1.51"/><path d="M1303,1022L1459,1138L1538,946Z" fill="#ad1082" stroke="#ad1082" stroke-width="1.51"/><path d="M1480,794L1350,788L1538,946Z" fill="#c21d89" stroke="#c21d89" stroke-width="1.51"/><path d="M1350,788L1303,1022L1538,946Z" fill="#be1987" stroke="#be1987" stroke-width="1.51"/><path d="M1314,400L1361,578L1442,579Z" fill="#e14e99" stroke="#e14e99" stroke-width="1.51"/><path d="M1304,90L1465,130L1466,-59Z" fill="#e482aa" stroke="#e482aa" stroke-width="1.51"/><path d="M1442,579L1374,712L1487,732Z" fill="#d33491" stroke="#d33491" stroke-width="1.51"/><path d="M1295,-255L1346,-83L1505,-259Z" fill="#e993bb" stroke="#e993bb" stroke-width="1.51"/><path d="M1459,1138L1308,1194L1507,1261Z" fill="#9a0e7f" stroke="#9a0e7f" stroke-width="1.51"/><path d="M1308,1194L1315,1342L1507,1261Z" fill="#96117f" stroke="#96117f" stroke-width="1.51"/><path d="M1378,256L1455,252L1465,130Z" fill="#e074a2" stroke="#e074a2" stroke-width="1.51"/><path d="M1346,-83L1304,90L1466,-59Z" fill="#e889b1" stroke="#e889b1" stroke-width="1.51"/><path d="M1374,712L1480,794L1487,732Z" fill="#ce288f" stroke="#ce288f" stroke-width="1.51"/><path d="M1374,712L1350,788L1480,794Z" fill="#d02990" stroke="#d02990" stroke-width="1.51"/><path d="M1361,578L1374,712L1442,579Z" fill="#da3e95" stroke="#da3e95" stroke-width="1.51"/><path d="M1378,256L1432,336L1455,252Z" fill="#e06da1" stroke="#e06da1" stroke-width="1.51"/><path d="M1304,90L1378,256L1465,130Z" fill="#e57ba6" stroke="#e57ba6" stroke-width="1.51"/><path d="M1303,1022L1308,1194L1459,1138Z" fill="#a91684" stroke="#a91684" stroke-width="1.51"/><path d="M1378,256L1314,400L1432,336Z" fill="#e46aa1" stroke="#e46aa1" stroke-width="1.51"/><path d="M1176,1299L1087,1316L1315,1342Z" fill="#9b2183" stroke="#9b2183" stroke-width="1.51"/><path d="M1187,-52L1304,90L1346,-83Z" fill="#ef8eb4" stroke="#ef8eb4" stroke-width="1.51"/><path d="M1169,827L1303,1022L1350,788Z" fill="#cd268e" stroke="#cd268e" stroke-width="1.51"/><path d="M1314,400L1223,575L1361,578Z" fill="#e8529c" stroke="#e8529c" stroke-width="1.51"/><path d="M1361,578L1223,575L1374,712Z" fill="#e14298" stroke="#e14298" stroke-width="1.51"/><path d="M1304,90L1133,269L1378,256Z" fill="#ed7da9" stroke="#ed7da9" stroke-width="1.51"/><path d="M1133,269L1240,375L1378,256Z" fill="#ed74a7" stroke="#ed74a7" stroke-width="1.51"/><path d="M1240,375L1314,400L1378,256Z" fill="#e86ca4" stroke="#e86ca4" stroke-width="1.51"/><path d="M1161,108L1133,269L1304,90Z" fill="#f186ac" stroke="#f186ac" stroke-width="1.51"/><path d="M1303,1022L1221,1165L1308,1194Z" fill="#ae1c87" stroke="#ae1c87" stroke-width="1.51"/><path d="M1139,722L1350,788L1374,712Z" fill="#db3496" stroke="#db3496" stroke-width="1.51"/><path d="M1223,575L1139,722L1374,712Z" fill="#e3419a" stroke="#e3419a" stroke-width="1.51"/><path d="M1295,-255L1166,-215L1346,-83Z" fill="#f299be" stroke="#f299be" stroke-width="1.51"/><path d="M1166,-215L1187,-52L1346,-83Z" fill="#f297bc" stroke="#f297bc" stroke-width="1.51"/><path d="M1308,1194L1176,1299L1315,1342Z" fill="#9d1983" stroke="#9d1983" stroke-width="1.51"/><path d="M1139,722L1169,827L1350,788Z" fill="#db3596" stroke="#db3596" stroke-width="1.51"/><path d="M1240,375L1223,575L1314,400Z" fill="#eb5fa1" stroke="#eb5fa1" stroke-width="1.51"/><path d="M1134,1023L1221,1165L1303,1022Z" fill="#b92389" stroke="#b92389" stroke-width="1.51"/><path d="M1169,827L1134,1023L1303,1022Z" fill="#c7288b" stroke="#c7288b" stroke-width="1.51"/><path d="M1187,-52L1161,108L1304,90Z" fill="#f28db1" stroke="#f28db1" stroke-width="1.51"/><path d="M1221,1165L1176,1299L1308,1194Z" fill="#a51e86" stroke="#a51e86" stroke-width="1.51"/><path d="M1075,445L1223,575L1240,375Z" fill="#ef62a1" stroke="#ef62a1" stroke-width="1.51"/><path d="M1133,269L1075,445L1240,375Z" fill="#f174a7" stroke="#f174a7" stroke-width="1.51"/><path d="M1087,87L1161,108L1187,-52Z" fill="#f592b3" stroke="#f592b3" stroke-width="1.51"/><path d="M1072,1185L1176,1299L1221,1165Z" fill="#a92787" stroke="#a92787" stroke-width="1.51"/><path d="M1134,1023L1072,1185L1221,1165Z" fill="#b42b8a" stroke="#b42b8a" stroke-width="1.51"/><path d="M1014,594L1139,722L1223,575Z" fill="#eb519d" stroke="#eb519d" stroke-width="1.51"/><path d="M1075,445L1014,594L1223,575Z" fill="#f15d9f" stroke="#f15d9f" stroke-width="1.51"/><path d="M873,1249L750,1282L1087,1316Z" fill="#aa3d8a" stroke="#aa3d8a" stroke-width="1.51"/><path d="M1050,286L1075,445L1133,269Z" fill="#f47ca9" stroke="#f47ca9" stroke-width="1.51"/><path d="M1087,87L1133,269L1161,108Z" fill="#f48bae" stroke="#f48bae" stroke-width="1.51"/><path d="M1030,-214L1016,-92L1166,-215Z" fill="#faa6c1" stroke="#faa6c1" stroke-width="1.51"/><path d="M1040,1033L1134,1023L1169,827Z" fill="#cb318d" stroke="#cb318d" stroke-width="1.51"/><path d="M1002,788L1040,1033L1169,827Z" fill="#d63c92" stroke="#d63c92" stroke-width="1.51"/><path d="M1072,1185L1087,1316L1176,1299Z" fill="#a52a86" stroke="#a52a86" stroke-width="1.51"/><path d="M1016,-92L1087,87L1187,-52Z" fill="#f79ab9" stroke="#f79ab9" stroke-width="1.51"/><path d="M1166,-215L1016,-92L1187,-52Z" fill="#f79fbe" stroke="#f79fbe" stroke-width="1.51"/><path d="M1040,1033L1072,1185L1134,1023Z" fill="#bd328c" stroke="#bd328c" stroke-width="1.51"/><path d="M1087,87L1050,286L1133,269Z" fill="#f588ac" stroke="#f588ac" stroke-width="1.51"/><path d="M1014,594L995,651L1139,722Z" fill="#ec549d" stroke="#ec549d" stroke-width="1.51"/><path d="M1139,722L1002,788L1169,827Z" fill="#e04198" stroke="#e04198" stroke-width="1.51"/><path d="M1002,788L940,988L1040,1033Z" fill="#d33e90" stroke="#d33e90" stroke-width="1.51"/><path d="M995,651L1002,788L1139,722Z" fill="#e84c9b" stroke="#e84c9b" stroke-width="1.51"/><path d="M877,122L871,225L1050,286Z" fill="#fa94af" stroke="#fa94af" stroke-width="1.51"/><path d="M1040,1033L874,1152L1072,1185Z" fill="#bb398c" stroke="#bb398c" stroke-width="1.51"/><path d="M928,520L1014,594L1075,445Z" fill="#f568a2" stroke="#f568a2" stroke-width="1.51"/><path d="M1050,286L932,390L1075,445Z" fill="#f67ba8" stroke="#f67ba8" stroke-width="1.51"/><path d="M1072,1185L873,1249L1087,1316Z" fill="#ab3388" stroke="#ab3388" stroke-width="1.51"/><path d="M877,122L1050,286L1087,87Z" fill="#f992af" stroke="#f992af" stroke-width="1.51"/><path d="M1016,-92L877,122L1087,87Z" fill="#fb9db6" stroke="#fb9db6" stroke-width="1.51"/><path d="M932,390L928,520L1075,445Z" fill="#f773a5" stroke="#f773a5" stroke-width="1.51"/><path d="M908,803L940,988L1002,788Z" fill="#dd4996" stroke="#dd4996" stroke-width="1.51"/><path d="M874,1152L873,1249L1072,1185Z" fill="#b43c8c" stroke="#b43c8c" stroke-width="1.51"/><path d="M855,-86L877,122L1016,-92Z" fill="#fda7bc" stroke="#fda7bc" stroke-width="1.51"/><path d="M940,988L874,1152L1040,1033Z" fill="#c53e8e" stroke="#c53e8e" stroke-width="1.51"/><path d="M871,225L932,390L1050,286Z" fill="#f989ac" stroke="#f989ac" stroke-width="1.51"/><path d="M995,651L938,648L1002,788Z" fill="#ec559d" stroke="#ec559d" stroke-width="1.51"/><path d="M855,-86L1016,-92L1030,-214Z" fill="#feaac1" stroke="#feaac1" stroke-width="1.51"/><path d="M842,-239L855,-86L1030,-214Z" fill="#feb1c5" stroke="#feb1c5" stroke-width="1.51"/><path d="M938,648L908,803L1002,788Z" fill="#ea519d" stroke="#ea519d" stroke-width="1.51"/><path d="M938,648L995,651L1014,594Z" fill="#f15c9f" stroke="#f15c9f" stroke-width="1.51"/><path d="M928,520L938,648L1014,594Z" fill="#f463a0" stroke="#f463a0" stroke-width="1.51"/><path d="M712,383L715,528L928,520Z" fill="#f982aa" stroke="#f982aa" stroke-width="1.51"/><path d="M871,225L757,286L932,390Z" fill="#fa92af" stroke="#fa92af" stroke-width="1.51"/><path d="M712,383L928,520L932,390Z" fill="#f981aa" stroke="#f981aa" stroke-width="1.51"/><path d="M721,681L908,803L938,648Z" fill="#ee60a1" stroke="#ee60a1" stroke-width="1.51"/><path d="M928,520L715,528L938,648Z" fill="#f66fa4" stroke="#f66fa4" stroke-width="1.51"/><path d="M715,528L721,681L938,648Z" fill="#f370a5" stroke="#f370a5" stroke-width="1.51"/><path d="M749,1041L874,1152L940,988Z" fill="#c64991" stroke="#c64991" stroke-width="1.51"/><path d="M908,803L743,830L940,988Z" fill="#dc5197" stroke="#dc5197" stroke-width="1.51"/><path d="M743,830L749,1041L940,988Z" fill="#d45194" stroke="#d45194" stroke-width="1.51"/><path d="M90,-249L411,-196L615,-258Z" fill="#fedad7" stroke="#fedad7" stroke-width="1.51"/><path d="M757,286L712,383L932,390Z" fill="#fa91af" stroke="#fa91af" stroke-width="1.51"/><path d="M855,-86L723,96L877,122Z" fill="#fcabbb" stroke="#fcabbb" stroke-width="1.51"/><path d="M692,-24L723,96L855,-86Z" fill="#fdb3c0" stroke="#fdb3c0" stroke-width="1.51"/><path d="M721,681L743,830L908,803Z" fill="#e861a0" stroke="#e861a0" stroke-width="1.51"/><path d="M842,-239L778,-242L855,-86Z" fill="#feb8c9" stroke="#feb8c9" stroke-width="1.51"/><path d="M723,96L757,286L871,225Z" fill="#fba1b4" stroke="#fba1b4" stroke-width="1.51"/><path d="M789,1188L873,1249L874,1152Z" fill="#b4468f" stroke="#b4468f" stroke-width="1.51"/><path d="M749,1041L789,1188L874,1152Z" fill="#bd4c92" stroke="#bd4c92" stroke-width="1.51"/><path d="M723,96L871,225L877,122Z" fill="#fba2b4" stroke="#fba2b4" stroke-width="1.51"/><path d="M789,1188L750,1282L873,1249Z" fill="#af498f" stroke="#af498f" stroke-width="1.51"/><path d="M778,-242L692,-24L855,-86Z" fill="#fdb8c7" stroke="#fdb8c7" stroke-width="1.51"/><path d="M743,830L601,979L749,1041Z" fill="#d55d98" stroke="#d55d98" stroke-width="1.51"/><path d="M615,-258L692,-24L778,-242Z" fill="#fec3cd" stroke="#fec3cd" stroke-width="1.51"/><path d="M568,1108L750,1282L789,1188Z" fill="#b65494" stroke="#b65494" stroke-width="1.51"/><path d="M749,1041L568,1108L789,1188Z" fill="#c05796" stroke="#c05796" stroke-width="1.51"/><path d="M568,1108L594,1307L750,1282Z" fill="#b15894" stroke="#b15894" stroke-width="1.51"/><path d="M723,96L537,283L757,286Z" fill="#fba9b8" stroke="#fba9b8" stroke-width="1.51"/><path d="M615,-258L535,-112L692,-24Z" fill="#fdc6cd" stroke="#fdc6cd" stroke-width="1.51"/><path d="M715,528L597,573L721,681Z" fill="#f67ea9" stroke="#f67ea9" stroke-width="1.51"/><path d="M597,573L607,658L721,681Z" fill="#f37ca9" stroke="#f37ca9" stroke-width="1.51"/><path d="M540,85L537,283L723,96Z" fill="#fcb4bb" stroke="#fcb4bb" stroke-width="1.51"/><path d="M721,681L542,796L743,830Z" fill="#ea6da4" stroke="#ea6da4" stroke-width="1.51"/><path d="M537,283L712,383L757,286Z" fill="#faa0b5" stroke="#faa0b5" stroke-width="1.51"/><path d="M607,658L542,796L721,681Z" fill="#ef76a8" stroke="#ef76a8" stroke-width="1.51"/><path d="M601,979L568,1108L749,1041Z" fill="#c95f99" stroke="#c95f99" stroke-width="1.51"/><path d="M542,796L601,979L743,830Z" fill="#df699f" stroke="#df699f" stroke-width="1.51"/><path d="M712,383L567,432L715,528Z" fill="#fa90af" stroke="#fa90af" stroke-width="1.51"/><path d="M692,-24L540,85L723,96Z" fill="#fcb8bf" stroke="#fcb8bf" stroke-width="1.51"/><path d="M567,432L597,573L715,528Z" fill="#f98bad" stroke="#f98bad" stroke-width="1.51"/><path d="M537,283L567,432L712,383Z" fill="#fb9fb4" stroke="#fb9fb4" stroke-width="1.51"/><path d="M420,1238L257,1277L594,1307Z" fill="#ae6497" stroke="#ae6497" stroke-width="1.51"/><path d="M535,-112L540,85L692,-24Z" fill="#fdc0c6" stroke="#fdc0c6" stroke-width="1.51"/><path d="M90,-249L250,-182L411,-196Z" fill="#fedfdb" stroke="#fedfdb" stroke-width="1.51"/><path d="M438,202L537,283L540,85Z" fill="#fcb7bc" stroke="#fcb7bc" stroke-width="1.51"/><path d="M537,283L485,347L567,432Z" fill="#fba5b7" stroke="#fba5b7" stroke-width="1.51"/><path d="M568,1108L420,1238L594,1307Z" fill="#b36097" stroke="#b36097" stroke-width="1.51"/><path d="M542,796L469,879L601,979Z" fill="#dd6ea0" stroke="#dd6ea0" stroke-width="1.51"/><path d="M411,-196L535,-112L615,-258Z" fill="#fecfd1" stroke="#fecfd1" stroke-width="1.51"/><path d="M535,-112L409,-57L540,85Z" fill="#fcc7c8" stroke="#fcc7c8" stroke-width="1.51"/><path d="M414,986L428,1091L568,1108Z" fill="#c86a9b" stroke="#c86a9b" stroke-width="1.51"/><path d="M567,432L419,540L597,573Z" fill="#fa91ae" stroke="#fa91ae" stroke-width="1.51"/><path d="M414,986L568,1108L601,979Z" fill="#cc679b" stroke="#cc679b" stroke-width="1.51"/><path d="M388,740L542,796L607,658Z" fill="#ef7ca9" stroke="#ef7ca9" stroke-width="1.51"/><path d="M597,573L419,540L607,658Z" fill="#f788ac" stroke="#f788ac" stroke-width="1.51"/><path d="M419,540L388,740L607,658Z" fill="#f587ac" stroke="#f587ac" stroke-width="1.51"/><path d="M469,879L414,986L601,979Z" fill="#d76c9d" stroke="#d76c9d" stroke-width="1.51"/><path d="M470,93L438,202L540,85Z" fill="#fcbebe" stroke="#fcbebe" stroke-width="1.51"/><path d="M409,-57L470,93L540,85Z" fill="#fdc4c4" stroke="#fdc4c4" stroke-width="1.51"/><path d="M102,1254L-13,1271L257,1277Z" fill="#b074a4" stroke="#b074a4" stroke-width="1.51"/><path d="M485,347L419,540L567,432Z" fill="#fa9db3" stroke="#fa9db3" stroke-width="1.51"/><path d="M428,1091L420,1238L568,1108Z" fill="#bd669a" stroke="#bd669a" stroke-width="1.51"/><path d="M388,740L469,879L542,796Z" fill="#e779a6" stroke="#e779a6" stroke-width="1.51"/><path d="M438,202L485,347L537,283Z" fill="#fbb0ba" stroke="#fbb0ba" stroke-width="1.51"/><path d="M411,-196L409,-57L535,-112Z" fill="#fed0cf" stroke="#fed0cf" stroke-width="1.51"/><path d="M307,681L388,740L419,540Z" fill="#f58eae" stroke="#f58eae" stroke-width="1.51"/><path d="M261,441L419,540L485,347Z" fill="#fba3b4" stroke="#fba3b4" stroke-width="1.51"/><path d="M438,202L330,199L485,347Z" fill="#fcb7bc" stroke="#fcb7bc" stroke-width="1.51"/><path d="M330,199L261,441L485,347Z" fill="#fbb3bb" stroke="#fbb3bb" stroke-width="1.51"/><path d="M297,872L414,986L469,879Z" fill="#dc76a1" stroke="#dc76a1" stroke-width="1.51"/><path d="M388,740L297,872L469,879Z" fill="#e57da6" stroke="#e57da6" stroke-width="1.51"/><path d="M409,-57L260,124L470,93Z" fill="#fdc9c4" stroke="#fdc9c4" stroke-width="1.51"/><path d="M260,124L330,199L470,93Z" fill="#fcc5c0" stroke="#fcc5c0" stroke-width="1.51"/><path d="M330,199L438,202L470,93Z" fill="#fcbebe" stroke="#fcbebe" stroke-width="1.51"/><path d="M234,-45L260,124L409,-57Z" fill="#fdd0cb" stroke="#fdd0cb" stroke-width="1.51"/><path d="M297,872L301,977L414,986Z" fill="#d877a0" stroke="#d877a0" stroke-width="1.51"/><path d="M291,561L307,681L419,540Z" fill="#f895b0" stroke="#f895b0" stroke-width="1.51"/><path d="M414,986L301,977L428,1091Z" fill="#cf719e" stroke="#cf719e" stroke-width="1.51"/><path d="M293,1126L420,1238L428,1091Z" fill="#bd6c9b" stroke="#bd6c9b" stroke-width="1.51"/><path d="M250,-182L409,-57L411,-196Z" fill="#fdd6d2" stroke="#fdd6d2" stroke-width="1.51"/><path d="M261,441L291,561L419,540Z" fill="#fc9eb3" stroke="#fc9eb3" stroke-width="1.51"/><path d="M301,977L293,1126L428,1091Z" fill="#c9729e" stroke="#c9729e" stroke-width="1.51"/><path d="M250,-182L234,-45L409,-57Z" fill="#fdd6d2" stroke="#fdd6d2" stroke-width="1.51"/><path d="M293,1126L257,1277L420,1238Z" fill="#b56c9c" stroke="#b56c9c" stroke-width="1.51"/><path d="M160,342L261,441L330,199Z" fill="#fcb8c0" stroke="#fcb8c0" stroke-width="1.51"/><path d="M-113,-217L-46,-218L90,-249Z" fill="#ffebe8" stroke="#ffebe8" stroke-width="1.51"/><path d="M307,681L297,872L388,740Z" fill="#ed85ac" stroke="#ed85ac" stroke-width="1.51"/><path d="M234,-45L179,94L260,124Z" fill="#fdd0cb" stroke="#fdd0cb" stroke-width="1.51"/><path d="M125,889L297,872L307,681Z" fill="#e885ad" stroke="#e885ad" stroke-width="1.51"/><path d="M98,667L125,889L307,681Z" fill="#f08eb4" stroke="#f08eb4" stroke-width="1.51"/><path d="M260,124L142,229L330,199Z" fill="#fdc5c4" stroke="#fdc5c4" stroke-width="1.51"/><path d="M142,229L160,342L330,199Z" fill="#fcc0c3" stroke="#fcc0c3" stroke-width="1.51"/><path d="M98,1142L257,1277L293,1126Z" fill="#ba73a2" stroke="#ba73a2" stroke-width="1.51"/><path d="M166,936L98,1142L293,1126Z" fill="#c979a5" stroke="#c979a5" stroke-width="1.51"/><path d="M297,872L166,936L301,977Z" fill="#db7ca5" stroke="#db7ca5" stroke-width="1.51"/><path d="M166,936L293,1126L301,977Z" fill="#d078a3" stroke="#d078a3" stroke-width="1.51"/><path d="M291,561L161,570L307,681Z" fill="#f898b4" stroke="#f898b4" stroke-width="1.51"/><path d="M161,570L98,667L307,681Z" fill="#f797b6" stroke="#f797b6" stroke-width="1.51"/><path d="M261,441L161,570L291,561Z" fill="#fca1b7" stroke="#fca1b7" stroke-width="1.51"/><path d="M125,889L166,936L297,872Z" fill="#df81aa" stroke="#df81aa" stroke-width="1.51"/><path d="M98,1142L102,1254L257,1277Z" fill="#b574a3" stroke="#b574a3" stroke-width="1.51"/><path d="M121,-45L234,-45L250,-182Z" fill="#fddad6" stroke="#fddad6" stroke-width="1.51"/><path d="M179,94L142,229L260,124Z" fill="#fdcbc7" stroke="#fdcbc7" stroke-width="1.51"/><path d="M160,342L161,570L261,441Z" fill="#fdacbd" stroke="#fdacbd" stroke-width="1.51"/><path d="M121,-45L179,94L234,-45Z" fill="#fdd6d2" stroke="#fdd6d2" stroke-width="1.51"/><path d="M90,-249L121,-45L250,-182Z" fill="#fee0dc" stroke="#fee0dc" stroke-width="1.51"/><path d="M160,342L33,371L161,570Z" fill="#fdb2c1" stroke="#fdb2c1" stroke-width="1.51"/><path d="M98,667L27,876L125,889Z" fill="#e98db5" stroke="#e98db5" stroke-width="1.51"/><path d="M33,371L-33,524L161,570Z" fill="#fdadc1" stroke="#fdadc1" stroke-width="1.51"/><path d="M10,972L98,1142L166,936Z" fill="#d07faa" stroke="#d07faa" stroke-width="1.51"/><path d="M121,-45L-7,37L179,94Z" fill="#fdd8d3" stroke="#fdd8d3" stroke-width="1.51"/><path d="M13,191L142,229L179,94Z" fill="#fdcccb" stroke="#fdcccb" stroke-width="1.51"/><path d="M-7,37L13,191L179,94Z" fill="#fdd4d0" stroke="#fdd4d0" stroke-width="1.51"/><path d="M90,-249L-3,-48L121,-45Z" fill="#fde2de" stroke="#fde2de" stroke-width="1.51"/><path d="M142,229L33,371L160,342Z" fill="#fcbfc7" stroke="#fcbfc7" stroke-width="1.51"/><path d="M125,889L10,972L166,936Z" fill="#dc83ac" stroke="#dc83ac" stroke-width="1.51"/><path d="M-13,644L98,667L161,570Z" fill="#f89ebc" stroke="#f89ebc" stroke-width="1.51"/><path d="M-33,524L-13,644L161,570Z" fill="#fba4bf" stroke="#fba4bf" stroke-width="1.51"/><path d="M-46,-218L-3,-48L90,-249Z" fill="#fee7e3" stroke="#fee7e3" stroke-width="1.51"/><path d="M13,191L33,371L142,229Z" fill="#fdc6cb" stroke="#fdc6cb" stroke-width="1.51"/><path d="M-13,644L27,876L98,667Z" fill="#f296bb" stroke="#f296bb" stroke-width="1.51"/><path d="M-3,-48L-7,37L121,-45Z" fill="#fdddd9" stroke="#fdddd9" stroke-width="1.51"/><path d="M27,876L10,972L125,889Z" fill="#de87af" stroke="#de87af" stroke-width="1.51"/><path d="M10,972L-68,1153L98,1142Z" fill="#c780ac" stroke="#c780ac" stroke-width="1.51"/><path d="M-68,1153L-13,1271L98,1142Z" fill="#ba7cab" stroke="#ba7cab" stroke-width="1.51"/><path d="M98,1142L-13,1271L102,1254Z" fill="#b578a8" stroke="#b578a8" stroke-width="1.51"/><path d="M-7,37L-139,135L13,191Z" fill="#fdd7d3" stroke="#fdd7d3" stroke-width="1.51"/><path d="M-13,644L-177,714L27,876Z" fill="#f298bd" stroke="#f298bd" stroke-width="1.51"/><path d="M-177,714L-203,800L27,876Z" fill="#ed97bd" stroke="#ed97bd" stroke-width="1.51"/><path d="M-220,414L-33,524L33,371Z" fill="#feb9c9" stroke="#feb9c9" stroke-width="1.51"/><path d="M13,191L-216,254L33,371Z" fill="#fecacf" stroke="#fecacf" stroke-width="1.51"/><path d="M-216,254L-220,414L33,371Z" fill="#fec6cf" stroke="#fec6cf" stroke-width="1.51"/><path d="M-203,800L-217,991L10,972Z" fill="#de8eb6" stroke="#de8eb6" stroke-width="1.51"/><path d="M-139,135L-216,254L13,191Z" fill="#fed3d3" stroke="#fed3d3" stroke-width="1.51"/><path d="M-203,800L10,972L27,876Z" fill="#e38db5" stroke="#e38db5" stroke-width="1.51"/><path d="M-46,-218L-113,-217L-3,-48Z" fill="#fee9e6" stroke="#fee9e6" stroke-width="1.51"/><path d="M-113,-217L-187,-40L-3,-48Z" fill="#fee7e4" stroke="#fee7e4" stroke-width="1.51"/><path d="M-217,991L-68,1153L10,972Z" fill="#ce86b1" stroke="#ce86b1" stroke-width="1.51"/><path d="M-220,414L-169,543L-33,524Z" fill="#ffb4c8" stroke="#ffb4c8" stroke-width="1.51"/><path d="M-33,524L-169,543L-13,644Z" fill="#fca9c3" stroke="#fca9c3" stroke-width="1.51"/><path d="M-187,-40L-7,37L-3,-48Z" fill="#fee1dd" stroke="#fee1dd" stroke-width="1.51"/><path d="M-187,-40L-139,135L-7,37Z" fill="#fededa" stroke="#fededa" stroke-width="1.51"/><path d="M-169,543L-177,714L-13,644Z" fill="#f9a5c3" stroke="#f9a5c3" stroke-width="1.51"/><path d="M-68,1153L-196,1235L-13,1271Z" fill="#b77ead" stroke="#b77ead" stroke-width="1.51"/><path d="M-217,991L-205,1174L-68,1153Z" fill="#c686b2" stroke="#c686b2" stroke-width="1.51"/><path d="M-205,1174L-196,1235L-68,1153Z" fill="#bb82b0" stroke="#bb82b0" stroke-width="1.51"/><path d="M-187,-40L-216,254L-139,135Z" fill="#fedcd8" stroke="#fedcd8" stroke-width="1.51"/><path d="M-220,414L-203,800L-177,714Z" fill="#faa7c5" stroke="#faa7c5" stroke-width="1.51"/><path d="M-220,414L-177,714L-169,543Z" fill="#ffafc7" stroke="#ffafc7" stroke-width="1.51"/><path d="M-220,414L-217,991L-203,800Z" fill="#f49fc4" stroke="#f49fc4" stroke-width="1.51"/></svg>