<?xml version="1.0" encoding="utf-8"?>
<!-- Generator: Adobe Illustrator 21.0.2, SVG Export Plug-In . SVG Version: 6.00 Build 0)  -->
<svg version="1.1" id="Layer_1" xmlns="http://www.w3.org/2000/svg" xmlns:xlink="http://www.w3.org/1999/xlink" x="0px" y="0px"
	 viewBox="0 0 1366 768" style="enable-background:new 0 0 1366 768;" xml:space="preserve">
<style type="text/css">
	.st0{fill:none;stroke:#000000;stroke-width:5;stroke-miterlimit:10;}
</style>
<g>
	<path class="st0" d="M0,342.5c40.2,0,40.2,84,80.4,84c40.2,0,40.2-84,80.4-84c40.2,0,40.2,84,80.4,84c40.2,0,40.2-84,80.4-84
		c40.2,0,40.2,84,80.4,84c40.2,0,40.2-84,80.3-84c40.2,0,40.2,84,80.3,84c40.2,0,40.2-84,80.4-84c40.2,0,40.2,84,80.4,84
		c40.2,0,40.2-84,80.4-84c40.2,0,40.2,84,80.4,84c40.2,0,40.2-84,80.4-84c40.2,0,40.2,84,80.4,84c40.2,0,40.2-84,80.4-84
		c40.2,0,40.2,84,80.4,84c40.2,0,40.2-84,80.4-84c40.2,0,40.2,84,80.4,84"/>
</g>
</svg>
